{"glyphs":{"0":{"ha":844,"x_min":56,"x_max":796,"o":"m 795 416 q 792 404 795 410 q 788 391 789 397 q 787 373 787 382 q 785 355 787 363 q 782 347 784 351 q 779 339 780 343 q 774 314 776 327 q 769 288 772 301 q 765 270 766 274 q 762 263 764 266 q 759 245 760 254 q 755 229 758 236 q 751 220 753 224 q 746 212 749 217 q 742 199 743 209 q 738 182 741 189 q 730 156 735 170 q 719 129 724 142 q 713 117 716 118 q 709 114 711 115 q 704 104 707 106 q 700 100 701 103 q 688 83 693 88 q 678 73 682 77 q 664 56 673 64 q 646 39 655 49 q 640 33 643 37 q 632 24 636 30 q 623 15 628 22 q 614 4 618 8 q 599 -5 608 -1 q 583 -15 590 -9 q 570 -27 576 -20 q 557 -37 564 -34 q 535 -39 548 -39 q 511 -42 522 -39 q 493 -45 505 -43 q 471 -49 481 -47 q 454 -52 458 -50 q 446 -53 449 -53 q 439 -51 442 -53 q 430 -49 435 -49 q 423 -50 427 -47 q 412 -50 419 -53 q 394 -47 400 -46 q 382 -47 388 -47 q 342 -41 362 -46 q 308 -24 323 -35 q 292 -14 297 -19 q 281 -11 288 -8 q 272 1 278 -3 q 256 9 266 4 q 244 23 250 19 q 235 33 239 27 q 220 49 231 38 q 209 56 212 56 q 205 57 206 56 q 194 68 198 64 q 189 80 190 73 q 178 85 182 79 q 171 95 175 91 l 156 110 q 140 131 146 123 q 127 144 134 138 q 120 161 123 157 q 115 167 117 164 q 107 184 110 174 q 100 203 102 195 q 96 217 99 210 q 93 225 95 221 q 88 235 91 229 q 82 256 83 243 q 75 281 81 270 q 66 332 75 307 q 57 387 57 358 q 58 403 57 393 q 60 423 60 412 q 58 449 60 441 q 57 464 57 457 q 57 472 56 468 q 60 479 58 476 q 56 525 60 502 q 60 553 60 537 q 60 587 60 570 q 62 621 60 605 q 73 650 64 637 q 72 664 72 656 q 79 674 72 671 q 77 684 77 680 q 77 694 76 688 q 82 705 77 701 q 90 712 87 708 q 92 722 92 715 q 99 726 92 728 q 97 747 94 736 q 106 769 100 758 q 111 783 109 776 q 115 802 113 791 q 119 812 119 808 q 121 819 119 817 q 130 838 127 833 q 136 848 133 844 q 149 863 140 853 q 156 875 152 871 q 160 884 160 879 q 173 893 170 886 q 187 901 176 901 q 196 916 194 911 q 201 922 198 920 q 214 935 210 930 q 220 940 217 939 q 244 956 235 947 q 263 971 254 964 q 275 978 269 975 q 288 987 282 981 q 302 988 296 985 q 316 994 309 991 q 332 996 328 994 q 372 1000 349 998 q 415 998 395 1001 q 428 998 426 997 q 433 1000 430 1000 q 454 997 445 997 q 473 994 464 997 q 486 989 480 993 q 499 983 492 986 q 522 981 510 981 q 543 971 533 981 q 553 970 548 972 q 562 966 557 968 q 572 961 567 963 q 585 959 578 959 q 621 934 604 945 q 658 910 639 922 q 663 903 659 906 q 669 894 666 899 q 682 869 675 883 q 699 846 688 856 q 700 838 697 840 q 701 830 703 836 q 728 782 716 807 q 746 726 739 757 q 755 715 749 719 q 765 705 762 711 q 769 692 768 696 q 772 688 770 689 q 773 678 773 682 q 776 669 773 674 q 782 649 779 658 q 787 632 785 640 q 787 615 788 624 q 788 598 787 606 q 791 585 789 591 q 792 571 792 578 q 791 514 789 540 q 795 468 793 488 q 794 458 795 465 q 793 444 793 452 q 795 430 793 437 q 795 416 796 423 m 646 563 q 637 622 647 594 q 621 681 627 650 q 609 699 613 688 q 602 724 605 709 q 592 740 597 732 q 585 757 587 747 q 558 780 574 768 q 534 803 543 792 q 526 812 528 810 q 524 817 525 815 q 503 827 509 823 q 490 833 496 830 q 448 840 467 844 q 407 838 429 836 q 384 824 392 829 q 369 815 376 819 q 360 817 362 817 q 353 814 358 817 q 349 806 350 811 q 345 799 347 802 q 334 791 335 793 q 331 785 334 788 q 316 772 324 779 q 305 758 308 766 q 303 751 302 755 q 302 742 304 746 q 298 731 301 739 q 296 724 297 727 q 283 696 289 705 q 274 680 277 686 q 273 670 273 674 q 270 661 273 666 q 262 648 266 650 q 259 646 259 647 q 258 633 256 639 q 256 621 259 628 q 253 612 255 616 q 250 601 251 608 q 249 594 247 598 q 250 583 251 590 q 246 565 248 572 q 244 551 244 557 q 245 533 244 541 q 243 518 245 525 q 241 510 243 514 q 239 500 239 506 q 239 471 237 486 q 241 441 241 456 q 241 418 241 429 q 240 397 240 407 q 244 378 241 388 q 248 361 247 369 q 250 352 250 357 q 252 343 251 347 q 256 334 255 338 q 259 326 258 331 q 260 315 262 321 q 262 305 259 309 q 266 290 264 297 q 270 278 267 282 q 277 248 277 262 q 293 225 286 237 q 311 203 300 213 q 325 185 321 193 q 331 171 328 178 q 340 163 336 168 q 347 151 343 157 q 361 146 357 152 q 369 138 365 141 q 390 127 381 132 q 414 119 399 122 q 437 117 423 119 q 455 117 445 117 q 472 119 465 117 q 490 127 481 121 q 505 138 498 133 q 515 148 514 145 q 518 152 517 151 q 528 159 522 156 q 538 164 533 161 q 557 185 553 175 q 567 205 562 195 q 571 214 570 212 q 574 218 572 216 q 576 232 576 225 q 583 244 576 239 q 587 275 583 264 q 597 292 594 286 q 604 300 600 297 q 606 311 601 307 q 612 323 610 316 q 614 338 614 330 q 617 353 614 346 q 618 361 618 357 q 620 369 618 365 q 628 396 627 387 q 631 414 629 406 q 635 427 633 420 q 636 441 636 434 q 635 454 637 448 q 635 467 633 460 q 637 475 635 471 q 639 481 639 479 q 639 492 640 487 q 637 500 637 496 q 642 532 639 517 q 646 563 644 547 z "},"1":{"ha":392,"x_min":33,"x_max":317,"o":"m 315 34 q 315 15 312 23 q 315 -1 317 7 q 307 -11 311 -5 q 298 -19 304 -16 q 288 -18 292 -20 q 279 -15 285 -15 q 269 -19 273 -16 q 262 -24 266 -22 q 235 -30 247 -22 q 208 -41 224 -38 q 189 -43 195 -43 q 175 -35 183 -42 q 163 -20 165 -26 q 155 -7 159 -9 q 149 0 152 -4 q 151 30 153 12 q 151 45 149 41 q 153 56 153 50 q 151 65 153 61 q 149 75 149 69 q 151 86 149 80 q 152 99 152 92 q 153 122 153 110 q 151 148 152 134 q 149 156 151 152 q 146 163 146 160 q 147 182 149 178 q 152 191 145 187 q 150 203 151 198 q 152 214 149 208 q 156 226 156 222 q 157 232 156 229 q 155 242 159 239 q 149 250 151 245 q 150 285 155 270 q 151 317 145 300 q 144 340 144 328 q 141 365 144 353 q 137 383 140 374 q 133 401 134 392 q 133 437 130 419 q 133 472 136 456 q 130 480 132 476 q 129 488 129 484 q 128 498 127 494 q 129 509 129 503 q 127 517 129 513 q 125 526 125 522 q 127 538 125 532 q 130 552 129 545 q 128 566 130 559 q 133 581 126 572 q 130 590 130 587 q 133 600 130 593 q 128 637 127 617 q 127 675 129 658 q 129 689 127 682 q 130 703 130 696 q 129 720 130 711 q 127 735 127 728 q 129 745 127 741 q 130 755 130 750 q 126 772 126 766 q 126 783 126 779 q 125 797 125 787 q 126 814 126 807 q 131 836 127 825 q 127 856 134 846 q 113 852 119 856 q 96 852 107 849 q 87 843 92 844 q 81 838 83 842 q 65 838 71 844 q 49 834 60 833 q 42 844 46 841 q 37 852 38 846 q 39 880 33 864 q 38 907 45 895 q 41 918 41 911 q 43 932 42 925 q 45 947 43 940 q 52 959 46 955 q 47 984 50 975 q 46 998 45 993 q 51 1009 47 1005 q 56 1020 54 1013 q 90 1022 71 1025 q 129 1017 109 1019 q 140 1019 134 1017 q 152 1020 145 1020 q 170 1020 161 1020 q 187 1021 179 1020 q 201 1020 198 1019 q 208 1020 205 1021 q 245 1014 232 1013 q 271 1015 259 1015 q 276 1006 271 1008 q 283 1002 281 1005 q 286 979 288 991 q 278 960 283 967 q 283 895 281 925 q 282 834 285 865 q 286 826 282 827 q 289 818 289 825 q 288 778 288 800 q 285 734 289 755 q 288 720 289 723 q 289 715 288 718 q 290 707 286 712 q 293 700 293 703 q 292 658 294 677 q 289 621 289 639 q 291 612 289 616 q 290 601 293 608 q 289 593 288 597 q 292 583 290 590 q 291 574 293 576 q 288 568 289 571 q 290 551 292 560 q 292 534 289 543 q 294 523 292 528 q 297 511 296 518 q 297 496 298 505 q 296 480 296 487 q 298 471 297 475 q 300 460 300 467 q 302 437 301 449 q 301 415 302 426 q 300 407 301 411 q 298 400 298 403 q 301 390 300 395 q 302 380 302 385 q 303 354 301 362 q 307 339 305 346 q 307 326 308 332 q 308 312 307 319 q 311 300 309 305 q 312 289 312 294 q 310 259 309 273 q 311 237 311 245 q 311 217 309 222 q 312 208 312 212 q 311 196 312 201 q 309 186 309 191 q 311 158 309 172 q 307 130 313 144 q 311 114 311 123 q 305 98 311 104 q 309 77 308 83 q 312 68 311 72 q 311 60 312 64 q 311 52 311 56 q 313 43 312 47 q 315 34 315 39 z "},"2":{"ha":791,"x_min":42,"x_max":730,"o":"m 728 127 q 725 106 730 119 q 720 81 720 94 q 722 70 720 75 q 722 61 724 65 q 713 43 719 50 q 704 31 708 37 q 694 31 697 30 q 688 34 692 33 q 678 26 681 31 q 669 19 675 22 q 641 24 650 20 q 624 30 632 27 q 605 29 609 27 q 598 31 601 31 q 564 29 576 27 q 540 34 552 31 q 520 28 532 33 q 494 27 509 23 q 481 32 486 33 q 473 31 476 31 l 457 31 q 450 34 453 33 q 442 37 446 35 q 435 37 439 38 q 426 37 430 37 q 418 39 422 38 q 411 42 414 41 q 401 41 406 42 q 393 39 396 39 q 379 42 387 39 q 365 45 372 45 q 349 43 358 45 q 332 47 339 41 q 298 40 320 42 q 266 45 277 38 q 249 38 256 42 q 229 37 241 34 q 213 39 227 39 q 197 35 199 38 q 189 33 194 34 q 179 31 184 33 q 163 26 171 28 q 142 22 155 24 q 127 17 137 20 q 107 16 118 14 q 101 23 104 20 q 98 33 98 26 q 90 40 91 35 q 91 50 90 45 q 97 61 92 57 q 109 71 102 65 q 122 81 118 79 q 129 85 126 83 q 136 96 133 91 q 146 107 140 102 q 159 119 153 114 q 171 133 164 125 q 180 147 178 141 q 186 156 183 153 q 195 165 190 161 q 208 174 201 170 q 220 188 216 184 q 228 195 225 191 q 236 208 235 203 q 239 213 237 212 q 250 222 247 217 q 258 231 254 227 q 278 252 271 244 q 292 269 285 259 q 311 285 298 279 q 315 302 308 300 q 326 316 323 305 q 332 320 330 317 q 340 323 335 323 q 346 342 340 335 q 358 356 351 350 q 372 368 365 362 q 381 385 378 374 q 395 397 391 389 q 410 408 399 406 q 410 416 406 414 q 416 422 415 419 q 423 434 423 430 q 426 441 423 438 q 439 454 437 449 q 448 457 442 460 q 454 469 453 464 q 454 477 454 473 q 467 493 463 483 q 479 513 472 503 q 486 523 483 518 q 494 534 488 528 q 499 543 496 538 q 505 553 502 547 q 517 581 511 571 q 524 602 522 591 q 530 611 526 608 q 537 618 534 614 q 551 654 537 642 q 549 662 552 659 q 547 670 547 665 q 553 692 552 685 q 553 705 553 700 q 557 721 555 713 q 559 735 559 728 q 557 744 559 739 q 555 755 556 749 q 552 772 552 765 q 548 787 552 779 q 540 806 543 796 q 534 821 537 815 q 519 836 524 831 q 511 842 515 841 q 507 850 510 848 q 503 860 505 853 q 475 869 487 863 q 452 883 463 875 q 439 882 445 880 q 426 886 434 884 q 404 886 415 887 q 381 886 392 886 q 355 884 363 887 q 339 876 346 880 q 319 867 332 872 q 298 857 307 863 q 288 850 292 850 q 283 846 285 849 q 262 829 273 840 q 241 814 252 819 q 229 797 237 803 q 217 780 221 791 q 208 754 212 765 q 201 732 205 743 q 197 696 198 713 q 199 662 195 678 q 203 654 201 656 q 209 646 206 651 q 214 638 212 643 q 218 631 216 633 q 224 619 221 624 q 232 606 228 614 q 233 589 236 595 q 225 576 229 582 q 203 574 214 574 q 178 572 193 574 q 151 570 161 572 q 133 567 141 567 q 121 571 126 568 q 109 575 115 574 q 98 570 100 576 q 88 564 96 564 l 60 564 q 55 573 57 570 q 50 582 53 576 q 47 591 53 590 q 42 598 42 591 q 47 617 42 612 q 45 641 46 631 q 46 661 45 651 q 50 669 46 667 q 57 674 54 671 q 56 683 57 680 q 53 690 54 686 q 56 700 57 697 q 56 705 54 703 q 58 713 57 709 q 60 720 58 716 q 64 728 62 724 q 66 735 66 731 q 69 747 69 741 q 69 761 69 754 q 74 783 72 772 q 84 804 76 795 l 84 823 q 95 840 91 830 q 99 861 99 849 q 112 879 107 868 q 121 902 117 890 q 133 913 127 906 q 138 919 136 916 q 146 924 140 922 q 155 943 151 937 q 167 954 160 949 q 176 961 174 960 q 182 963 179 962 q 187 968 184 966 q 193 974 190 971 q 208 992 198 985 q 225 1004 218 1000 q 239 1012 231 1006 q 248 1018 244 1016 q 256 1024 252 1020 q 274 1041 267 1036 q 283 1053 281 1046 q 296 1055 290 1051 q 309 1054 302 1059 q 319 1058 313 1057 q 331 1062 324 1059 q 354 1063 336 1063 q 372 1067 363 1065 q 391 1069 381 1069 q 410 1069 401 1072 q 429 1069 419 1066 q 448 1066 442 1065 q 458 1067 453 1067 q 472 1066 464 1069 q 488 1061 480 1063 q 515 1057 505 1058 q 536 1048 525 1055 q 550 1039 548 1042 q 555 1035 552 1036 q 563 1030 557 1032 q 571 1024 568 1028 l 587 1024 q 598 1015 591 1017 q 612 1009 605 1013 q 629 998 618 1004 q 646 986 639 993 q 655 968 650 977 q 665 951 661 960 q 671 942 669 947 q 675 933 673 937 q 682 928 678 930 q 684 918 686 925 q 694 911 692 916 q 700 898 697 906 q 707 872 707 884 q 718 857 707 860 q 722 839 719 848 q 727 821 726 830 q 726 810 727 815 q 724 800 724 806 q 723 781 726 787 q 720 773 720 776 q 720 743 718 758 q 719 713 722 728 q 712 684 712 694 q 711 667 712 674 q 704 651 704 650 q 699 627 704 637 q 693 612 696 620 q 688 597 690 604 q 679 580 684 585 q 671 571 674 575 q 666 562 669 567 q 661 553 663 557 q 652 543 654 545 q 650 537 651 540 q 643 526 646 530 q 636 515 640 522 q 635 509 635 513 q 632 500 635 505 q 627 494 629 498 q 623 487 625 490 q 616 479 617 483 q 613 473 616 476 q 608 467 610 471 q 604 460 606 464 q 594 448 597 449 q 591 445 591 446 q 579 419 586 433 q 562 396 572 406 q 556 379 562 387 q 545 365 551 372 q 534 345 540 350 q 526 328 528 339 q 517 321 521 326 q 511 312 514 316 q 498 297 502 302 q 484 282 488 286 q 476 273 479 278 q 467 259 471 264 q 454 240 457 247 q 449 229 452 233 q 435 212 442 220 q 425 193 429 203 q 447 192 435 193 q 469 194 458 191 q 483 199 479 198 q 490 201 487 199 q 509 205 500 203 q 533 209 518 206 q 550 212 541 210 q 571 213 559 214 q 581 210 578 209 q 586 210 585 210 q 604 209 595 208 q 618 212 612 210 q 633 212 625 213 q 647 213 640 212 q 660 216 654 214 q 677 220 666 218 q 692 220 685 220 q 708 218 700 221 q 720 182 712 197 q 722 152 727 167 q 726 140 724 145 q 728 127 728 134 z "},"3":{"ha":785,"x_min":41,"x_max":730,"o":"m 730 324 q 728 312 730 317 q 726 300 727 307 q 723 271 723 285 q 720 248 723 256 q 716 239 719 243 q 711 228 713 235 q 704 204 707 216 q 690 186 701 193 q 686 166 686 172 q 684 157 685 160 q 672 140 675 146 q 665 127 669 133 q 660 121 662 125 q 655 115 658 118 q 643 96 648 103 q 631 90 637 88 q 618 75 628 76 q 616 66 620 68 q 612 58 613 64 q 602 52 605 57 q 595 45 600 47 q 585 40 589 43 q 579 34 582 37 q 551 20 557 23 q 536 16 543 18 q 524 8 529 15 q 513 8 517 9 q 506 4 509 7 q 484 -3 494 1 q 463 -11 473 -7 q 449 -16 456 -14 q 435 -19 442 -18 q 425 -18 430 -19 q 415 -18 420 -18 q 398 -21 403 -22 q 391 -20 393 -20 q 374 -20 378 -22 q 365 -18 369 -18 q 331 -13 350 -14 q 305 0 312 -12 q 286 0 294 -4 q 266 9 277 4 q 252 16 255 14 q 245 20 248 19 q 236 26 240 23 q 225 33 232 30 q 211 41 217 38 q 197 49 205 43 q 182 62 186 56 q 175 72 179 68 q 166 77 171 76 q 157 83 161 79 q 134 111 146 99 q 114 142 121 123 q 101 157 103 153 q 96 163 99 160 q 87 176 88 170 q 79 183 85 182 q 77 194 81 190 q 72 201 73 198 q 67 217 69 212 q 62 227 65 222 l 62 241 q 58 251 61 248 q 54 258 56 254 q 52 281 52 269 q 49 305 52 293 q 43 318 46 312 q 42 331 41 324 q 47 345 43 339 q 58 357 52 350 q 67 355 65 358 q 76 351 69 353 q 100 355 85 355 q 111 355 104 354 q 121 357 117 357 q 142 356 132 354 q 159 358 152 358 q 172 358 165 359 q 186 358 178 357 q 197 361 191 359 q 209 362 202 363 q 222 356 216 361 q 232 346 229 351 q 229 320 232 331 q 229 294 227 309 q 231 286 231 290 q 231 277 231 281 q 234 271 232 274 q 237 263 236 269 q 238 253 239 258 q 239 244 237 248 q 249 220 245 231 q 258 203 252 210 q 270 190 262 198 q 275 184 273 187 q 281 179 278 180 q 290 176 285 176 q 302 174 296 176 q 326 165 317 168 q 343 160 334 163 q 361 155 355 156 q 384 155 368 153 q 395 155 389 156 q 408 157 401 155 q 422 161 415 159 q 435 165 429 163 q 453 169 445 168 q 468 172 461 170 q 478 178 473 175 q 488 186 483 182 q 505 196 495 190 q 518 208 514 202 q 533 228 528 217 q 545 247 538 239 q 549 269 547 255 q 556 288 552 282 q 551 301 549 294 q 553 321 553 308 q 554 359 552 345 q 551 384 556 373 q 542 397 547 391 q 536 414 537 404 q 526 431 529 420 q 517 452 522 442 q 503 456 509 452 q 483 461 496 461 q 476 470 479 465 q 468 477 473 475 q 455 482 461 480 q 442 487 449 484 q 429 493 435 490 q 415 498 422 496 q 393 498 404 499 q 372 494 382 496 q 353 488 362 491 q 335 484 345 486 q 322 477 327 481 q 309 475 317 473 q 296 481 300 475 q 285 494 292 487 q 290 537 288 514 q 294 581 292 560 q 290 588 294 585 q 285 595 286 591 q 279 613 282 608 q 277 625 277 618 q 282 641 278 635 q 293 654 286 647 q 331 644 315 654 q 388 650 355 647 q 448 656 420 652 q 458 659 453 658 q 468 659 463 661 q 492 673 479 669 q 511 689 506 677 q 522 699 519 692 q 532 709 525 705 q 534 732 534 722 q 534 754 533 743 q 538 769 537 764 q 537 785 540 774 q 536 797 537 791 q 532 810 534 803 q 515 842 525 827 q 505 852 510 848 q 494 863 499 857 q 481 873 487 868 q 471 883 476 878 q 463 882 467 880 q 456 886 460 884 q 431 887 438 884 q 416 891 423 890 q 402 890 410 891 q 388 888 395 890 q 358 880 374 887 q 351 880 355 879 q 343 879 346 880 q 309 860 320 868 q 286 848 297 852 q 279 822 289 833 q 266 793 269 811 q 265 782 264 788 q 264 769 266 776 q 263 757 264 762 q 262 747 262 751 q 265 732 263 738 q 264 718 267 727 q 258 707 262 713 q 250 700 254 701 q 233 702 239 697 q 218 709 228 707 q 208 708 213 709 q 195 708 202 707 q 175 711 184 708 q 156 715 165 713 q 146 714 152 715 q 137 713 141 713 q 115 715 125 713 q 94 720 104 718 q 77 734 84 734 q 68 738 69 734 q 65 777 61 753 q 68 786 66 783 q 69 793 69 789 q 70 804 71 799 q 71 814 69 808 q 74 831 75 826 q 75 841 73 837 q 81 856 80 849 q 88 865 81 863 q 88 878 91 872 q 91 891 85 884 q 99 908 98 905 q 102 914 100 911 q 106 925 106 921 q 114 936 107 929 q 119 942 117 940 q 122 947 121 944 q 125 951 123 949 q 134 958 132 958 q 138 960 137 959 q 159 979 151 971 q 175 993 167 986 q 185 1000 180 997 q 197 1008 190 1004 q 220 1025 216 1019 q 232 1035 225 1031 q 249 1041 239 1038 q 269 1047 259 1044 q 298 1053 286 1050 q 320 1058 309 1055 q 342 1053 331 1054 q 365 1051 354 1053 q 396 1049 376 1050 q 435 1050 416 1048 q 454 1050 444 1050 q 475 1047 464 1050 q 492 1036 486 1039 q 506 1031 499 1034 q 524 1019 511 1027 q 539 1008 534 1012 q 551 1002 544 1005 q 566 990 562 996 q 574 982 570 985 q 596 962 589 971 q 614 949 604 952 q 622 938 617 943 q 629 926 627 933 q 636 916 635 924 q 644 906 637 909 q 649 880 647 892 q 655 853 651 867 q 660 844 658 849 q 665 833 662 840 q 667 827 667 830 q 669 817 667 823 q 671 796 673 803 q 671 783 670 789 q 673 770 671 776 q 674 757 674 764 q 675 711 678 741 q 675 686 675 693 q 669 673 675 678 q 669 653 669 658 q 670 646 670 648 q 667 639 670 643 q 662 631 663 635 q 661 622 661 627 q 659 613 661 617 q 656 604 658 608 q 652 597 654 601 q 639 571 647 581 q 631 562 636 567 q 621 553 625 557 q 635 535 625 541 q 648 518 644 529 q 656 511 651 514 q 667 505 662 509 q 672 495 667 498 q 682 488 677 492 q 689 475 684 479 q 699 464 694 471 q 701 446 701 453 q 720 418 719 427 q 722 395 722 410 q 722 370 722 381 q 720 361 719 363 q 724 355 722 358 q 730 324 730 342 z "},"4":{"ha":795,"x_min":19,"x_max":761,"o":"m 758 354 q 757 339 761 347 q 751 326 753 331 q 753 317 751 321 q 753 307 754 312 q 751 281 753 294 q 750 255 749 267 q 753 241 751 247 q 754 229 755 236 q 749 220 750 222 q 747 216 749 217 q 721 212 731 213 q 704 213 711 212 q 696 215 700 213 q 689 217 693 217 q 676 217 678 216 q 671 218 674 218 q 652 214 661 217 q 632 214 643 212 q 633 184 632 201 q 631 149 633 168 q 627 128 627 134 q 627 118 627 122 q 625 95 624 102 q 625 81 625 88 q 624 72 625 76 q 621 61 623 68 q 621 54 620 58 q 620 46 621 49 q 616 31 618 38 q 613 16 613 23 q 618 -1 613 7 q 621 -19 624 -8 q 610 -31 618 -26 q 590 -36 601 -35 q 569 -33 579 -37 q 553 -22 559 -30 q 529 -26 543 -26 q 500 -24 515 -26 q 475 -23 481 -24 q 460 -15 468 -22 q 453 -7 457 -12 q 452 9 449 -1 q 456 22 456 18 q 456 33 456 27 q 459 47 460 43 q 458 54 458 52 q 462 72 463 66 q 461 80 461 77 q 464 89 463 84 q 467 96 465 94 q 465 106 467 99 q 465 114 464 113 q 466 145 468 130 q 471 164 464 160 q 466 170 467 167 q 466 177 465 174 q 467 184 467 180 q 464 193 468 189 q 473 228 469 220 q 479 251 476 236 q 469 250 473 252 q 458 248 465 248 q 447 250 452 248 q 435 254 442 252 q 419 252 429 254 q 399 250 410 250 q 389 251 393 250 q 381 252 385 252 q 357 252 369 252 q 336 251 346 252 q 321 250 330 251 q 304 254 313 248 q 296 252 301 252 q 289 250 292 251 q 278 252 282 251 q 271 255 274 252 q 254 248 264 252 q 235 250 244 244 q 225 245 228 248 q 217 240 222 243 q 193 239 202 243 q 180 241 184 236 q 159 235 174 235 q 137 229 145 236 q 109 229 122 231 q 96 227 99 227 q 90 227 92 227 q 77 222 80 222 q 71 222 73 222 q 54 218 62 220 q 37 216 46 217 q 24 230 27 227 q 20 236 22 233 q 23 253 19 245 q 30 270 27 260 q 41 281 37 278 q 43 292 45 285 q 51 302 50 294 q 57 316 52 311 q 67 331 64 328 q 72 336 71 334 q 92 362 83 357 q 115 412 99 392 q 140 460 130 433 q 148 465 146 461 q 155 471 149 469 q 164 494 156 483 q 170 507 170 500 q 174 518 171 514 q 180 527 176 522 q 187 534 184 532 q 194 545 193 540 q 201 551 195 551 q 211 572 205 563 q 222 593 217 582 q 229 605 227 598 q 233 617 232 612 q 264 658 252 635 q 272 663 269 661 q 279 669 275 666 q 284 680 278 675 q 293 692 290 685 q 296 699 296 694 q 298 707 296 704 q 309 718 307 718 q 313 722 312 719 q 325 736 319 728 q 338 747 331 745 q 344 764 338 758 q 355 774 350 769 q 362 791 362 785 q 365 800 362 798 q 380 808 376 803 q 391 812 385 814 q 392 821 393 815 q 400 826 391 827 q 401 837 400 831 q 407 842 401 842 l 407 860 q 417 869 410 867 q 430 876 425 872 q 434 884 433 879 q 442 890 435 888 q 444 899 445 897 q 445 906 442 901 q 453 913 449 909 q 458 924 457 917 q 467 934 464 930 q 472 941 469 937 q 480 966 475 954 q 495 985 486 978 q 500 1000 498 997 q 505 1005 503 1002 q 514 1023 511 1017 q 521 1032 517 1029 q 540 1040 532 1034 q 559 1038 548 1047 q 568 1040 566 1036 q 575 1042 570 1043 q 591 1035 585 1039 q 604 1025 597 1031 q 606 1011 605 1019 q 610 996 606 1004 q 614 989 612 993 q 616 981 616 985 q 615 962 617 971 q 613 943 613 954 q 617 922 617 928 q 617 911 617 917 q 618 901 617 906 q 621 890 620 897 q 621 882 618 886 q 623 875 623 878 q 623 866 624 871 q 623 857 621 861 q 629 835 625 846 q 624 810 632 823 q 625 753 631 783 q 618 696 618 724 q 618 667 618 681 q 612 640 618 652 q 614 609 614 620 q 614 586 613 598 q 616 578 614 582 q 616 571 617 574 q 614 563 616 567 q 612 555 612 559 q 615 534 616 540 q 616 525 614 529 q 619 513 617 519 q 621 502 621 507 q 621 473 624 488 q 618 464 620 468 q 616 454 616 460 q 620 433 616 444 q 620 414 624 423 q 625 404 623 408 q 625 389 628 399 q 645 383 633 384 q 669 380 656 382 q 682 376 680 374 q 688 377 685 377 q 699 376 690 377 q 713 373 707 374 q 722 370 718 372 q 731 368 727 369 q 751 361 746 365 q 758 354 757 358 m 486 591 q 483 621 483 606 q 480 644 483 635 q 463 629 471 636 q 449 610 454 621 q 433 592 439 595 q 423 583 426 589 q 416 574 419 579 q 407 567 414 568 q 400 549 407 556 q 389 534 393 543 q 383 517 385 528 q 370 505 381 507 q 351 475 359 487 q 335 453 343 464 q 323 432 331 439 q 310 418 316 425 q 298 406 304 412 q 293 389 293 400 q 311 390 302 387 q 328 396 319 393 q 350 397 339 397 q 372 399 361 396 q 387 401 384 403 q 393 400 391 400 q 406 404 400 401 q 419 407 412 406 q 435 406 430 404 q 442 408 439 408 q 460 406 454 406 q 471 408 465 407 q 472 420 475 416 q 469 431 469 423 q 470 442 467 439 q 473 449 473 445 q 471 463 472 460 q 468 471 469 467 q 471 493 475 480 q 464 515 467 506 q 470 522 471 517 q 472 530 469 528 q 472 538 475 534 q 472 547 469 543 q 480 569 479 557 q 486 591 481 581 z "},"5":{"ha":779,"x_min":35,"x_max":716,"o":"m 716 407 q 711 393 716 400 q 711 378 707 387 q 702 357 704 370 q 693 335 700 343 q 695 328 694 331 q 697 317 696 324 q 696 306 694 309 q 696 300 697 302 q 691 289 694 294 q 685 277 688 283 q 679 258 681 267 q 671 237 677 248 q 661 222 666 231 q 650 208 656 214 q 650 199 647 201 q 654 191 654 197 q 645 181 648 186 q 642 165 642 176 q 616 142 627 156 q 595 115 605 129 q 575 87 585 100 q 553 61 566 73 q 541 57 545 61 q 532 49 537 53 q 524 43 529 46 q 514 38 518 41 q 490 26 499 28 q 472 23 480 24 q 446 15 460 19 q 418 5 433 11 q 394 -1 406 1 q 366 -1 382 -4 q 355 -7 359 -8 q 340 -5 350 -5 q 329 -6 335 -5 q 315 -5 323 -7 q 293 1 300 -1 q 279 4 286 4 q 272 4 277 5 q 262 3 267 3 q 243 7 255 -1 q 224 12 232 15 q 203 22 212 19 q 189 30 195 26 q 181 33 184 31 q 175 37 178 35 q 146 56 160 45 q 122 77 132 66 q 114 79 117 77 q 107 81 111 81 q 97 95 99 92 q 92 102 95 98 q 83 109 85 109 q 80 113 81 110 q 71 123 73 121 q 65 127 68 125 q 62 142 61 138 q 61 149 62 146 q 54 161 56 156 q 49 171 53 167 q 48 179 47 176 q 49 187 49 182 q 44 203 43 201 q 45 206 45 205 q 44 218 43 213 q 45 225 45 222 q 41 255 41 243 q 35 275 42 267 q 45 294 39 281 q 100 299 69 302 q 159 302 130 296 q 170 308 164 305 q 183 311 175 311 q 190 305 190 311 q 194 298 190 300 q 202 283 202 292 q 199 259 202 274 q 197 247 198 252 q 197 235 197 241 q 202 222 198 229 q 209 209 206 216 q 221 184 212 198 q 244 179 236 186 q 263 170 252 172 q 273 157 266 160 q 285 146 281 153 q 319 138 301 142 q 357 133 338 133 q 375 134 366 133 q 392 132 384 136 q 416 140 403 137 q 441 152 429 144 q 454 163 452 159 q 458 170 456 167 q 473 182 468 179 q 480 190 477 186 q 489 201 487 197 q 494 208 491 205 q 500 216 496 212 q 507 227 505 221 q 511 237 510 231 q 514 248 511 243 q 519 256 517 252 q 524 267 521 260 q 524 274 525 270 q 525 282 524 278 q 530 295 528 289 q 534 308 532 301 q 543 339 538 319 q 545 378 547 359 q 541 394 544 387 q 541 411 537 401 q 533 425 537 418 q 529 444 529 431 q 524 453 526 449 q 518 464 521 457 q 504 485 514 475 q 486 507 494 495 q 479 517 483 510 q 471 528 475 524 q 460 532 467 530 q 453 541 453 533 q 444 543 448 540 q 433 548 439 545 q 412 554 422 552 q 387 559 403 556 q 374 561 380 560 q 363 562 368 562 q 350 561 357 559 q 343 555 343 563 q 330 560 340 562 q 316 556 320 559 q 277 551 292 557 q 244 541 263 544 q 237 536 239 540 q 231 530 235 533 q 221 530 224 532 q 213 530 218 528 q 188 507 198 515 q 170 488 178 498 q 163 490 164 491 q 155 488 161 490 q 138 498 142 498 q 129 503 133 499 q 127 515 126 510 q 130 528 129 521 q 152 583 134 562 q 151 599 151 594 q 157 610 152 604 q 155 631 153 625 q 151 639 157 636 q 155 652 155 644 q 160 663 155 661 q 158 673 160 669 q 156 680 156 677 q 159 692 160 690 q 159 696 159 693 q 158 723 157 712 q 161 741 159 734 q 164 754 165 747 q 168 762 163 761 q 165 772 164 766 q 165 784 165 777 q 166 801 165 789 q 170 817 167 812 q 172 827 172 819 q 171 841 171 834 q 172 852 174 849 q 171 859 170 856 q 180 876 174 871 q 177 886 178 880 q 174 898 176 892 q 178 920 175 909 q 182 941 182 930 q 178 960 182 949 q 182 978 175 970 q 176 996 176 983 q 180 1008 180 1004 q 180 1016 179 1013 q 186 1023 183 1020 q 193 1029 190 1027 q 201 1027 198 1029 q 210 1024 205 1025 q 234 1024 224 1023 q 255 1025 244 1025 q 271 1025 267 1024 q 278 1027 274 1027 q 295 1025 290 1027 q 302 1024 300 1024 q 319 1027 316 1028 q 323 1025 321 1027 q 342 1027 335 1028 q 355 1029 349 1025 q 387 1028 369 1031 q 420 1027 406 1025 q 433 1027 427 1028 q 446 1025 439 1025 q 473 1027 458 1027 q 500 1020 487 1027 q 532 1024 515 1023 q 567 1023 548 1025 q 582 1020 574 1023 q 602 1016 600 1015 q 612 1022 608 1020 q 618 1027 616 1024 q 642 1016 633 1024 q 665 1006 650 1008 q 671 1001 669 1001 q 677 991 673 1001 q 679 978 680 982 q 675 963 678 974 q 673 954 674 959 q 671 945 671 949 q 672 935 670 940 q 674 924 674 929 q 675 915 675 920 q 674 906 674 910 q 675 891 674 898 q 675 879 677 884 q 670 868 674 872 q 663 861 666 864 q 655 859 662 860 q 642 857 648 857 q 627 862 633 859 q 613 867 620 865 q 593 866 602 868 q 576 868 585 864 q 570 869 571 871 q 562 868 568 868 q 549 869 555 868 q 536 867 543 871 q 520 871 528 869 q 499 873 513 873 q 490 873 495 873 q 481 872 486 872 q 456 876 468 872 q 429 873 444 880 q 414 878 418 873 q 361 873 387 869 q 305 871 335 878 q 300 814 301 841 q 296 757 298 787 q 296 736 297 742 q 293 724 294 730 q 292 714 293 718 q 290 708 290 711 q 300 705 294 704 q 312 708 307 707 q 328 706 321 708 q 338 709 334 704 q 355 704 347 705 q 371 705 362 703 q 388 708 380 708 q 401 707 393 708 q 416 705 410 707 q 433 700 427 700 q 444 693 439 700 q 480 689 464 694 q 511 677 500 682 q 532 667 521 673 q 545 661 540 663 q 557 655 551 658 q 575 646 567 651 q 594 635 583 642 q 612 619 604 628 q 629 600 620 610 q 642 585 636 593 q 656 572 648 578 q 671 552 659 557 q 688 513 680 533 q 704 472 696 492 q 704 463 705 467 q 701 454 703 458 q 711 432 705 444 q 716 407 716 420 z "},"6":{"ha":671,"x_min":28,"x_max":643,"o":"m 358 621 q 380 627 369 623 q 406 628 391 631 q 414 626 408 628 q 427 621 420 624 q 450 616 439 618 q 472 610 460 613 q 483 606 481 605 q 490 604 484 606 q 506 593 500 600 q 518 576 511 586 q 526 567 522 571 q 530 556 530 563 q 545 537 541 549 q 554 528 549 532 q 560 518 559 525 q 572 505 564 511 q 583 487 579 498 q 587 474 586 476 q 590 469 589 472 q 602 439 595 456 q 616 408 609 423 q 622 395 620 401 q 627 384 624 389 q 637 360 633 369 q 643 332 642 351 q 642 312 643 321 q 640 292 640 302 q 641 275 639 283 q 642 258 643 267 q 620 216 637 231 l 620 198 q 614 190 616 195 q 605 187 613 184 q 604 173 606 180 q 601 159 602 165 q 597 148 600 155 q 591 137 594 141 q 588 130 589 136 q 585 121 587 125 q 570 98 578 110 q 555 73 562 87 q 541 61 545 66 q 532 57 537 56 q 519 47 528 53 q 505 40 509 41 q 500 38 502 39 q 493 31 498 35 q 486 23 488 26 q 475 20 480 20 q 465 18 471 20 q 450 7 458 15 q 430 -3 434 3 q 419 -12 426 -8 q 401 -18 412 -16 q 378 -20 391 -20 q 352 -19 365 -20 q 331 -15 339 -18 q 315 -9 320 -9 q 305 -8 309 -9 q 294 -2 298 -4 q 288 4 289 0 q 270 8 277 9 q 259 8 263 7 q 245 28 255 19 q 220 33 235 37 q 206 40 209 37 q 197 42 203 43 q 191 48 194 46 q 186 56 189 50 q 172 62 175 61 q 167 64 170 62 q 159 71 163 66 q 149 73 156 76 q 145 81 151 80 q 141 88 140 81 q 134 90 137 88 q 126 92 132 92 q 118 106 123 100 q 107 118 113 111 q 97 130 102 123 q 83 137 92 136 q 73 152 80 148 q 65 176 71 168 q 57 193 60 183 q 60 216 56 201 q 50 231 57 228 q 47 241 42 235 q 34 253 37 248 q 30 263 31 258 q 31 271 30 267 q 33 278 33 274 q 30 293 28 290 q 31 298 31 296 q 33 329 30 316 q 37 354 35 342 l 37 374 q 42 395 38 385 q 49 414 46 404 q 50 436 47 430 q 54 449 53 442 q 54 464 52 457 q 57 476 56 471 q 80 521 61 507 q 85 542 80 533 q 96 557 90 551 q 98 572 98 563 q 106 587 104 576 q 118 602 107 598 q 123 627 121 620 q 129 639 126 633 q 135 650 132 644 q 141 661 138 655 q 149 671 145 667 q 156 681 153 675 q 163 696 161 693 q 167 703 165 700 q 172 715 170 708 q 176 728 174 722 q 187 750 183 739 q 194 760 190 755 q 201 769 198 764 q 210 785 208 777 q 218 800 213 793 q 226 811 225 807 q 228 818 227 815 q 234 829 229 822 q 237 844 239 836 q 245 859 244 853 q 248 867 247 864 q 267 892 259 879 q 283 914 274 905 q 297 932 290 928 q 308 944 304 937 q 317 952 313 951 q 321 956 320 954 q 328 966 326 963 q 332 974 330 970 q 340 981 339 979 q 346 986 342 983 q 353 1000 350 989 q 364 1009 359 1004 q 374 1021 369 1015 q 384 1031 381 1031 q 388 1032 387 1032 q 393 1042 392 1039 q 395 1046 393 1044 q 405 1053 403 1053 q 408 1057 407 1054 q 423 1059 418 1059 q 435 1055 429 1058 q 446 1055 441 1054 q 454 1053 450 1055 q 466 1046 461 1050 q 476 1039 471 1042 q 493 1036 484 1036 q 510 1034 502 1036 q 542 1017 528 1025 q 568 1001 556 1008 q 571 989 570 994 q 572 979 572 985 q 567 969 571 974 q 559 958 563 964 q 546 937 548 943 q 538 926 544 932 q 532 918 536 924 q 528 905 528 911 q 515 888 517 901 q 503 871 513 875 q 495 844 498 853 q 486 833 492 836 q 477 817 484 822 q 472 800 471 812 q 465 795 468 798 q 458 791 463 792 q 458 782 460 785 q 456 774 456 779 q 446 760 446 765 q 442 753 445 755 q 432 742 433 745 q 430 738 431 739 q 423 729 423 734 q 420 719 423 724 q 409 707 412 709 q 403 703 406 704 q 397 687 400 693 q 391 674 393 681 q 383 660 387 663 q 377 651 380 656 q 371 644 373 646 q 368 640 369 642 q 365 639 366 639 q 359 626 362 628 q 358 621 357 624 m 304 433 q 296 432 300 431 q 289 431 292 433 q 282 426 286 430 q 275 420 278 422 q 265 413 269 418 q 258 406 262 408 q 250 395 254 400 q 243 387 245 391 q 234 374 239 380 q 227 363 229 368 q 223 348 224 355 q 216 335 222 340 q 216 326 218 331 q 214 313 214 320 q 216 302 214 308 q 218 290 218 296 q 218 274 217 278 q 220 267 220 270 q 220 258 221 263 q 220 251 218 254 q 227 241 222 245 q 233 231 231 237 q 241 207 239 218 q 251 190 244 195 q 266 183 263 186 q 274 179 269 180 q 307 179 285 176 q 339 182 330 182 q 354 183 350 184 q 361 183 358 182 q 368 189 365 186 q 374 194 372 191 q 387 199 385 197 q 392 203 389 201 q 408 218 400 210 q 420 232 416 225 q 425 241 425 236 q 426 250 425 245 q 431 269 430 262 q 433 283 431 277 q 437 302 437 292 q 435 323 437 309 q 430 343 433 338 q 421 353 427 350 q 410 361 415 355 q 400 380 403 369 q 370 405 381 389 q 349 438 359 420 q 304 433 323 439 z "},"7":{"ha":669,"x_min":35,"x_max":690,"o":"m 689 998 q 685 988 689 991 q 678 979 681 985 q 669 959 671 962 q 655 939 662 948 q 647 918 648 930 q 637 909 640 916 q 631 898 635 903 q 613 876 616 878 q 608 860 614 867 q 598 846 601 853 q 593 834 595 836 q 591 831 591 833 q 576 807 583 818 q 566 783 568 796 q 543 743 551 765 q 519 707 534 722 q 517 695 517 700 q 514 685 517 690 q 507 671 507 674 q 506 667 506 669 q 501 658 503 662 q 496 651 499 654 q 492 642 494 647 q 488 633 491 637 q 484 626 486 629 q 479 618 481 623 q 474 604 476 608 q 472 600 472 601 q 469 589 469 594 q 467 579 469 585 q 459 563 464 571 q 453 544 454 555 q 448 538 450 541 q 442 530 445 534 q 441 522 444 524 q 439 514 438 521 q 422 480 429 499 q 408 442 415 461 q 397 429 399 439 q 392 408 396 419 q 383 388 389 399 q 370 366 377 377 q 359 343 363 351 q 351 327 354 335 q 345 311 349 317 q 338 296 342 304 q 328 274 332 285 q 320 251 324 263 q 314 238 316 240 q 311 233 312 236 q 305 216 307 222 q 302 205 304 210 q 281 163 292 180 q 274 149 275 152 q 270 144 273 146 q 267 129 267 133 q 264 122 266 125 q 254 109 255 113 q 250 100 252 104 q 243 88 247 95 q 240 73 240 81 q 231 53 233 60 q 225 41 228 46 q 218 28 218 33 q 216 20 217 23 q 208 -1 212 9 q 198 -20 205 -11 q 199 -36 198 -30 q 199 -50 201 -42 q 193 -58 195 -53 q 186 -64 190 -62 q 162 -60 174 -66 q 141 -50 151 -53 q 126 -43 134 -47 q 111 -34 118 -38 q 91 -20 99 -23 q 80 -14 83 -18 q 71 -8 77 -9 q 64 -3 65 -7 q 66 5 68 0 q 65 12 64 9 q 68 23 65 18 q 73 35 71 28 q 78 47 76 42 q 83 57 80 53 q 94 68 90 64 q 102 76 99 72 q 104 87 102 83 q 104 98 107 91 q 113 117 113 103 q 121 132 119 122 q 127 149 123 141 q 132 156 130 152 q 137 165 134 160 q 146 182 142 178 q 151 190 149 187 q 153 203 153 197 q 155 216 152 209 q 171 228 160 222 q 172 239 170 236 q 179 245 175 243 q 182 263 178 254 q 189 283 186 273 q 197 304 191 294 q 206 326 203 315 q 211 333 206 332 q 218 336 216 334 q 218 357 214 346 q 231 386 225 370 q 244 414 236 401 q 245 431 245 422 q 248 446 245 439 q 260 462 259 457 q 263 469 262 467 q 271 483 266 475 q 280 516 277 505 q 289 534 283 528 q 305 579 293 563 q 311 602 307 591 q 321 624 315 613 q 327 636 324 635 q 330 639 330 637 q 336 654 332 648 q 347 671 343 665 q 357 681 351 678 q 373 712 363 703 q 380 735 374 726 q 391 753 385 745 q 402 772 397 762 q 410 795 407 781 q 424 815 419 802 q 435 844 429 829 q 441 849 437 845 q 441 859 446 853 q 432 859 434 863 q 426 852 430 854 q 418 853 422 856 q 411 850 414 850 q 397 852 404 852 q 393 850 395 852 q 385 852 389 853 q 377 852 381 852 q 361 848 366 848 q 354 848 357 848 q 345 844 349 846 q 335 841 340 842 q 318 840 327 838 q 302 838 309 841 q 274 835 288 837 q 245 833 260 833 q 218 833 228 836 q 199 834 208 831 q 186 828 193 830 q 170 823 180 826 q 154 820 159 819 q 146 819 149 821 q 135 817 140 819 q 125 814 130 815 q 105 811 115 811 q 88 808 95 811 q 77 802 81 806 q 66 795 73 798 q 57 799 62 798 q 46 802 52 800 q 43 823 43 811 q 43 849 42 836 q 45 865 43 857 q 46 880 46 873 q 44 901 43 895 q 45 910 45 907 q 44 918 43 913 q 45 929 45 924 q 45 951 43 944 q 43 968 46 959 q 38 979 38 975 q 35 983 38 983 q 37 997 37 990 q 41 1010 38 1004 q 66 1020 54 1020 q 76 1017 72 1019 q 84 1015 80 1015 q 101 1015 92 1015 q 117 1016 110 1016 q 130 1014 123 1016 q 142 1012 136 1012 q 161 1012 156 1009 q 168 1015 165 1015 q 188 1016 178 1017 q 209 1015 198 1015 q 227 1017 217 1020 q 252 1016 237 1015 q 262 1017 258 1016 q 271 1020 266 1019 q 285 1020 281 1017 q 289 1021 288 1020 q 302 1020 300 1019 q 308 1021 305 1021 q 328 1020 319 1021 q 347 1017 338 1019 q 366 1019 357 1017 q 385 1021 374 1021 q 405 1020 396 1021 q 425 1019 414 1019 q 434 1019 429 1019 q 444 1020 439 1020 q 474 1020 458 1021 q 505 1023 490 1019 q 515 1021 510 1021 q 524 1019 519 1021 q 536 1021 534 1021 q 541 1020 538 1020 q 569 1023 553 1021 q 600 1025 585 1025 q 618 1024 610 1025 q 633 1027 627 1023 q 642 1025 636 1024 q 650 1023 648 1025 q 669 1024 658 1028 q 688 1015 681 1020 q 688 1006 685 1009 q 689 998 690 1002 z "},"8":{"ha":798,"x_min":68,"x_max":738,"o":"m 735 259 q 732 246 731 250 q 732 240 734 243 q 728 227 728 231 q 728 221 728 224 q 714 197 718 208 q 711 176 711 187 q 703 166 707 171 q 699 152 699 161 q 686 137 690 145 q 677 121 681 129 q 672 111 674 115 q 667 103 670 107 q 659 92 662 96 q 650 80 655 88 q 639 64 642 69 q 633 57 636 60 q 627 50 631 54 q 621 43 624 46 q 612 35 616 38 q 604 27 609 33 q 589 20 594 24 q 578 19 583 16 q 558 9 568 14 q 536 0 548 4 q 521 -5 525 -3 q 514 -9 517 -8 q 465 -20 490 -15 q 419 -23 441 -26 q 403 -20 411 -23 q 387 -20 395 -18 q 357 -24 372 -22 q 328 -23 343 -26 q 308 -20 313 -19 q 300 -20 302 -22 q 282 -16 288 -16 q 274 -16 277 -16 q 256 -10 266 -14 q 236 -4 247 -7 q 227 1 229 -3 q 221 7 225 4 q 205 12 213 8 q 191 19 198 15 q 180 26 186 22 q 170 34 174 31 q 147 51 155 43 q 134 65 140 58 q 124 76 129 71 q 117 88 119 81 q 100 119 104 106 q 88 140 96 133 q 86 155 91 151 q 80 165 81 159 q 79 179 80 176 q 76 184 77 182 q 75 203 79 195 q 71 221 72 212 q 71 275 68 248 q 71 326 73 302 q 76 336 75 330 q 81 347 77 343 q 82 361 79 354 q 91 373 85 368 q 96 408 91 393 q 107 435 100 423 q 122 459 114 448 q 134 486 130 471 q 144 495 141 488 q 152 507 148 502 q 161 514 156 511 q 170 522 165 517 q 178 531 175 526 q 183 538 180 536 q 148 566 164 552 q 117 598 132 581 q 106 616 110 613 q 100 623 102 620 q 95 637 96 629 q 88 652 94 646 q 87 665 85 659 q 88 677 88 670 q 83 695 85 686 q 79 712 80 704 q 80 724 79 718 q 81 736 81 730 q 80 750 81 743 q 80 764 79 757 q 83 774 81 769 q 88 787 85 780 q 91 798 91 792 q 94 808 91 803 q 98 823 98 819 q 100 830 99 827 q 107 842 104 840 q 111 846 110 844 q 114 857 114 852 q 117 868 114 863 q 122 876 122 872 q 123 886 122 879 q 134 903 133 892 q 141 924 136 913 q 156 944 148 935 q 175 963 164 954 q 187 972 180 968 q 205 981 194 975 q 214 985 210 985 q 220 991 218 986 q 243 1000 232 996 q 262 1001 255 1004 q 275 1009 273 1008 q 281 1012 278 1010 q 292 1017 288 1017 q 298 1017 296 1016 q 315 1023 311 1023 q 321 1023 320 1023 q 347 1028 336 1028 q 363 1035 357 1028 q 414 1040 393 1040 q 456 1035 435 1040 q 473 1030 469 1032 q 477 1028 476 1028 q 486 1029 483 1027 q 496 1028 490 1031 q 518 1015 510 1023 q 535 999 528 1006 q 548 986 543 991 q 558 985 556 985 q 567 986 560 985 q 580 979 574 983 q 593 970 586 974 q 608 963 600 966 q 618 952 616 960 q 630 952 625 958 q 637 945 635 947 q 646 941 644 944 q 651 936 648 939 q 662 930 659 932 q 667 925 665 928 q 675 919 673 920 q 680 911 677 918 q 690 893 684 905 q 692 871 696 882 q 701 863 696 865 q 709 853 707 860 q 711 833 707 841 q 715 817 715 825 q 714 806 716 811 q 712 795 712 800 q 713 781 712 788 q 716 766 715 773 q 709 751 716 758 q 716 735 715 745 q 718 718 718 726 q 715 710 718 713 q 713 703 713 707 q 705 669 709 682 q 699 644 700 655 q 692 638 694 642 q 685 633 690 635 q 684 625 684 629 q 678 618 684 621 q 677 612 674 616 q 678 602 680 609 q 659 582 667 591 q 640 563 651 572 q 633 557 637 560 q 625 551 628 555 q 614 535 617 541 q 604 525 610 529 q 624 506 616 511 q 639 496 632 500 q 661 468 646 476 q 664 461 661 464 q 670 454 667 458 q 673 447 673 452 q 677 439 674 442 q 682 433 680 437 q 688 427 685 430 q 701 400 694 416 q 712 373 707 384 q 718 360 715 366 q 719 343 722 354 q 732 303 727 323 q 735 259 738 283 m 540 777 q 535 802 540 788 q 528 821 530 817 q 521 832 524 827 q 515 842 518 837 q 498 842 505 840 q 487 850 491 845 q 481 862 483 856 q 475 873 479 868 q 442 881 457 878 q 410 882 427 884 q 386 874 399 879 q 358 871 373 869 q 346 865 353 865 q 332 861 339 864 q 318 854 326 859 q 301 850 311 850 q 298 842 302 844 q 290 834 293 840 q 285 826 288 830 q 279 817 282 822 q 271 807 273 810 q 267 802 270 804 q 260 789 264 791 q 255 785 256 788 q 252 764 256 774 q 248 746 248 753 q 247 732 248 736 q 245 724 245 728 q 245 700 244 712 q 244 675 247 688 q 248 667 248 673 q 251 658 248 662 q 279 625 259 635 q 300 618 289 620 q 327 614 312 617 q 357 611 345 612 q 385 612 370 610 q 406 610 396 612 q 422 610 415 609 q 439 616 433 617 q 448 621 445 616 q 460 628 454 625 q 469 633 467 631 q 484 651 477 643 q 498 670 490 659 q 510 688 505 680 q 521 707 515 696 q 526 718 524 712 q 530 730 528 723 q 534 747 533 743 q 537 753 536 750 q 538 764 538 758 q 537 770 537 769 l 540 777 m 553 258 q 551 283 555 269 q 547 311 548 297 q 525 370 536 338 q 510 389 513 374 q 496 395 500 391 q 480 403 491 400 q 465 423 473 414 q 441 438 456 433 q 439 453 444 449 q 430 463 435 457 q 380 450 401 460 q 335 433 359 439 q 319 420 330 423 q 298 408 308 416 q 285 394 289 397 q 278 388 281 391 q 272 373 274 376 q 270 369 270 370 q 264 359 266 363 q 259 350 262 354 q 250 332 251 339 q 247 321 250 326 q 243 313 245 316 q 240 307 241 309 q 237 278 236 285 q 240 263 237 271 q 242 243 241 252 q 243 224 243 233 q 244 217 244 221 q 245 209 244 213 q 258 184 250 194 q 274 161 267 175 q 285 144 281 156 q 294 138 292 142 q 301 130 297 133 q 311 124 305 126 q 323 117 317 122 q 349 114 336 117 q 373 114 362 111 q 397 119 389 117 q 411 122 404 121 q 427 120 420 121 q 439 121 433 119 q 466 135 454 125 q 494 148 477 145 q 503 157 496 155 q 515 167 510 160 q 522 178 518 171 q 529 191 525 184 q 540 206 536 202 q 545 213 544 210 q 553 238 552 227 q 553 258 553 250 z "},"9":{"ha":754,"x_min":56,"x_max":707,"o":"m 705 730 q 706 713 705 722 q 705 697 707 704 q 703 688 704 693 q 699 680 703 682 q 701 671 701 674 q 703 663 700 669 q 701 641 699 652 q 699 621 703 629 q 698 613 696 617 q 699 602 700 609 q 696 595 697 600 q 694 587 696 590 q 684 551 685 566 q 677 525 682 537 q 671 510 673 514 q 662 502 669 506 q 661 490 663 495 q 658 479 659 484 q 639 435 651 454 q 632 423 636 429 q 625 412 628 418 q 611 391 618 401 q 600 365 604 380 q 589 355 591 362 q 581 342 586 349 q 570 328 572 332 q 566 316 568 323 q 559 307 560 312 q 556 300 559 302 q 546 289 547 292 q 544 285 545 286 q 538 279 541 282 q 532 271 534 275 q 524 258 528 260 q 518 252 521 255 q 505 237 509 241 q 496 229 502 232 q 490 218 495 222 q 481 208 486 213 q 471 194 475 198 q 465 187 468 190 q 456 174 460 180 q 445 161 452 168 q 437 152 438 155 q 437 148 437 149 q 429 141 433 144 q 423 136 426 138 q 420 128 420 133 q 416 121 419 123 q 409 115 414 118 q 401 109 404 111 q 395 100 397 104 q 388 95 393 96 q 386 85 388 90 q 381 77 384 81 q 373 64 376 69 q 363 53 370 60 q 351 36 355 42 q 350 23 347 30 q 334 15 342 19 q 321 4 327 11 q 312 -7 315 -1 q 304 -18 309 -12 q 278 -12 289 -22 q 256 -12 267 -12 q 239 -5 245 -11 q 215 3 224 1 q 199 9 206 5 q 191 14 197 11 q 183 20 186 18 q 181 28 180 24 q 179 37 182 33 q 194 58 190 50 q 206 72 198 65 q 218 90 213 81 q 228 110 224 99 q 238 118 235 113 q 244 129 241 123 q 263 161 255 149 q 278 184 271 174 q 287 201 282 193 q 298 216 292 209 q 301 233 297 227 q 309 247 305 240 q 327 275 323 264 q 340 290 331 286 q 344 309 345 301 q 350 315 343 317 q 363 347 351 336 q 378 378 374 358 q 349 380 363 382 q 320 377 334 377 q 294 380 305 377 q 271 385 282 382 q 263 389 264 385 q 255 393 262 393 q 245 396 251 396 q 237 399 240 396 q 203 417 221 410 q 174 438 186 425 q 161 450 167 449 q 153 454 156 452 q 125 494 141 469 q 117 505 118 502 q 114 509 115 507 q 99 532 107 518 q 85 566 92 548 q 73 604 79 585 q 69 622 71 617 q 68 629 68 627 q 66 642 65 636 q 65 655 66 648 q 59 677 62 667 q 56 703 56 688 q 59 720 60 709 q 58 736 58 731 q 61 745 60 741 q 64 754 62 750 q 64 772 61 761 q 71 788 66 784 l 71 803 q 77 815 77 808 q 79 830 76 822 q 88 846 81 837 q 102 867 95 856 q 115 890 109 879 q 121 897 118 892 q 127 903 125 901 q 132 913 130 911 q 136 917 134 914 q 140 924 138 920 q 146 932 142 928 q 153 937 149 935 q 156 944 157 939 q 168 953 164 945 q 178 964 172 960 q 192 973 184 970 q 203 985 199 977 q 218 988 213 983 q 228 997 222 993 q 248 1001 239 996 q 269 1009 258 1006 q 283 1012 275 1012 q 297 1015 290 1012 q 315 1021 307 1017 q 334 1021 324 1025 q 357 1030 345 1027 q 381 1029 369 1034 q 404 1034 392 1039 q 423 1023 416 1029 q 460 1013 442 1017 q 495 1002 479 1009 q 501 997 500 1001 q 506 990 502 993 q 547 969 529 979 q 579 947 564 959 q 591 939 587 939 q 595 937 595 939 q 604 927 598 930 q 614 921 610 924 q 637 892 625 907 q 659 860 648 876 q 674 836 667 849 q 688 807 681 822 q 692 800 690 803 q 696 792 694 796 q 699 772 696 780 q 703 762 701 765 q 705 747 704 755 q 705 730 705 739 m 519 708 q 515 728 519 722 q 507 742 511 734 q 483 796 494 781 q 467 812 473 807 q 457 822 461 817 q 449 832 450 829 q 446 837 448 836 q 439 850 439 848 q 437 859 439 853 q 412 864 423 861 q 391 865 401 867 q 366 859 374 864 q 350 857 357 854 q 342 852 347 853 q 331 849 338 850 q 321 841 327 845 q 309 836 316 837 q 289 821 300 823 q 280 808 286 814 q 271 799 274 802 q 264 789 267 792 q 259 784 262 787 q 244 757 250 766 q 236 739 239 747 q 232 725 231 728 q 233 724 233 722 q 231 713 232 718 q 228 705 229 709 q 231 684 228 697 q 229 673 231 681 q 229 658 228 665 q 233 644 231 651 q 237 633 236 637 q 244 616 241 621 q 247 606 247 610 q 250 600 247 602 q 256 591 255 593 q 264 586 258 590 q 277 578 274 579 q 282 576 279 578 q 298 566 293 570 q 309 560 304 563 q 321 555 315 557 q 331 552 327 553 q 338 551 334 551 q 346 551 343 552 q 366 548 358 547 q 382 545 374 549 q 393 551 388 551 q 401 552 397 551 q 416 555 410 555 q 430 556 423 555 q 445 559 439 557 q 454 564 450 562 q 471 582 468 572 q 486 594 473 591 q 489 608 484 601 q 495 617 494 614 q 500 629 499 624 q 505 639 502 633 q 509 650 507 647 q 511 654 511 652 q 513 668 514 661 q 514 682 513 675 q 517 695 515 689 q 519 708 519 701 z "},"Ð":{"ha":1058,"x_min":27,"x_max":1012,"o":"m 1009 582 q 1007 570 1009 578 q 1004 556 1005 563 q 1005 544 1004 549 q 1006 533 1006 538 l 1002 505 q 1002 481 1002 494 q 1000 456 1002 469 q 993 435 998 449 q 988 421 990 425 q 986 415 986 418 q 985 399 983 407 q 983 384 986 391 q 979 376 981 380 q 974 368 977 373 q 972 340 971 353 q 968 312 972 327 q 961 296 966 304 q 959 275 956 289 q 943 246 949 260 q 930 217 937 232 q 925 211 928 214 q 921 205 922 208 q 912 182 916 194 q 905 157 909 171 q 897 147 903 153 q 887 137 891 141 q 876 123 882 130 q 863 109 869 117 q 854 98 857 100 q 852 94 852 96 q 827 80 837 91 q 806 61 817 69 q 795 52 796 56 q 792 47 795 49 q 779 41 781 43 q 776 37 777 38 q 754 28 761 34 q 739 19 747 22 q 720 16 726 18 q 712 11 715 14 q 696 0 705 4 q 674 -5 686 -4 q 655 -15 662 -7 q 617 -20 632 -14 q 582 -30 602 -26 q 561 -37 568 -37 q 547 -39 553 -37 q 528 -37 536 -37 q 514 -30 519 -37 q 501 -34 509 -37 q 484 -31 494 -31 q 466 -33 475 -31 q 448 -35 457 -35 q 427 -34 437 -35 q 407 -33 418 -33 q 379 -33 389 -34 q 362 -35 369 -31 q 326 -34 343 -38 q 297 -30 308 -30 q 288 -23 290 -27 q 278 -18 285 -19 q 258 -20 267 -20 q 241 -17 250 -19 q 224 -12 233 -15 q 206 -9 216 -9 q 199 14 197 1 q 193 38 201 27 q 195 47 195 42 q 195 56 195 52 l 195 72 q 196 91 195 81 q 197 110 197 100 q 194 131 195 119 q 198 155 193 142 q 195 163 197 160 q 191 171 193 167 q 193 197 193 184 q 190 229 193 210 q 188 237 190 233 q 186 244 186 240 q 187 252 186 248 q 189 259 189 256 q 187 272 189 266 q 187 289 186 278 q 188 301 190 297 q 186 307 186 305 q 184 330 183 320 q 179 347 186 339 q 186 385 186 365 q 183 423 186 404 q 166 429 174 426 q 149 431 159 431 q 139 428 142 430 q 130 425 136 426 q 113 423 117 425 q 106 420 109 422 q 67 413 83 415 q 34 418 52 411 q 27 444 27 429 q 35 469 27 460 q 35 490 33 480 q 41 510 38 500 q 36 519 41 517 q 33 530 31 522 q 39 539 35 536 q 46 547 43 543 q 81 549 64 545 q 113 553 98 553 q 122 551 118 553 q 130 553 126 549 q 138 548 137 553 q 144 541 138 543 q 146 549 149 544 q 149 557 142 555 q 176 553 161 557 q 199 553 190 548 q 206 559 205 556 q 212 564 208 562 q 212 589 213 578 q 217 612 210 601 q 214 621 216 617 q 213 632 213 625 q 218 647 214 639 q 222 665 221 655 q 224 690 225 678 q 220 712 222 701 q 223 725 222 718 q 225 742 224 732 q 222 769 225 754 q 228 795 220 784 q 226 803 228 800 q 221 808 224 806 q 223 831 224 818 q 229 856 222 845 q 226 871 227 863 q 229 886 225 880 q 224 901 227 892 q 222 918 222 909 q 223 930 221 925 q 225 940 225 935 q 218 952 222 948 q 212 963 214 956 q 214 982 214 974 q 221 997 214 990 q 241 1001 232 998 q 259 1006 250 1004 q 279 1005 274 1004 q 289 1006 285 1006 q 300 1004 294 1005 q 311 1004 305 1002 q 325 1006 319 1004 q 338 1012 331 1009 q 353 1015 346 1015 q 366 1019 359 1016 q 387 1013 376 1012 q 410 1016 397 1015 q 425 1014 418 1016 q 442 1012 433 1012 q 494 1015 468 1010 q 541 1017 519 1019 q 557 1015 549 1017 q 588 1006 572 1006 q 618 1008 604 1006 q 646 1008 633 1009 q 670 1000 659 1008 q 680 1001 677 998 q 689 1001 682 1004 q 705 993 703 998 q 713 994 708 996 q 724 991 718 991 q 731 985 728 989 q 736 977 734 981 q 747 972 742 974 q 754 966 753 971 q 787 950 770 959 q 811 925 804 941 q 820 920 817 922 q 829 914 823 917 q 836 907 833 911 q 845 901 840 903 q 860 889 856 894 q 868 882 864 884 q 884 867 879 873 q 892 854 890 860 q 905 846 901 852 q 917 837 910 841 q 921 829 920 834 q 925 822 922 825 q 931 817 926 818 q 939 812 936 817 q 951 795 944 803 q 963 779 958 788 q 966 771 964 774 q 967 762 967 768 q 973 753 970 758 q 979 745 977 749 q 994 730 994 731 q 996 713 997 723 q 998 697 996 704 q 1004 688 1001 690 q 1009 680 1006 685 q 1008 671 1012 675 q 1004 663 1005 667 q 1005 655 1004 659 q 1006 647 1006 651 q 1006 628 1004 633 q 1008 618 1008 623 q 1006 608 1008 613 q 1005 598 1005 604 q 1007 590 1005 594 q 1009 582 1009 586 m 817 498 q 816 513 818 505 q 814 530 814 522 q 814 548 815 544 q 812 553 812 552 q 812 566 814 560 q 810 574 810 571 q 811 586 812 581 q 808 595 810 591 q 804 627 806 614 q 800 647 803 639 q 798 661 799 656 q 795 671 798 665 q 790 684 791 681 q 784 693 789 686 q 765 716 773 709 q 755 734 757 723 q 741 743 746 736 q 734 757 736 749 q 721 762 724 757 q 713 772 718 768 q 693 786 701 777 q 678 806 685 795 q 661 807 667 804 q 650 814 652 810 q 646 819 647 818 q 631 825 635 822 q 624 830 628 829 q 610 832 618 833 q 595 833 602 831 q 581 838 590 834 q 567 842 572 842 q 547 852 559 849 q 522 859 534 856 q 513 857 518 859 q 500 856 507 856 q 463 852 480 853 q 433 849 446 852 q 411 846 420 846 q 395 844 401 846 q 372 837 384 840 q 351 830 361 834 q 350 783 350 804 q 343 745 350 762 q 347 720 349 734 q 347 693 345 707 q 347 655 350 674 q 345 620 343 636 q 348 608 346 613 q 351 597 350 604 q 350 587 351 594 q 351 576 349 579 q 359 573 354 574 q 368 570 365 572 q 385 577 376 576 q 403 578 393 578 q 417 576 410 578 q 431 575 425 575 q 446 578 444 576 q 452 579 449 579 q 464 578 461 576 q 469 579 467 579 q 486 575 481 575 q 496 574 491 575 q 504 566 499 568 q 511 559 509 564 q 521 520 526 540 q 513 481 515 500 q 513 473 511 476 q 514 465 515 469 q 513 451 511 454 q 515 444 515 448 q 506 429 510 437 q 490 420 502 422 q 471 425 476 422 q 460 429 465 429 q 452 427 456 429 q 444 425 448 425 q 420 425 431 423 q 397 426 408 427 q 391 432 392 426 q 384 435 391 438 q 376 427 380 431 q 365 422 372 422 q 351 421 358 422 q 340 418 345 420 q 338 386 334 401 q 342 355 342 370 q 340 345 342 350 q 336 335 338 340 q 336 316 335 326 q 336 297 338 307 q 330 271 334 283 q 326 243 327 258 q 327 227 328 232 q 326 220 326 222 q 328 210 326 214 q 330 201 330 206 q 328 183 330 191 q 327 168 326 175 q 332 140 332 149 q 334 121 331 130 q 348 113 340 115 q 362 106 355 111 q 385 109 373 109 q 407 107 396 110 q 419 100 414 104 q 431 96 425 96 q 441 98 437 96 q 448 100 445 99 q 458 100 454 102 q 464 102 461 99 q 487 104 477 99 q 506 103 496 109 q 512 109 509 106 q 522 110 515 111 q 533 119 526 115 q 552 122 540 123 q 572 133 563 127 q 595 138 581 138 q 604 144 598 142 q 613 151 610 145 q 633 155 625 151 q 651 163 640 160 q 659 174 654 170 q 671 184 665 179 q 688 197 684 194 q 696 201 692 201 q 705 219 697 214 q 719 231 712 224 q 724 241 720 237 q 727 255 728 245 q 734 261 732 256 q 743 266 736 266 q 747 275 742 273 q 754 281 751 278 q 758 294 757 288 q 761 305 758 300 q 767 311 764 308 q 773 316 770 313 q 783 334 781 328 q 785 342 784 339 q 790 357 788 351 q 795 372 792 363 q 801 380 796 378 q 806 388 806 381 q 803 400 804 393 q 802 410 802 407 q 806 419 803 415 q 810 427 808 423 q 808 437 810 431 q 807 446 807 442 q 808 460 807 453 q 810 475 808 468 q 814 486 811 480 q 817 498 817 491 z "},"ð":{"ha":758,"x_min":54,"x_max":718,"o":"m 716 323 q 715 309 718 316 q 713 296 713 301 q 713 286 715 289 q 711 281 712 283 q 709 263 709 273 q 707 245 709 254 q 702 235 704 240 q 699 227 700 231 q 699 217 699 221 q 699 209 700 213 q 694 196 697 202 q 688 184 690 190 q 682 172 685 178 q 674 163 680 167 q 667 138 674 146 q 659 117 661 130 q 645 100 651 110 q 631 84 639 91 q 610 58 620 68 q 589 42 600 49 q 585 35 587 38 q 582 26 583 31 q 566 16 571 18 q 560 11 562 14 q 538 3 549 5 q 515 -4 526 0 q 498 -11 506 -7 q 477 -18 490 -15 q 447 -27 457 -23 q 420 -31 437 -31 q 393 -33 403 -31 q 372 -33 382 -35 q 364 -28 365 -33 q 358 -22 363 -23 q 340 -20 350 -20 q 324 -19 331 -19 q 303 -16 313 -18 q 286 -12 293 -15 q 279 -4 282 -9 q 267 0 277 1 q 249 14 254 11 q 239 19 244 18 q 224 33 228 30 q 213 37 220 37 q 203 43 210 42 q 190 47 197 45 q 184 56 187 52 q 175 58 182 60 q 168 71 174 66 q 159 81 163 75 q 149 91 152 84 q 138 100 146 98 q 133 118 136 110 q 130 134 130 126 q 114 160 125 146 q 113 168 115 167 q 114 175 111 170 q 104 201 106 195 q 98 220 102 214 q 90 233 95 228 q 88 244 84 237 q 80 253 84 248 q 73 264 76 258 q 71 286 71 274 q 68 309 71 298 q 64 323 66 315 q 62 338 62 331 q 61 357 64 347 q 60 380 58 366 q 57 393 57 387 q 57 403 57 400 q 57 416 56 414 q 58 420 58 419 q 56 436 58 427 q 57 454 54 445 q 60 465 58 458 q 68 473 62 471 q 66 488 64 477 q 79 532 73 515 q 88 559 85 548 q 92 566 88 566 q 98 572 95 567 q 104 599 98 589 q 113 625 110 609 q 121 631 118 628 q 130 635 123 635 q 147 658 140 646 q 170 674 155 670 q 192 696 183 689 q 210 709 201 703 q 227 714 221 709 q 240 724 233 719 q 248 722 247 726 q 256 720 250 719 q 269 727 263 724 q 279 735 275 730 q 295 740 288 735 q 309 747 302 745 q 317 749 312 750 q 326 750 321 749 q 338 755 332 753 q 350 760 343 758 q 363 760 357 761 q 381 760 370 758 q 380 770 387 764 q 381 784 374 777 q 369 806 372 799 q 363 817 366 812 q 342 819 358 819 q 331 829 338 826 q 321 844 324 833 q 306 835 311 841 q 296 823 301 829 q 281 806 288 815 q 269 787 275 798 q 255 767 262 776 q 243 747 248 758 q 232 741 236 745 q 220 735 228 736 q 210 744 216 741 q 199 753 205 747 q 196 762 198 760 q 193 768 194 765 q 175 802 186 787 q 153 811 160 803 q 140 830 145 819 q 146 844 142 837 q 152 857 149 850 q 170 868 161 863 q 187 880 178 873 q 195 904 184 898 q 210 922 206 910 q 202 930 209 929 q 189 930 195 932 q 176 940 184 939 q 160 947 167 941 q 144 945 153 944 q 126 952 134 947 q 110 948 119 951 q 92 948 100 945 q 86 954 90 949 q 79 960 83 959 q 79 972 81 967 q 79 982 77 977 q 82 994 80 989 q 84 1010 84 1000 q 81 1019 83 1016 q 77 1027 79 1023 q 77 1047 75 1038 q 80 1067 80 1057 q 92 1072 88 1067 q 102 1077 95 1077 q 110 1062 113 1077 q 127 1070 117 1069 q 146 1078 138 1072 q 167 1077 157 1076 q 189 1076 176 1078 q 196 1080 194 1076 q 205 1081 198 1084 q 214 1078 213 1084 q 220 1069 214 1072 q 250 1067 239 1073 q 271 1050 262 1061 q 290 1045 285 1051 q 305 1035 296 1039 q 314 1037 312 1032 q 326 1039 316 1042 q 341 1051 332 1047 q 361 1059 350 1055 q 373 1067 369 1066 q 377 1072 377 1069 q 387 1083 380 1074 q 399 1092 393 1092 q 410 1097 408 1095 q 412 1100 411 1100 q 421 1108 418 1104 q 427 1116 425 1112 q 435 1121 430 1119 q 449 1122 439 1123 q 469 1115 464 1118 q 480 1112 475 1112 q 498 1092 487 1100 q 515 1069 510 1084 q 524 1063 519 1066 q 532 1055 529 1059 l 532 1032 q 522 1024 524 1027 q 518 1019 521 1021 q 508 1011 510 1013 q 503 1009 506 1009 q 497 1000 502 1002 q 488 993 492 997 q 483 984 486 989 q 477 975 480 979 q 473 968 475 972 q 468 960 472 964 q 458 949 461 954 q 453 940 456 944 q 465 930 464 933 q 468 928 467 928 q 500 898 488 914 q 525 886 511 895 q 539 867 536 875 q 545 853 543 860 q 551 844 548 848 q 557 834 555 841 q 588 812 574 825 q 609 779 602 800 q 616 770 612 773 q 624 765 620 768 q 642 739 629 749 q 652 705 654 728 q 661 695 659 701 q 669 681 662 689 q 677 661 677 667 q 681 647 678 654 q 688 617 688 628 q 690 595 688 606 q 694 569 694 579 q 696 551 694 559 q 697 541 696 545 q 700 534 699 537 q 699 524 700 529 q 699 514 699 519 q 703 501 700 507 q 705 487 705 495 q 705 471 705 479 q 708 453 704 463 q 707 433 705 438 q 709 423 708 427 q 711 391 708 407 q 712 358 713 374 q 713 336 711 342 q 716 323 716 330 m 552 412 q 545 422 549 419 q 538 435 540 426 l 538 452 q 532 460 536 457 q 528 469 528 463 q 529 486 532 479 q 525 503 526 494 q 515 509 519 506 q 507 517 510 511 q 502 530 505 526 q 502 540 499 534 q 477 561 488 551 q 456 583 465 571 q 442 592 448 586 q 430 601 437 598 q 416 611 423 605 q 400 618 410 617 q 376 617 385 616 q 359 617 366 618 q 339 607 349 614 q 320 600 330 600 q 301 585 311 591 q 282 572 292 579 q 268 553 278 560 q 254 533 258 547 q 243 526 248 532 q 235 515 237 519 q 225 503 227 507 q 221 490 224 498 q 216 465 216 473 q 216 449 217 456 q 212 437 214 442 q 209 426 209 431 q 210 416 208 420 q 210 407 212 411 q 208 399 209 401 q 206 392 206 397 q 208 383 206 387 q 209 373 209 380 q 206 360 209 366 q 205 349 203 354 q 208 340 205 343 q 210 332 212 338 q 205 318 206 327 q 198 302 203 309 q 207 281 210 296 q 205 252 203 267 q 207 241 205 245 q 210 232 209 237 q 213 220 213 225 q 213 209 213 216 q 220 197 216 202 q 229 187 225 193 q 237 176 233 182 q 245 165 241 171 q 258 156 251 160 q 270 148 264 152 q 283 136 277 141 q 292 125 289 132 q 302 120 297 122 q 311 115 307 118 q 327 109 321 110 q 335 106 332 109 q 351 98 343 103 q 365 91 358 94 q 378 94 372 94 q 391 96 384 95 q 407 101 403 99 q 414 104 411 103 q 437 109 433 107 q 444 113 441 110 q 454 121 452 117 q 460 127 457 125 q 469 138 464 134 q 477 149 475 142 q 501 179 490 168 q 518 203 513 190 q 521 214 521 209 q 524 225 521 220 q 530 237 528 235 q 534 243 533 239 q 536 266 530 254 q 548 286 543 278 q 543 304 541 297 q 547 323 545 312 q 546 340 545 335 q 547 350 547 346 q 547 381 547 365 q 552 412 548 397 z "},"Ł":{"ha":674,"x_min":-90,"x_max":655,"o":"m 441 761 q 453 732 448 743 q 460 704 458 720 q 475 672 468 689 q 475 643 481 655 q 452 635 463 635 q 430 627 441 635 q 411 629 422 627 q 389 614 400 620 q 363 601 377 608 q 352 592 353 594 q 349 589 351 590 q 342 583 346 586 q 336 579 339 581 q 314 564 321 568 q 292 553 307 560 q 279 538 278 541 q 281 531 279 534 q 283 524 282 528 q 283 514 283 518 q 282 505 282 510 l 286 476 q 288 454 288 464 q 290 429 289 444 q 292 418 290 422 q 293 411 293 414 q 292 401 292 407 q 289 392 293 396 q 294 361 293 376 q 290 335 296 347 q 292 315 293 327 q 290 289 290 304 q 293 278 292 283 q 289 266 294 273 q 291 230 292 247 q 293 191 290 213 q 320 183 304 182 q 351 186 336 184 q 382 186 366 187 q 414 187 399 186 q 422 188 418 187 q 430 189 426 189 q 453 187 442 189 q 479 187 464 186 q 486 189 481 187 q 495 190 490 190 q 509 189 505 187 q 518 191 514 190 q 527 191 522 191 q 537 190 532 190 q 548 191 545 193 q 553 190 551 190 q 580 195 571 195 q 598 198 589 195 q 629 198 618 202 q 643 189 639 194 q 645 178 644 183 q 647 167 646 172 q 648 157 647 161 q 651 146 650 152 q 649 136 651 140 q 648 126 647 132 q 650 117 648 121 q 652 109 651 113 q 652 68 655 88 q 642 37 648 47 q 628 31 635 30 q 613 31 621 33 q 581 22 598 26 q 565 18 570 18 q 556 18 560 19 q 548 14 552 16 q 540 11 544 12 q 515 10 529 9 q 486 11 500 11 q 433 3 460 3 q 387 1 406 4 q 358 2 373 0 q 326 3 343 4 q 304 3 315 3 q 281 11 293 4 q 270 7 275 8 q 259 3 264 5 q 247 7 252 5 q 233 9 241 8 q 208 7 221 9 q 189 19 194 5 q 180 15 182 19 q 171 11 178 11 q 156 12 164 12 q 137 14 148 12 q 127 24 133 20 q 119 37 122 28 q 120 52 118 49 q 125 58 122 54 q 122 79 127 76 q 117 91 117 83 q 117 113 118 102 q 117 134 115 123 q 119 146 118 141 q 122 157 121 152 q 121 184 121 171 q 121 208 122 197 q 119 220 119 214 q 117 233 118 227 q 118 243 117 239 q 119 254 119 248 q 118 287 121 270 q 113 320 115 304 q 111 345 110 331 q 110 378 111 359 q 107 388 109 384 q 106 397 106 392 q 103 417 103 407 q 102 438 103 427 q 46 405 73 414 q -5 381 19 396 q -16 386 -12 384 q -23 391 -20 388 q -28 401 -28 396 q -30 412 -27 406 q -41 429 -34 423 q -54 446 -49 435 q -73 449 -60 449 q -81 455 -76 456 q -90 461 -87 454 q -89 473 -88 467 q -80 483 -90 479 q -77 494 -77 487 q -72 505 -76 500 q -54 511 -64 511 q -38 510 -45 511 q -10 523 -22 517 q 7 541 1 529 q 26 553 18 544 q 45 570 35 563 q 60 576 52 574 q 75 583 68 579 l 88 593 l 88 609 q 85 620 85 614 q 80 629 84 625 q 81 661 83 644 q 77 692 80 677 l 73 712 q 75 719 73 715 q 76 728 76 723 q 75 736 76 731 q 75 743 75 741 q 74 760 73 751 q 73 777 75 769 q 69 795 72 787 q 65 812 66 804 q 64 825 64 819 q 64 837 64 830 q 64 852 65 848 q 64 859 64 856 l 64 878 q 64 895 64 886 q 62 910 64 903 q 62 926 61 921 q 64 935 64 930 q 60 952 62 943 q 60 970 57 962 q 55 979 60 977 q 49 989 50 982 q 49 1028 50 1012 q 50 1063 47 1044 q 65 1073 58 1067 q 85 1076 72 1078 q 97 1071 94 1072 q 102 1072 100 1070 q 106 1074 104 1073 q 111 1074 107 1076 q 161 1076 127 1077 q 221 1077 195 1074 q 229 1078 225 1077 q 236 1078 233 1080 q 250 1072 243 1077 q 258 1062 256 1066 q 259 1052 260 1055 q 255 1042 258 1048 q 260 1010 262 1025 q 259 977 259 994 q 260 968 258 972 q 262 959 262 964 q 260 945 262 952 q 258 932 258 939 q 260 909 258 921 q 256 884 263 897 q 260 859 260 871 q 258 829 259 846 q 258 821 259 825 q 258 814 256 818 q 263 793 258 803 q 258 768 269 783 q 265 750 263 761 q 268 727 267 739 q 269 703 269 715 q 270 678 269 690 q 290 686 281 681 q 308 697 298 692 q 326 707 320 703 q 334 713 331 711 q 361 732 346 727 q 392 741 376 738 q 414 761 399 751 q 441 761 429 770 z "},"ł":{"ha":401,"x_min":-90,"x_max":481,"o":"m 441 761 q 453 732 448 743 q 460 704 458 720 q 475 672 468 689 q 475 643 481 655 q 452 635 463 635 q 430 627 441 635 q 411 629 422 627 q 389 614 400 620 q 363 601 377 608 q 352 592 353 594 q 349 589 351 590 q 342 583 346 586 q 336 579 339 581 q 314 564 321 568 q 292 553 307 560 q 292 516 289 533 q 294 483 294 499 q 293 445 294 465 q 293 407 292 425 q 292 391 290 396 q 293 382 293 387 q 290 363 292 372 q 288 346 288 355 q 288 332 286 339 q 289 316 289 324 q 288 300 289 308 q 288 283 288 292 q 291 247 289 264 q 293 210 293 229 q 291 181 293 195 q 292 152 289 167 q 294 132 293 142 q 297 111 296 122 q 300 101 298 106 q 301 91 301 96 q 297 45 302 68 q 300 -1 292 22 q 317 -9 305 -8 q 335 -18 328 -11 q 324 -42 340 -45 q 323 -51 321 -45 q 317 -60 324 -57 q 294 -61 307 -64 q 274 -53 281 -58 q 206 -51 241 -46 q 137 -52 171 -56 q 127 -45 127 -42 q 122 -47 127 -49 q 113 -33 114 -41 q 111 -15 111 -24 l 111 9 q 113 31 113 20 q 113 53 113 41 q 110 107 113 76 q 119 160 107 138 q 116 180 113 168 q 121 205 119 193 q 119 220 121 212 q 123 236 117 229 q 119 252 117 243 q 122 273 121 262 q 121 283 122 278 q 125 292 119 288 q 120 312 123 302 q 119 336 117 321 q 120 344 119 340 q 119 354 121 347 q 117 368 117 363 q 118 374 118 372 q 117 388 118 381 q 115 404 115 395 q 118 419 118 415 q 115 432 118 426 q 113 445 113 438 q 99 441 100 446 q 94 433 98 437 q 45 404 71 412 q -5 381 19 396 q -16 386 -12 384 q -23 391 -20 388 q -28 401 -28 396 q -30 412 -27 406 q -41 429 -34 423 q -54 446 -49 435 q -73 449 -60 449 q -81 455 -76 456 q -90 461 -87 454 q -89 473 -88 467 q -80 483 -90 479 q -77 494 -77 487 q -72 505 -76 500 q -54 511 -64 511 q -38 510 -45 511 q -10 523 -22 517 q 7 541 1 529 q 26 553 18 544 q 45 570 35 563 q 60 576 52 574 q 75 583 68 579 q 93 593 88 591 q 100 597 98 595 q 99 610 99 604 q 99 624 99 617 q 98 641 96 636 q 99 648 99 646 q 97 665 99 655 q 94 685 95 674 q 91 713 91 699 q 91 743 91 728 q 90 753 90 749 q 88 762 90 758 q 88 773 91 770 q 85 779 85 776 q 87 791 88 788 q 85 798 85 795 q 86 817 88 811 q 84 826 84 822 q 85 843 84 834 q 83 860 87 852 q 88 874 91 865 q 85 890 85 883 q 90 905 85 898 q 90 920 94 913 q 95 928 94 922 q 99 937 96 933 q 102 964 96 948 q 111 993 107 979 q 109 1002 113 1000 q 103 1006 106 1004 q 109 1028 106 1017 q 121 1043 111 1039 q 171 1038 148 1039 q 217 1036 194 1038 q 229 1042 224 1039 q 240 1047 233 1046 q 258 1041 247 1047 q 275 1032 269 1035 q 282 1019 281 1027 q 286 1005 283 1012 q 281 998 286 998 q 273 991 275 997 l 273 974 q 273 953 270 959 q 277 943 275 947 q 275 925 277 933 q 273 907 273 917 q 274 899 273 903 q 277 888 275 894 q 277 880 275 884 q 279 873 278 876 q 277 847 279 860 q 275 822 275 834 q 276 803 278 808 q 275 795 274 798 q 281 775 278 780 q 283 768 283 770 q 283 744 282 753 q 286 728 285 735 q 289 707 289 718 q 290 686 289 697 q 308 697 301 694 q 326 707 320 703 q 334 713 331 711 q 361 732 346 727 q 392 741 376 738 q 414 761 399 751 q 441 761 429 770 z "},"Š":{"ha":713,"x_min":14,"x_max":661,"o":"m 658 875 q 653 856 661 864 q 643 834 646 848 q 636 829 640 831 q 629 822 632 827 q 617 810 624 811 q 607 792 613 799 q 595 776 601 785 q 591 768 595 769 q 583 765 586 768 q 559 726 579 739 q 529 732 544 727 q 526 743 525 736 q 524 755 526 750 q 518 765 521 761 q 513 774 515 769 q 506 783 510 779 q 499 789 502 787 q 491 800 495 798 q 486 803 487 802 q 480 811 483 807 q 475 819 477 815 q 469 826 472 822 q 463 833 465 830 q 453 838 456 837 q 449 841 450 838 q 415 849 430 849 q 389 850 400 849 q 381 852 385 850 q 372 853 377 853 q 365 852 369 853 q 357 849 361 850 q 349 848 353 848 q 342 848 345 849 q 332 840 336 845 q 321 836 328 836 q 307 816 315 822 q 297 803 300 810 q 293 785 296 799 q 286 760 290 774 q 283 732 282 745 q 289 705 283 716 q 297 680 294 693 q 304 673 302 677 q 309 663 307 669 q 317 655 313 659 q 327 650 320 651 q 330 640 327 643 q 332 632 332 637 q 357 612 346 624 q 367 600 362 602 q 369 593 372 598 q 382 586 378 590 q 389 579 387 582 q 411 562 404 571 q 429 548 418 553 q 434 537 430 541 q 439 526 438 533 q 449 524 446 528 q 460 521 452 519 q 467 511 463 514 q 477 506 472 509 q 502 487 492 494 q 519 472 511 480 q 525 466 522 468 q 530 461 528 464 q 560 431 549 444 q 582 408 571 418 q 601 370 587 388 q 613 346 602 357 q 616 323 612 332 q 624 307 620 315 q 629 290 627 300 q 629 274 631 281 q 629 264 631 267 q 629 256 628 260 q 631 243 629 250 q 635 228 633 236 q 633 210 632 214 q 635 201 635 205 q 631 184 633 193 q 631 168 628 176 q 627 151 623 160 q 623 141 625 144 q 617 134 620 138 q 614 113 618 122 q 607 99 612 106 q 595 91 602 92 q 593 79 597 81 q 589 75 590 77 q 576 56 585 64 q 562 42 567 49 q 549 28 556 35 q 536 15 543 22 q 527 5 532 11 q 519 -3 522 0 q 511 -7 517 -5 q 498 -11 505 -8 q 474 -20 483 -18 q 454 -24 465 -23 q 437 -28 441 -26 q 431 -30 434 -30 q 420 -28 425 -30 q 410 -24 415 -26 q 388 -28 399 -30 q 362 -24 377 -27 q 344 -22 355 -23 q 326 -18 332 -22 q 308 -24 317 -20 q 281 -19 294 -20 q 252 -14 267 -18 q 241 -9 247 -12 q 231 -4 236 -7 q 217 -2 224 -1 q 205 0 210 -3 q 197 6 201 3 q 189 12 193 9 q 173 22 179 19 q 164 31 167 24 q 145 37 151 28 q 129 45 140 45 q 127 52 126 47 q 125 60 127 57 q 116 60 118 62 q 109 58 114 57 q 104 66 106 64 q 99 75 102 69 q 90 80 96 77 q 77 90 83 83 q 71 98 73 96 q 66 102 68 100 q 54 125 58 114 q 42 144 49 137 l 42 161 q 24 190 34 176 q 14 227 14 203 q 20 233 18 229 q 24 239 22 236 q 33 242 28 241 q 42 245 38 243 q 57 252 49 250 q 68 264 65 255 q 80 267 75 264 q 92 273 85 270 q 104 280 102 279 q 110 282 107 281 q 117 290 114 286 q 125 297 121 294 q 135 296 133 294 q 148 293 137 298 q 170 256 163 283 q 177 236 172 243 q 186 222 182 229 q 203 202 191 214 q 227 183 216 190 q 241 172 233 179 q 254 163 250 165 q 264 161 258 161 q 277 160 270 161 q 286 157 282 159 q 294 156 290 156 q 332 154 317 153 q 366 160 347 155 q 387 166 377 163 q 406 175 397 170 q 422 190 416 183 q 435 210 429 197 q 440 222 438 220 q 442 227 442 224 q 444 236 444 231 q 445 248 444 241 q 448 260 446 254 q 450 269 449 266 q 448 288 450 279 q 444 308 445 297 q 431 321 438 315 q 422 339 425 328 q 399 358 411 349 q 385 387 388 368 q 376 390 381 389 q 366 393 370 391 q 359 415 366 407 q 343 431 351 423 q 338 439 340 437 q 332 444 336 441 q 321 454 327 453 q 304 468 313 461 q 272 498 288 480 q 237 530 256 517 q 231 548 236 541 q 218 560 225 555 q 193 609 212 590 q 191 620 194 616 q 186 631 189 624 q 179 644 182 640 q 175 648 176 647 q 172 671 172 659 q 165 693 171 682 q 169 703 167 699 q 171 713 171 707 q 167 734 167 728 q 163 739 167 739 q 161 758 165 749 q 156 776 157 766 q 157 795 156 785 q 160 812 159 806 q 163 834 159 823 q 170 850 167 845 q 180 875 174 864 q 193 897 187 886 q 201 917 199 907 q 213 929 210 922 q 222 943 216 936 q 243 959 239 956 q 260 971 251 966 q 275 981 269 977 q 292 987 289 985 q 297 990 294 990 q 311 993 308 991 q 315 994 313 994 q 334 997 324 997 q 354 998 343 997 q 369 999 361 998 q 388 997 377 1000 q 397 994 393 996 q 407 990 401 991 q 450 990 427 987 q 459 984 454 987 q 468 978 464 981 q 499 964 488 975 q 532 953 521 960 q 552 939 543 945 q 559 936 556 937 q 567 936 562 935 q 577 923 571 928 q 589 913 583 918 q 615 903 605 906 q 633 895 625 901 q 642 892 637 892 q 648 888 646 891 q 658 875 655 884 m 157 1272 q 157 1289 156 1282 q 160 1303 159 1297 q 175 1306 168 1308 q 189 1310 182 1305 q 203 1318 199 1314 q 209 1324 206 1321 q 216 1329 212 1325 q 225 1333 221 1332 q 240 1333 233 1336 q 258 1332 247 1329 q 273 1317 264 1324 q 292 1309 281 1310 q 296 1299 292 1301 q 300 1290 301 1297 q 309 1290 305 1291 q 315 1289 312 1289 q 326 1274 320 1280 q 339 1259 332 1268 q 351 1242 346 1246 q 355 1233 355 1238 q 366 1231 362 1233 q 373 1230 369 1229 q 387 1238 381 1232 q 403 1244 393 1244 q 427 1267 414 1251 q 436 1274 434 1272 q 439 1278 438 1276 q 454 1286 450 1283 q 461 1293 457 1290 q 477 1304 468 1298 q 492 1317 486 1310 q 514 1336 500 1326 q 532 1350 522 1347 q 552 1354 541 1354 q 563 1342 559 1348 q 571 1329 567 1336 q 569 1318 570 1322 q 567 1308 568 1313 q 576 1293 568 1301 q 576 1281 574 1286 q 578 1270 578 1276 q 545 1248 568 1252 q 534 1237 541 1241 q 522 1226 526 1233 q 498 1211 506 1219 q 481 1195 490 1203 q 465 1179 475 1187 q 444 1160 454 1171 q 436 1149 441 1153 q 434 1139 431 1145 q 427 1135 430 1138 q 422 1130 425 1133 q 403 1103 408 1119 q 394 1098 399 1100 q 381 1096 389 1096 q 358 1118 370 1107 q 345 1152 346 1128 q 330 1175 338 1164 q 309 1189 319 1185 q 296 1200 300 1192 q 275 1210 282 1203 q 258 1221 260 1215 q 249 1222 251 1219 q 240 1222 247 1225 q 231 1231 237 1229 q 222 1241 225 1233 q 214 1241 217 1238 q 206 1246 210 1244 q 196 1251 198 1248 q 193 1253 194 1253 q 180 1257 182 1256 q 176 1259 178 1259 q 157 1272 165 1264 z "},"š":{"ha":594,"x_min":49,"x_max":541,"o":"m 537 216 q 534 193 533 203 q 533 171 536 182 q 527 147 530 155 q 519 133 524 140 q 509 109 514 122 q 500 81 503 96 q 492 74 495 79 q 484 64 488 69 q 477 55 481 58 q 471 45 472 52 q 460 39 464 43 q 453 30 457 34 q 439 18 444 20 q 431 16 435 16 q 424 7 429 9 q 414 1 419 4 q 404 -5 408 -1 q 393 -12 399 -9 q 387 -13 391 -14 q 378 -14 382 -12 q 355 -21 363 -20 q 339 -23 346 -22 q 318 -28 328 -26 q 294 -27 308 -30 q 270 -21 275 -22 q 258 -18 264 -20 q 238 -10 245 -14 q 224 -5 231 -7 q 213 -6 216 -8 q 208 -3 210 -4 q 194 0 201 -1 q 180 4 187 1 q 172 7 176 5 q 163 8 168 8 q 138 22 157 19 q 132 31 136 26 q 125 39 129 37 q 117 43 122 42 q 110 50 111 43 q 102 50 104 49 q 95 53 99 52 q 85 62 90 57 q 72 69 81 68 q 62 84 69 81 q 50 96 54 87 q 49 108 49 100 q 49 119 49 115 q 62 148 50 132 q 72 159 68 155 q 81 170 76 163 q 93 184 88 180 q 100 191 98 189 q 106 205 104 198 q 110 218 107 213 q 116 236 117 231 q 119 244 115 241 q 142 255 133 255 q 167 245 157 255 q 186 231 176 235 q 193 210 193 216 q 195 201 193 205 q 215 182 203 189 q 236 164 227 175 q 269 156 251 159 q 307 156 288 153 q 317 157 312 157 q 326 157 323 157 q 341 166 335 160 q 354 175 347 172 q 358 190 355 183 q 363 205 361 197 q 365 212 365 208 q 366 220 365 216 q 370 237 369 229 q 365 255 370 244 q 357 268 358 266 q 354 271 355 270 q 330 295 343 285 q 311 320 317 305 q 296 326 304 323 q 286 336 289 328 q 258 344 271 338 q 231 354 245 350 q 222 357 227 357 q 214 359 217 357 q 207 366 210 362 q 197 369 203 370 q 186 383 194 378 q 174 396 178 388 q 159 399 167 396 q 144 406 146 403 q 142 408 141 407 q 126 418 134 411 q 114 430 118 425 q 106 447 111 441 q 98 458 100 453 q 94 473 95 465 q 85 486 94 480 q 86 499 88 492 q 81 513 84 506 q 78 524 80 518 q 76 534 76 529 q 78 549 76 541 q 80 564 80 557 q 81 583 81 574 q 81 602 80 593 q 84 616 83 613 q 88 623 85 620 q 90 642 90 635 q 92 658 90 648 q 98 668 95 665 q 104 678 100 671 q 117 700 110 688 q 136 718 125 712 q 151 742 140 734 q 168 764 161 750 q 180 766 175 764 q 191 772 186 769 q 207 778 197 776 q 227 780 217 780 q 237 786 233 783 q 245 792 241 789 q 264 795 260 795 q 273 795 269 795 q 302 803 289 800 q 331 803 316 806 q 347 797 343 796 q 357 796 351 798 q 371 789 366 791 q 380 784 376 787 q 387 779 384 781 q 393 774 389 776 q 403 770 397 772 q 412 766 408 769 q 423 758 416 764 q 438 747 430 751 q 447 739 445 743 q 450 734 449 735 q 456 728 453 731 q 461 719 458 726 q 466 707 464 713 q 472 697 468 700 q 492 692 481 694 q 506 681 502 689 q 506 673 507 677 q 503 662 505 669 q 483 633 498 647 q 471 618 473 623 q 465 612 468 614 q 444 585 453 594 q 429 568 435 576 q 401 561 408 557 q 389 571 393 564 q 381 578 387 576 q 378 589 376 581 q 366 595 370 590 q 355 605 361 600 q 345 614 347 613 q 340 617 342 616 q 332 622 336 620 q 320 627 327 624 q 292 635 302 633 q 275 643 282 637 q 259 635 267 636 q 244 631 251 635 q 237 620 241 628 q 229 602 232 612 q 226 581 227 591 q 229 563 225 571 q 237 547 236 551 q 245 537 239 544 q 279 517 264 526 q 305 503 294 509 q 311 492 307 496 q 316 480 316 487 q 335 471 330 473 q 346 467 340 469 q 363 452 358 460 q 373 442 368 445 q 383 438 378 439 q 392 433 388 437 q 429 401 411 423 q 439 399 435 403 q 445 393 442 396 q 456 387 452 389 q 465 377 460 384 q 484 362 469 369 q 500 338 491 349 q 517 315 510 327 q 517 305 517 309 q 514 298 517 301 q 524 281 524 292 q 526 258 524 270 q 535 239 529 248 q 537 216 541 231 m 88 1066 q 88 1083 87 1076 q 91 1097 90 1090 q 106 1100 99 1101 q 119 1104 113 1099 q 134 1112 130 1108 q 140 1118 137 1115 q 147 1122 142 1119 q 156 1127 152 1126 q 171 1126 164 1130 q 189 1126 178 1123 q 203 1111 195 1118 q 222 1103 212 1104 q 227 1093 222 1095 q 231 1084 232 1090 q 239 1084 236 1085 q 245 1082 243 1082 q 257 1068 251 1074 q 270 1053 263 1062 q 281 1036 277 1040 q 286 1027 286 1032 q 296 1025 293 1027 q 304 1024 300 1023 q 318 1031 312 1025 q 334 1038 324 1038 q 358 1061 345 1044 q 367 1068 365 1066 q 370 1072 369 1070 q 385 1080 381 1077 q 392 1086 388 1084 q 408 1098 399 1092 q 423 1111 416 1104 q 445 1130 431 1120 q 463 1144 453 1141 q 483 1147 472 1147 q 494 1136 490 1142 q 502 1123 498 1130 q 500 1112 500 1116 q 498 1101 499 1107 q 507 1086 499 1095 q 507 1075 505 1080 q 509 1063 509 1070 q 476 1042 499 1046 q 465 1031 472 1035 q 453 1020 457 1027 q 429 1005 437 1013 q 412 989 420 997 q 396 972 406 981 q 374 954 385 964 q 367 943 372 947 q 365 933 362 939 q 358 929 361 932 q 353 924 355 926 q 334 897 339 913 q 325 892 330 894 q 312 890 320 890 q 289 911 301 901 q 275 945 277 922 q 260 968 269 958 q 240 983 250 979 q 227 994 231 986 q 206 1004 213 997 q 189 1015 191 1009 q 180 1016 182 1013 q 171 1016 178 1019 q 162 1025 168 1023 q 153 1035 156 1027 q 144 1035 148 1032 q 137 1040 141 1038 q 127 1044 129 1042 q 123 1047 125 1047 q 111 1051 113 1050 q 107 1053 109 1053 q 88 1066 96 1058 z "},"Ý":{"ha":655,"x_min":-113,"x_max":738,"o":"m 728 993 q 713 975 715 979 q 700 959 701 960 q 688 939 693 944 q 680 932 682 935 q 667 909 673 917 q 658 894 662 901 q 649 882 652 883 q 644 879 646 882 q 639 869 640 873 q 635 859 637 865 q 606 829 620 845 q 575 800 591 812 q 568 778 576 785 q 555 762 560 770 q 547 747 549 755 q 537 734 545 738 q 522 711 528 712 q 519 703 524 705 q 513 697 515 701 q 508 685 510 686 q 506 682 506 684 q 501 671 503 674 q 496 663 499 667 q 483 640 490 654 q 468 616 476 627 q 456 602 458 605 q 450 595 453 598 q 440 583 445 589 q 425 574 435 576 q 414 556 422 563 q 401 538 407 549 q 399 530 399 536 q 395 521 399 524 q 395 496 392 509 q 397 472 397 483 q 396 464 397 467 q 395 456 395 461 q 397 444 396 450 q 399 431 399 438 q 398 421 399 425 q 396 411 397 418 q 394 348 393 381 q 396 288 395 315 q 395 271 396 279 q 395 252 395 262 q 397 241 396 245 q 397 232 397 237 q 395 222 396 227 q 392 213 393 218 q 392 195 391 203 q 393 178 393 186 l 393 163 q 393 123 395 142 q 392 77 392 103 q 393 66 392 72 q 389 56 393 60 q 392 9 393 33 q 402 -8 395 3 q 407 -33 410 -19 q 403 -41 406 -38 q 397 -49 400 -45 q 385 -51 391 -49 q 372 -52 378 -53 q 343 -55 357 -52 q 316 -60 330 -58 q 278 -58 298 -61 q 237 -54 258 -56 q 208 -54 222 -53 q 184 -43 193 -54 q 183 -27 180 -38 q 187 -7 186 -14 q 191 5 189 0 q 187 29 189 18 q 189 56 186 41 q 191 73 191 66 q 191 90 190 80 q 194 104 194 98 q 191 120 194 111 q 189 140 189 129 q 191 157 189 149 q 194 174 193 165 q 191 203 194 189 q 194 229 187 217 q 191 239 193 235 q 189 247 189 243 q 189 260 187 254 q 191 273 190 266 q 191 280 191 274 q 191 293 190 286 q 195 304 193 300 q 198 316 198 309 q 198 339 199 327 q 198 362 197 351 q 201 374 198 368 q 203 387 203 381 q 201 396 203 392 q 198 404 198 400 q 201 426 198 415 q 205 441 203 437 q 205 456 208 445 q 203 467 203 463 q 198 477 202 472 q 182 500 190 492 q 170 515 175 507 q 159 540 163 530 q 153 560 155 549 q 142 572 146 566 q 133 587 138 579 q 129 594 132 590 q 125 605 126 598 q 108 632 117 624 q 95 648 99 640 q 91 661 92 654 q 85 674 90 667 q 77 690 83 681 q 71 709 71 700 q 52 728 60 718 q 41 753 43 738 q 16 789 24 768 q -9 823 8 810 q -12 834 -9 830 q -15 845 -15 838 q -28 859 -20 853 q -42 871 -35 864 q -47 883 -46 882 q -50 887 -49 884 q -60 899 -56 895 q -68 909 -64 903 q -80 926 -75 917 q -96 940 -85 935 q -105 958 -98 949 q -111 978 -113 967 q -94 1004 -110 993 q -91 1017 -92 1012 q -84 1025 -90 1023 q -73 1029 -80 1029 q -58 1027 -65 1029 q -36 1033 -49 1032 q -14 1039 -23 1034 q -3 1039 -8 1039 q 4 1036 1 1039 q 13 1040 9 1036 q 22 1044 16 1043 q 41 1046 37 1044 q 47 1048 45 1048 q 57 1047 52 1048 q 65 1044 62 1046 q 75 1034 71 1042 q 81 1020 79 1025 q 92 1006 88 1012 q 98 994 96 1001 q 109 985 106 991 q 117 971 111 978 q 127 961 122 966 q 137 949 133 956 q 142 941 140 945 q 146 932 144 936 q 153 922 153 925 q 155 917 153 920 q 165 902 160 909 q 174 884 171 895 q 181 876 176 879 q 189 867 186 872 q 193 852 191 860 q 197 838 194 845 q 204 827 203 830 q 206 823 205 825 q 215 811 213 817 q 220 800 217 806 q 224 791 222 795 q 229 780 227 787 q 233 770 232 774 q 237 760 235 765 q 244 751 240 754 q 251 742 248 747 q 267 715 259 730 q 286 689 275 700 q 300 703 289 694 q 300 709 294 705 q 304 720 305 713 q 315 732 313 728 q 317 738 316 735 q 328 749 323 745 q 336 760 332 753 q 341 766 339 762 q 346 773 343 770 q 356 785 351 780 q 366 798 361 789 q 377 813 373 808 q 381 823 381 818 q 389 829 387 826 q 395 837 392 833 q 401 847 401 844 q 404 853 401 850 q 413 867 412 864 q 415 872 414 869 q 422 881 420 879 q 426 886 423 883 q 439 898 437 895 q 444 903 441 901 q 457 920 449 910 q 475 933 465 929 q 477 943 476 940 q 481 954 479 947 q 491 967 488 963 q 496 974 494 971 q 501 980 499 977 q 506 987 503 983 q 512 1012 510 998 q 526 1029 514 1025 q 546 1029 533 1032 q 574 1028 559 1027 q 595 1031 585 1029 q 623 1032 606 1032 q 635 1030 629 1031 q 647 1029 640 1029 q 680 1032 666 1029 q 701 1035 694 1035 q 729 1021 720 1032 q 728 993 738 1009 m 488 1282 q 480 1267 481 1271 q 472 1260 479 1264 q 458 1246 463 1253 q 446 1233 453 1238 q 427 1223 431 1226 q 419 1217 422 1219 q 391 1194 401 1202 q 374 1175 381 1185 q 361 1157 368 1165 q 345 1145 355 1149 q 342 1137 345 1141 q 342 1127 340 1134 q 328 1112 334 1122 q 312 1096 321 1103 q 300 1093 307 1092 q 283 1099 294 1095 q 270 1103 277 1101 q 260 1112 263 1105 q 246 1140 241 1127 q 262 1160 251 1153 q 298 1207 274 1187 q 311 1230 301 1221 q 330 1252 321 1240 q 338 1270 335 1261 q 353 1282 342 1278 q 352 1293 350 1289 q 357 1302 354 1298 q 364 1311 361 1306 q 368 1322 368 1316 q 382 1329 377 1326 q 399 1329 388 1332 q 406 1320 404 1326 q 414 1310 408 1314 q 451 1316 431 1310 q 487 1312 471 1321 q 488 1282 495 1295 z "},"ý":{"ha":722,"x_min":14,"x_max":736,"o":"m 734 769 q 730 761 732 765 q 727 751 728 757 q 722 739 723 745 q 718 726 720 734 q 711 709 712 715 q 708 700 711 704 q 705 693 707 697 q 700 685 703 689 q 693 670 694 678 q 685 652 689 659 q 681 636 681 644 q 666 613 670 623 q 655 601 662 604 q 648 578 652 589 q 640 557 644 567 q 632 535 636 545 q 624 514 628 525 q 616 495 617 502 q 614 483 616 488 q 605 456 608 469 q 597 429 602 444 q 587 408 593 418 q 574 387 581 397 q 566 368 568 372 q 563 361 564 363 q 559 348 560 354 q 556 335 559 342 q 546 312 548 320 q 540 297 544 304 q 530 271 532 282 q 519 254 528 260 q 517 236 519 243 q 511 229 514 231 q 506 221 509 227 q 500 201 502 212 q 494 183 499 191 q 482 162 487 172 q 475 142 477 152 q 464 116 468 129 q 449 94 460 103 q 448 81 452 87 q 442 72 444 76 q 435 55 437 61 q 431 43 434 49 q 426 34 429 38 q 420 23 423 30 q 416 13 418 18 q 408 4 414 8 q 402 -21 406 -11 q 392 -43 399 -31 q 385 -64 387 -56 q 381 -80 384 -73 q 376 -93 378 -87 q 370 -103 373 -99 q 359 -121 365 -117 q 356 -137 359 -130 q 350 -151 353 -144 q 345 -163 347 -157 q 338 -174 343 -170 q 335 -198 339 -189 q 328 -218 331 -208 q 331 -225 326 -225 q 335 -232 336 -225 q 331 -248 334 -241 q 330 -266 328 -255 q 319 -275 323 -269 q 311 -286 316 -281 q 261 -286 286 -282 q 220 -279 236 -290 q 166 -274 193 -282 q 119 -252 140 -266 q 117 -240 119 -245 q 115 -229 114 -235 q 123 -208 115 -218 q 129 -183 130 -198 q 142 -164 137 -175 q 149 -138 148 -153 q 155 -127 153 -133 q 160 -117 157 -122 q 163 -107 163 -111 q 167 -99 164 -103 q 174 -80 170 -95 q 182 -62 180 -71 q 190 -50 183 -53 l 190 -33 q 197 -24 197 -30 q 199 -14 197 -18 q 205 -7 202 -9 q 210 1 208 -5 q 214 11 213 5 q 217 20 214 16 q 222 29 220 24 q 227 38 224 34 q 266 99 244 72 q 271 117 266 111 q 265 129 269 123 q 259 141 262 134 q 253 156 258 151 q 251 168 248 161 q 245 175 245 171 q 240 182 244 179 q 235 205 240 195 q 232 229 231 214 q 224 235 225 232 q 221 240 224 237 q 208 286 212 259 q 202 294 206 292 q 195 304 198 297 q 198 314 193 312 q 203 323 203 316 q 186 349 190 338 q 178 372 183 361 q 170 385 172 380 q 164 397 167 391 q 158 416 160 411 q 155 423 156 420 q 142 458 148 446 q 133 481 137 471 q 123 506 126 495 q 115 525 119 517 q 111 535 113 530 q 106 545 109 540 q 102 557 103 552 q 98 568 100 562 q 92 581 92 575 q 88 591 91 586 q 79 612 84 601 q 77 636 75 623 q 60 669 69 652 q 49 707 52 685 q 39 726 42 715 q 30 747 35 736 q 23 757 26 753 q 18 768 20 761 q 15 777 15 773 q 14 788 15 781 q 24 804 22 799 q 31 810 27 808 q 54 807 46 811 q 73 797 60 804 q 100 798 87 789 q 112 804 107 803 q 119 806 117 804 l 136 810 q 144 814 141 812 q 152 814 148 815 q 167 796 164 811 q 177 785 175 789 q 182 779 179 780 q 188 760 184 765 q 194 753 191 755 q 206 728 197 742 q 216 701 212 713 q 225 675 220 689 q 229 663 228 669 q 233 650 231 656 q 239 638 236 644 q 245 627 243 632 q 248 616 248 620 q 251 605 248 613 q 261 584 254 594 q 274 563 269 574 q 286 534 281 545 q 294 513 290 522 q 307 479 301 498 q 320 444 313 460 q 326 431 324 437 q 331 418 328 425 q 337 405 334 411 q 339 391 340 399 q 355 356 350 376 q 373 323 361 336 q 393 357 387 338 q 412 392 399 377 q 412 399 411 396 q 415 407 414 403 q 422 426 419 419 q 431 452 427 439 q 436 464 434 458 q 441 477 438 469 q 452 505 444 491 q 464 533 461 518 q 469 540 468 536 q 476 547 471 544 q 484 574 479 562 q 495 600 488 587 q 501 619 498 610 q 513 636 505 628 q 515 649 510 643 q 522 662 519 655 q 524 676 522 673 q 526 681 526 680 q 529 693 526 688 q 532 697 530 696 q 536 714 534 705 q 544 730 537 723 q 547 758 540 745 q 550 786 552 773 q 553 810 548 799 q 572 820 564 819 q 586 825 581 821 q 636 821 605 817 q 687 824 666 825 q 728 821 708 823 q 736 796 736 810 q 734 769 736 783 m 557 1076 q 549 1061 551 1065 q 541 1054 548 1058 q 527 1040 532 1047 q 515 1027 522 1032 q 496 1017 500 1020 q 488 1010 491 1013 q 460 987 471 996 q 444 968 450 979 q 431 951 437 959 q 414 939 425 943 q 412 931 414 935 q 411 921 410 928 q 397 906 403 916 q 381 890 391 897 q 370 887 376 886 q 353 892 363 888 q 339 897 346 895 q 330 906 332 899 q 315 934 311 921 q 331 954 320 947 q 368 1001 343 981 q 380 1024 370 1015 q 399 1046 391 1034 q 408 1063 404 1055 q 422 1076 411 1072 q 421 1087 419 1082 q 427 1096 423 1092 q 433 1105 430 1100 q 437 1116 437 1109 q 452 1123 446 1120 q 468 1123 457 1126 q 475 1114 473 1120 q 483 1104 477 1108 q 520 1109 500 1104 q 556 1105 540 1115 q 557 1076 564 1089 z "},"Þ":{"ha":673,"x_min":47,"x_max":666,"o":"m 665 522 q 663 500 665 514 q 658 477 661 486 q 656 467 656 472 q 655 460 656 463 q 648 443 648 448 q 646 435 647 438 q 638 417 639 422 q 636 411 637 412 q 631 405 633 407 q 625 400 628 403 q 618 390 621 395 q 612 380 616 385 q 602 370 605 373 q 597 359 600 366 q 591 355 593 357 q 583 351 589 353 q 582 342 587 345 q 574 336 576 339 q 566 323 571 327 q 560 313 562 320 q 541 303 545 309 q 533 292 536 297 q 522 286 526 289 q 510 281 517 283 q 505 273 506 278 q 499 264 503 267 q 481 256 488 264 q 463 255 473 248 q 456 246 457 252 q 452 237 456 240 q 426 222 437 231 q 418 222 422 221 q 410 221 415 222 q 400 217 403 217 q 395 217 397 217 q 385 212 389 214 q 373 209 380 210 q 327 203 346 197 q 315 207 320 205 q 302 212 309 209 q 288 218 293 217 q 278 220 282 218 q 271 221 274 220 q 263 220 267 222 q 251 226 259 229 q 233 225 243 222 q 228 200 231 213 q 225 175 225 187 q 227 161 225 168 q 229 146 229 153 q 228 136 229 141 q 227 127 227 132 q 229 117 228 122 q 231 109 231 113 q 229 98 231 103 q 227 85 227 92 q 227 77 225 81 q 228 68 228 72 q 224 58 227 62 q 222 47 222 53 q 227 28 222 38 q 229 9 231 18 q 224 0 227 3 q 217 -8 221 -3 q 210 -16 213 -14 q 201 -20 208 -19 q 186 -16 194 -22 q 168 -14 178 -11 q 151 -4 157 -9 q 121 -4 129 -5 q 113 0 117 -3 q 106 3 109 3 q 80 8 88 5 q 65 12 72 11 q 60 28 62 20 q 64 42 58 35 q 61 56 60 49 q 62 69 62 62 q 61 81 62 75 q 60 95 60 88 q 63 112 64 104 q 62 125 62 119 q 64 138 64 133 q 61 153 64 144 q 59 175 58 160 q 62 201 60 190 q 66 220 66 216 q 65 228 65 225 q 68 243 66 236 q 72 256 71 250 q 70 267 71 262 q 66 274 69 271 q 66 313 69 290 q 66 354 64 335 q 68 361 66 358 q 71 369 69 363 q 68 401 68 388 q 69 425 68 414 q 69 436 71 430 q 68 448 68 442 q 71 489 71 472 q 79 519 72 506 q 75 530 76 526 q 75 541 73 534 q 76 550 75 545 q 77 557 77 555 q 73 574 76 566 q 69 591 71 583 q 68 598 68 594 q 66 606 68 602 q 65 615 66 610 q 62 623 64 620 q 62 648 61 633 q 62 674 62 662 q 62 690 64 685 q 60 699 60 696 q 60 717 60 707 q 64 735 61 727 q 59 743 62 742 q 54 750 56 745 q 56 765 58 761 q 56 773 54 769 q 58 793 60 789 q 60 804 57 798 q 68 825 65 819 q 68 841 71 830 q 61 871 65 853 q 56 907 57 890 q 56 924 56 916 q 57 939 57 932 q 54 958 56 949 q 56 977 53 966 q 50 991 53 985 q 49 1005 47 997 q 57 1020 52 1016 q 68 1028 62 1024 q 81 1028 73 1028 q 92 1025 90 1028 q 117 1032 102 1032 q 149 1035 132 1032 q 172 1042 159 1038 q 199 1043 184 1046 q 216 1023 212 1034 q 218 1008 216 1012 q 220 1002 220 1004 q 220 983 221 993 q 218 964 218 974 q 223 913 220 939 q 229 865 227 888 q 242 867 236 863 q 254 873 248 872 q 263 875 258 875 q 273 876 269 875 q 288 878 286 879 q 293 878 290 878 l 301 878 q 308 878 304 878 q 315 879 312 879 q 326 882 321 880 q 336 886 330 884 q 351 885 347 883 q 355 887 354 887 q 369 886 362 887 q 382 882 376 884 q 420 873 401 878 q 458 863 438 868 q 465 857 461 860 q 469 849 468 854 q 492 840 480 846 q 509 823 503 833 q 522 819 519 821 q 525 817 524 817 q 538 808 532 810 q 548 804 545 807 q 558 796 555 802 q 567 787 562 791 q 576 778 571 781 q 586 770 582 774 q 590 763 589 768 q 594 754 591 758 q 614 730 602 742 q 621 723 617 726 q 625 718 624 720 q 628 707 628 712 q 629 696 628 701 q 637 685 636 692 q 644 673 639 678 q 649 644 647 654 q 654 624 651 635 q 659 608 656 617 q 658 589 661 600 q 665 563 666 575 q 663 530 665 551 l 665 522 m 522 503 q 520 511 522 506 q 518 521 518 515 q 517 540 517 533 q 514 557 517 547 q 511 568 510 564 q 510 575 511 572 q 507 589 506 586 q 505 594 507 591 q 496 610 499 606 q 488 620 494 614 q 484 629 486 624 q 480 636 483 633 q 466 649 471 644 q 458 661 461 654 q 450 663 452 659 q 441 665 448 667 q 414 691 427 680 q 377 705 400 703 q 362 716 369 708 q 350 716 355 724 q 334 719 339 720 q 321 712 324 712 q 315 711 317 712 q 299 697 304 700 q 289 692 294 694 q 273 668 282 680 q 262 640 264 656 q 243 623 251 635 q 237 598 236 610 q 227 587 227 595 q 228 568 227 579 q 229 544 229 557 q 228 526 229 534 q 229 507 227 517 q 235 492 231 500 q 236 475 239 484 q 248 463 243 469 q 256 449 252 456 q 271 437 266 445 q 283 422 277 429 q 289 415 283 415 q 296 410 294 415 q 320 391 304 397 q 351 381 336 385 q 363 376 355 380 q 374 370 372 372 q 383 372 378 370 q 392 374 388 374 q 402 375 397 377 q 410 374 407 373 q 443 391 431 385 q 464 401 454 397 q 479 417 469 412 q 498 429 488 422 q 507 447 500 439 q 517 465 514 454 q 517 475 518 469 q 517 487 517 481 q 520 496 518 492 q 522 503 522 499 z "},"þ":{"ha":793,"x_min":57,"x_max":746,"o":"m 745 312 q 744 295 745 304 q 742 278 743 286 q 741 259 741 269 q 739 241 741 250 q 736 222 739 233 q 732 212 735 217 q 727 199 730 206 q 721 180 723 189 q 715 164 719 172 q 703 142 708 152 q 697 122 697 132 q 691 117 694 119 q 685 111 688 114 q 682 104 682 109 q 678 96 681 99 q 670 86 671 90 q 665 80 669 83 q 653 71 658 72 q 644 68 648 69 q 641 56 642 62 q 631 50 640 49 q 627 39 629 43 q 624 26 625 34 q 608 12 614 20 q 586 5 601 4 q 579 -1 582 1 q 571 -7 576 -4 q 554 -13 563 -14 q 538 -15 545 -12 q 527 -20 532 -18 q 515 -26 522 -23 q 507 -26 511 -27 q 498 -23 503 -24 q 462 -21 481 -20 q 431 -14 442 -22 q 423 -15 427 -14 q 414 -15 419 -16 q 395 -9 404 -12 q 373 -3 385 -5 q 351 3 358 1 q 338 8 345 5 q 323 18 328 12 q 297 21 308 14 q 271 31 286 28 q 260 42 262 39 q 258 46 259 45 q 250 52 255 49 q 243 57 245 54 q 234 27 233 45 q 231 -8 235 9 q 227 -19 229 -15 q 224 -30 225 -23 q 225 -49 222 -39 q 228 -68 228 -58 q 227 -91 228 -79 q 227 -115 225 -103 q 227 -125 228 -123 q 227 -130 227 -127 q 228 -147 227 -138 q 228 -165 229 -156 q 224 -182 227 -175 q 224 -199 222 -189 q 225 -233 227 -213 q 222 -267 224 -252 q 184 -280 203 -275 q 151 -283 165 -285 q 135 -281 142 -282 q 123 -274 127 -279 q 94 -269 106 -278 q 71 -254 81 -260 q 70 -242 68 -247 q 65 -235 72 -237 q 61 -210 65 -221 q 64 -193 65 -202 q 64 -172 64 -184 q 64 -163 64 -168 q 64 -153 65 -157 q 62 -143 64 -148 q 60 -133 61 -138 q 62 -125 60 -129 q 62 -118 64 -121 q 62 -65 57 -83 q 60 -21 60 -41 q 61 16 60 -1 q 64 31 62 23 q 64 43 65 38 q 61 56 64 50 q 58 68 58 61 q 59 83 58 73 q 61 102 60 92 q 64 132 62 117 q 66 167 65 148 q 70 182 68 175 q 72 197 72 190 q 69 226 72 212 q 69 259 66 240 q 71 269 69 264 q 73 279 73 274 q 74 298 75 289 q 75 316 73 307 q 77 328 76 323 q 79 336 79 334 q 80 360 81 347 q 83 389 79 373 q 80 398 83 395 q 76 407 77 401 q 77 415 76 411 q 79 426 79 419 q 78 460 79 441 q 79 498 77 480 q 80 506 79 502 q 81 513 81 510 q 80 527 81 519 q 79 541 79 534 q 81 559 81 549 q 81 568 81 563 q 80 576 80 572 q 85 614 81 595 q 90 651 88 632 q 89 669 88 666 q 90 675 90 673 q 87 685 90 681 q 84 693 85 689 q 87 714 85 708 q 91 727 90 720 q 92 736 92 731 q 91 746 91 741 q 94 754 92 750 q 96 761 96 758 q 95 770 96 766 q 95 779 94 774 q 99 791 96 785 q 103 802 102 796 q 103 810 100 804 q 102 818 106 815 q 106 826 103 823 q 106 836 109 829 q 102 848 106 844 q 98 859 99 852 q 99 949 104 902 q 96 1043 94 997 q 101 1050 99 1047 q 109 1057 103 1054 q 118 1059 113 1058 q 129 1062 123 1059 q 174 1069 157 1069 q 206 1077 191 1070 q 220 1069 217 1077 q 245 1066 236 1076 q 249 1057 248 1062 q 251 1047 250 1053 q 255 1038 254 1042 q 258 1029 256 1034 q 258 1020 259 1025 q 258 1009 256 1015 q 262 990 258 998 q 266 974 266 982 q 263 947 267 960 q 259 920 259 935 q 264 899 262 906 q 266 886 266 892 q 267 869 267 879 q 266 857 266 860 q 267 836 264 848 q 269 812 270 823 q 268 788 269 802 q 266 764 267 774 q 262 747 266 753 q 266 737 266 741 q 267 731 266 734 q 271 682 273 712 q 288 691 281 685 q 304 701 294 697 q 314 705 311 703 q 323 709 317 707 q 334 717 330 715 q 350 722 339 719 q 380 728 361 726 q 419 726 400 731 q 427 730 423 728 q 437 735 430 732 q 469 735 450 738 q 496 728 487 732 q 505 724 502 726 q 518 719 509 722 q 538 715 525 716 q 557 711 551 713 q 572 699 564 708 q 587 685 579 690 q 595 680 590 682 q 602 675 600 678 q 615 671 612 671 q 621 669 618 670 q 631 658 627 665 q 642 646 636 651 q 653 635 647 640 q 663 625 659 631 q 671 612 670 616 q 673 606 671 609 q 681 594 680 600 q 685 583 682 589 q 690 576 688 579 q 696 568 693 572 q 699 562 697 566 q 704 555 701 559 q 710 534 707 540 q 713 522 713 529 q 720 513 716 517 q 726 506 723 510 q 728 486 726 495 q 731 465 730 476 q 734 448 732 453 q 736 437 736 442 q 738 420 739 429 q 739 406 736 412 q 741 395 739 400 q 745 387 743 391 q 745 368 746 377 q 743 346 745 358 q 743 325 742 331 q 745 312 745 319 m 593 336 q 592 347 594 342 q 589 359 590 353 q 589 370 589 365 q 590 381 590 374 q 580 425 587 403 q 572 468 572 446 q 564 478 566 472 q 560 491 563 484 q 553 503 557 498 q 547 515 549 509 q 524 538 534 526 q 502 556 514 549 q 490 563 494 563 q 483 566 486 563 q 476 574 479 568 q 471 583 473 581 q 456 590 467 589 q 438 593 446 591 q 421 590 430 594 q 403 589 412 586 q 377 576 392 582 q 354 567 362 571 q 336 552 343 560 q 317 538 328 544 q 307 517 313 528 q 297 498 301 506 q 293 486 293 490 q 292 479 293 481 q 288 466 288 471 q 288 457 289 461 q 284 448 286 453 q 281 441 282 444 q 277 431 278 434 q 274 422 275 427 q 268 388 270 407 q 266 351 266 369 q 266 338 266 346 q 267 324 266 331 q 271 313 269 317 q 275 302 274 309 q 277 292 278 297 q 279 281 277 286 q 290 264 285 269 q 296 256 294 259 q 308 235 302 241 q 317 221 313 228 q 323 212 320 216 q 328 203 326 208 q 337 189 334 195 q 345 176 340 183 q 357 159 351 167 q 368 142 362 151 q 389 131 382 140 q 406 115 396 122 q 429 119 419 119 q 454 114 448 113 q 465 118 460 115 q 498 131 487 125 q 518 142 510 137 q 534 158 526 155 q 545 167 541 161 q 554 184 551 178 q 560 195 557 190 q 563 212 563 203 q 571 227 563 221 q 578 248 571 239 q 579 271 575 260 q 586 290 583 281 q 585 297 586 293 q 583 305 583 301 q 589 323 585 316 q 593 336 593 330 z "},"Ž":{"ha":633,"x_min":0,"x_max":627,"o":"m 624 1039 q 625 1017 627 1028 q 617 1000 624 1005 q 607 985 610 993 q 597 968 604 978 q 591 954 594 962 q 582 940 587 947 q 572 926 575 935 q 564 907 568 917 q 556 887 560 897 q 544 872 552 878 q 537 847 545 856 q 532 821 529 838 q 521 798 524 810 q 513 774 518 787 q 507 760 506 764 q 506 754 507 757 q 499 747 500 750 q 496 742 498 745 q 486 711 491 727 q 475 681 481 696 q 464 658 469 669 q 456 635 458 647 q 443 614 448 627 q 431 591 438 602 q 426 583 429 587 q 420 572 423 578 q 413 550 415 562 q 403 532 411 538 q 398 517 403 524 q 391 505 393 511 q 388 496 388 500 q 387 487 388 492 q 380 476 381 480 q 377 468 380 472 q 371 460 374 465 q 363 453 368 456 q 354 422 362 435 q 339 397 346 410 q 334 389 336 393 q 330 380 332 384 q 323 371 324 374 q 320 363 323 368 q 314 347 316 357 q 305 331 312 338 q 300 321 302 328 q 296 308 298 313 q 292 300 293 305 q 285 296 292 296 q 285 286 288 290 q 281 278 282 282 q 278 269 278 274 q 275 259 278 263 q 267 248 267 251 q 264 244 266 245 q 256 231 260 239 q 250 216 252 222 q 243 206 247 210 q 237 195 240 202 q 233 184 235 190 q 228 174 231 179 q 220 160 221 163 q 217 153 220 157 q 225 151 220 149 q 235 152 231 152 q 320 156 279 149 q 341 155 335 153 q 354 157 347 156 q 361 157 357 159 q 369 155 365 155 q 386 157 381 157 q 395 157 391 157 q 416 159 403 156 q 444 164 429 161 q 471 169 457 167 q 495 172 484 171 q 525 170 511 170 q 544 168 538 171 q 562 146 563 152 q 559 138 562 141 q 555 127 557 134 q 553 115 553 123 q 551 102 553 107 q 547 87 545 95 q 545 69 548 80 q 539 51 544 60 q 538 30 534 42 q 538 2 536 18 q 536 -23 540 -14 q 500 -23 515 -24 q 476 -30 486 -22 q 460 -25 469 -26 q 439 -24 450 -24 q 418 -23 429 -24 q 401 -18 408 -22 q 393 -21 395 -16 q 384 -24 391 -26 q 352 -23 368 -23 q 323 -20 336 -23 q 310 -18 316 -19 q 300 -12 304 -16 q 292 -16 294 -12 q 285 -20 290 -19 q 234 -18 258 -15 q 186 -11 210 -22 q 163 -17 175 -15 q 138 -22 151 -19 q 119 -15 125 -16 q 96 -20 109 -20 q 72 -22 83 -19 q 56 -29 62 -24 q 42 -35 49 -34 q 31 -24 35 -24 q 24 -22 26 -23 q 17 -14 20 -18 q 14 -3 14 -9 q 19 12 14 1 q 27 31 24 22 q 49 68 35 50 q 50 79 47 75 q 52 92 53 84 q 65 119 62 103 q 79 142 68 134 q 85 163 80 155 q 91 183 91 171 q 98 192 94 187 q 104 203 102 197 q 104 212 106 208 q 104 218 103 216 q 112 243 107 236 q 114 258 117 251 q 119 267 115 263 q 125 274 123 270 q 131 292 127 285 q 133 305 134 298 q 144 318 138 312 q 152 332 149 324 q 156 348 155 339 q 161 365 157 357 q 169 380 164 372 q 178 395 174 388 q 184 410 179 399 q 194 436 193 427 q 198 452 195 445 q 205 466 201 458 q 212 480 209 473 q 225 521 218 506 q 230 534 229 530 q 232 540 231 537 q 245 570 239 557 q 259 591 252 583 q 271 627 266 612 q 279 662 275 643 q 286 669 285 665 q 292 677 286 674 q 293 688 290 684 q 294 701 296 693 q 310 743 305 719 q 327 785 315 766 q 328 802 328 791 q 338 833 331 821 q 345 861 346 846 q 337 866 342 867 q 330 865 332 865 q 321 868 326 867 q 311 868 316 869 q 301 865 305 868 q 290 863 297 863 q 283 863 288 861 q 275 865 279 865 q 256 863 270 865 q 234 859 241 859 q 220 857 227 860 q 193 854 203 853 q 172 852 183 854 q 157 850 161 849 q 148 850 152 850 q 137 848 141 850 q 129 846 133 846 q 119 848 121 849 q 114 846 117 846 q 96 846 104 846 q 79 848 88 845 q 68 842 72 846 q 60 836 65 837 q 39 837 45 841 q 31 838 34 833 q 20 848 20 841 q 19 861 20 854 q 16 879 16 873 q 15 888 16 884 q 12 901 14 895 q 9 913 9 906 q 9 941 7 928 q 8 967 11 954 q 5 987 4 981 q 0 994 5 993 q 5 1003 3 997 q 5 1012 8 1009 q 40 1022 19 1025 q 85 1021 61 1019 q 115 1027 104 1027 q 134 1029 125 1028 q 156 1034 145 1031 q 178 1028 167 1036 q 218 1040 208 1039 q 227 1040 224 1042 q 236 1040 231 1039 q 260 1042 252 1043 q 275 1042 269 1042 q 304 1044 289 1042 q 335 1050 320 1047 q 347 1050 345 1051 q 351 1048 350 1048 q 383 1052 368 1050 q 418 1051 399 1054 q 433 1051 422 1050 q 450 1047 445 1053 q 465 1050 457 1051 q 483 1048 472 1048 q 541 1048 510 1047 q 606 1050 572 1050 q 615 1044 610 1046 q 624 1039 620 1042 m 88 1314 q 88 1331 87 1324 q 91 1345 90 1339 q 106 1348 99 1350 q 119 1352 113 1347 q 134 1360 130 1356 q 140 1366 137 1363 q 147 1371 142 1367 q 156 1375 152 1374 q 171 1375 164 1378 q 189 1374 178 1371 q 203 1359 195 1366 q 222 1351 212 1352 q 227 1341 222 1343 q 231 1332 232 1339 q 239 1332 236 1333 q 245 1331 243 1331 q 257 1316 251 1322 q 270 1301 263 1310 q 281 1284 277 1289 q 286 1275 286 1280 q 296 1273 293 1275 q 304 1272 300 1271 q 318 1280 312 1274 q 334 1286 324 1286 q 358 1309 345 1293 q 367 1316 365 1314 q 370 1320 369 1318 q 385 1329 381 1325 q 392 1335 388 1332 q 408 1346 399 1340 q 423 1359 416 1352 q 445 1378 431 1369 q 463 1392 453 1389 q 483 1396 472 1396 q 494 1384 490 1390 q 502 1371 498 1378 q 500 1360 500 1364 q 498 1350 499 1355 q 507 1335 499 1343 q 507 1323 505 1328 q 509 1312 509 1318 q 476 1290 499 1294 q 465 1279 472 1283 q 453 1268 457 1275 q 429 1253 437 1261 q 412 1237 420 1245 q 396 1221 406 1229 q 374 1202 385 1213 q 367 1191 372 1195 q 365 1181 362 1187 q 358 1177 361 1180 q 353 1172 355 1175 q 334 1145 339 1161 q 325 1140 330 1142 q 312 1138 320 1138 q 289 1160 301 1149 q 275 1194 277 1171 q 260 1217 269 1206 q 240 1231 250 1227 q 227 1242 231 1234 q 206 1252 213 1245 q 189 1263 191 1257 q 180 1264 182 1261 q 171 1264 178 1267 q 162 1273 168 1271 q 153 1283 156 1275 q 144 1283 148 1280 q 137 1289 141 1286 q 127 1293 129 1290 q 123 1295 125 1295 q 111 1299 113 1298 q 107 1301 109 1301 q 88 1314 96 1306 z "},"ž":{"ha":707,"x_min":20,"x_max":684,"o":"m 675 814 q 676 782 684 796 q 654 764 669 768 q 643 747 648 754 q 633 731 637 739 q 629 721 631 726 q 624 712 627 716 q 616 701 620 705 q 606 690 613 697 q 600 680 604 685 q 591 667 595 674 q 581 650 586 658 q 568 637 576 643 q 559 618 566 627 q 544 600 552 609 q 528 574 532 585 q 515 559 525 564 q 496 519 509 536 q 472 483 483 502 q 452 445 461 464 q 433 407 444 426 q 424 393 426 400 q 416 380 422 387 q 400 355 406 365 q 392 335 395 345 q 388 324 389 330 q 384 312 387 319 q 377 298 377 302 q 374 292 377 294 q 370 282 372 286 q 365 273 368 278 q 361 262 362 267 q 358 252 361 256 q 347 236 349 241 q 342 228 345 231 q 329 210 331 214 q 324 201 327 205 l 311 187 q 306 174 305 179 q 304 164 307 170 q 334 163 319 159 q 361 170 349 167 q 370 170 365 171 q 381 171 374 170 q 393 173 388 172 q 403 175 397 174 q 414 176 408 176 q 425 176 419 175 q 437 180 431 178 q 449 183 442 182 q 469 184 458 184 q 490 186 479 184 q 512 188 502 187 q 533 190 522 189 q 562 190 548 191 q 587 191 575 189 q 595 193 591 191 q 602 195 600 195 q 620 191 614 191 q 629 190 625 191 q 645 180 640 186 q 650 166 650 174 q 648 149 650 159 q 646 126 647 140 q 645 109 647 113 q 643 100 643 104 q 644 75 643 87 q 644 49 646 62 q 665 37 655 43 q 674 16 674 30 q 662 0 673 4 q 643 -12 651 -4 q 607 -14 625 -11 q 571 -16 589 -18 q 522 -16 548 -16 q 477 -15 496 -15 q 461 -14 467 -12 q 449 -16 456 -16 q 437 -15 442 -16 q 426 -14 431 -14 q 416 -16 420 -14 q 408 -18 412 -18 q 396 -16 401 -18 q 384 -15 391 -15 q 342 -16 361 -14 q 307 -15 323 -19 q 295 -12 297 -15 q 292 -8 293 -8 q 255 -8 267 -15 q 233 -13 244 -14 q 212 -15 222 -12 q 200 -14 202 -18 q 195 -7 198 -9 q 190 -12 193 -9 q 183 -18 187 -15 q 161 -16 172 -15 q 138 -18 151 -18 q 131 -16 136 -18 q 123 -16 126 -15 q 100 -19 111 -16 q 73 -22 88 -22 q 57 -18 65 -20 q 38 -18 49 -16 q 28 -4 31 -12 q 20 11 26 4 q 26 21 23 18 q 33 31 30 24 q 37 40 35 35 q 42 52 39 45 q 49 66 47 62 q 54 75 50 69 q 58 83 57 79 q 62 94 60 87 q 79 116 73 107 q 91 132 84 125 q 94 139 92 136 q 94 149 95 142 q 106 168 103 157 q 117 190 110 179 q 124 203 123 201 q 126 209 125 206 q 134 221 133 217 q 137 228 136 225 q 140 236 140 231 q 144 245 141 241 q 155 264 153 259 q 159 273 156 269 q 165 285 161 278 q 172 298 170 292 q 180 313 179 308 q 182 321 180 319 q 188 329 184 326 q 194 339 191 332 q 199 346 195 342 q 206 357 202 350 q 211 368 209 363 q 216 377 213 372 q 222 388 221 384 q 224 395 222 392 q 229 403 227 399 q 233 414 231 407 q 239 424 236 416 q 243 441 243 431 q 249 449 247 444 q 254 458 251 454 q 260 466 256 463 q 267 473 264 469 q 273 488 270 480 q 278 503 275 496 q 287 515 285 514 q 290 518 289 517 q 301 536 296 532 q 312 544 307 541 q 316 557 312 552 q 323 570 320 563 q 329 583 326 579 q 334 591 332 587 q 358 626 345 612 q 378 656 372 640 q 385 663 381 661 q 388 673 388 666 q 379 675 382 678 q 370 669 376 671 q 342 660 357 665 q 317 654 328 655 q 309 654 313 654 q 301 654 305 655 q 292 651 297 652 q 282 648 288 650 q 273 644 277 646 q 264 642 269 643 q 242 643 250 644 q 229 640 235 642 q 197 635 214 637 q 164 633 180 633 q 128 633 145 632 q 102 643 111 635 q 99 658 100 650 q 99 677 98 666 q 102 688 102 685 q 100 694 102 692 q 98 697 99 696 q 98 701 96 699 q 99 722 100 712 q 98 741 98 731 q 100 763 98 751 q 102 787 102 774 q 98 799 100 793 q 95 811 96 804 q 109 833 99 825 q 133 841 118 842 q 149 827 145 833 q 163 819 153 822 q 176 819 170 817 q 193 822 183 822 q 222 822 208 821 q 244 812 237 823 q 254 817 250 815 q 266 821 259 819 q 274 821 270 822 q 283 818 278 819 q 307 819 300 819 q 326 819 315 818 q 348 821 331 817 q 372 827 365 826 q 385 827 378 827 q 397 827 392 826 q 410 829 404 827 q 422 830 415 830 q 443 830 437 829 q 454 831 449 831 q 470 832 461 833 q 487 831 479 831 q 509 833 498 831 q 528 836 519 834 q 541 836 534 836 q 553 830 547 836 q 564 833 557 837 q 576 830 570 830 q 589 829 586 831 q 594 827 591 827 q 613 823 608 825 q 621 819 618 821 q 633 821 628 819 q 644 822 637 822 q 661 820 652 821 q 675 814 669 819 m 157 1105 q 157 1122 156 1115 q 160 1137 159 1130 q 175 1139 168 1141 q 189 1143 182 1138 q 203 1151 199 1147 q 209 1157 206 1154 q 216 1162 212 1158 q 225 1166 221 1165 q 240 1166 233 1169 q 258 1165 247 1162 q 273 1150 264 1157 q 292 1142 281 1143 q 296 1132 292 1134 q 300 1123 301 1130 q 309 1123 305 1124 q 315 1122 312 1122 q 326 1107 320 1114 q 339 1092 332 1101 q 351 1076 346 1080 q 355 1066 355 1072 q 366 1064 362 1066 q 373 1063 369 1062 q 387 1071 381 1065 q 403 1077 393 1077 q 427 1100 414 1084 q 436 1107 434 1105 q 439 1111 438 1109 q 454 1120 450 1116 q 461 1126 457 1123 q 477 1137 468 1131 q 492 1150 486 1143 q 514 1169 500 1160 q 532 1183 522 1180 q 552 1187 541 1187 q 563 1175 559 1181 q 571 1162 567 1169 q 569 1151 570 1156 q 567 1141 568 1146 q 576 1126 568 1134 q 576 1114 574 1119 q 578 1103 578 1109 q 545 1081 568 1085 q 534 1070 541 1074 q 522 1059 526 1066 q 498 1044 506 1053 q 481 1028 490 1036 q 465 1012 475 1020 q 444 993 454 1004 q 436 982 441 986 q 434 972 431 978 q 427 968 430 971 q 422 963 425 966 q 403 936 408 952 q 394 931 399 933 q 381 929 389 929 q 358 951 370 940 q 345 985 346 962 q 330 1008 338 997 q 309 1022 319 1019 q 296 1034 300 1025 q 275 1043 282 1036 q 258 1054 260 1048 q 249 1055 251 1053 q 240 1055 247 1058 q 231 1064 237 1062 q 222 1074 225 1066 q 214 1074 217 1072 q 206 1080 210 1077 q 196 1084 198 1081 q 193 1086 194 1086 q 180 1090 182 1089 q 176 1092 178 1092 q 157 1105 165 1097 z "},"½":{"ha":1017,"x_min":34,"x_max":970,"o":"m 968 511 q 969 486 970 502 q 967 454 968 469 q 964 433 966 444 q 960 412 963 422 q 952 401 958 406 q 944 392 947 397 q 941 380 941 387 q 940 368 941 373 q 924 342 929 350 q 910 328 918 334 q 905 315 909 321 q 898 304 901 309 q 891 293 894 298 q 882 283 888 288 q 873 271 876 273 q 869 269 871 270 q 862 256 863 258 q 860 251 861 254 q 838 228 848 236 q 819 210 827 220 q 805 191 808 198 q 799 178 802 183 q 793 168 796 172 q 787 157 789 164 q 814 153 798 151 q 849 152 831 155 l 868 152 q 888 152 883 153 q 901 149 894 151 q 920 149 911 148 q 933 146 928 149 q 941 139 937 144 q 948 133 944 134 q 949 121 947 126 q 952 109 952 115 q 950 95 952 102 q 947 80 948 88 q 947 54 945 66 q 947 31 949 42 q 939 19 944 24 q 929 11 933 14 q 918 11 922 8 q 907 15 913 14 q 868 18 888 18 q 822 19 848 18 q 813 28 815 22 q 806 37 811 34 q 799 32 799 38 q 795 23 799 26 q 784 22 789 24 q 772 18 779 20 q 764 18 766 16 q 754 19 761 19 q 730 19 738 18 q 712 19 722 20 q 690 16 700 19 q 671 19 680 12 q 659 15 666 15 q 651 8 651 15 q 641 9 644 12 q 631 9 637 7 q 620 20 623 12 q 610 33 617 28 q 613 41 609 39 q 616 49 617 42 q 614 57 618 56 q 610 65 610 58 q 614 92 609 83 q 625 110 618 102 q 629 127 625 125 q 632 136 632 130 q 639 152 636 149 q 643 157 642 155 q 647 167 646 161 q 652 175 648 172 q 659 191 655 187 q 663 197 662 194 q 675 209 673 205 q 681 212 677 213 q 685 220 682 217 q 689 229 688 224 q 716 257 704 245 q 739 277 728 269 q 758 298 754 288 q 772 311 761 308 q 786 333 783 323 q 796 347 789 343 q 810 378 806 363 q 823 400 814 392 q 825 427 821 414 q 829 453 829 439 q 823 480 827 467 q 818 513 818 494 q 808 521 815 519 q 796 528 802 522 q 769 519 779 526 q 749 505 760 511 q 746 494 749 498 q 741 486 743 490 q 737 477 738 481 q 734 467 736 472 q 730 459 731 463 q 726 452 728 456 q 716 435 722 446 q 722 399 719 416 q 726 361 726 382 q 718 352 720 357 q 709 345 715 347 q 683 343 694 347 q 661 346 671 339 q 648 336 651 339 q 639 335 644 334 q 623 327 633 330 q 611 334 613 334 q 609 338 609 335 q 604 344 606 340 q 600 351 602 347 q 595 359 598 354 q 590 368 591 363 q 588 389 587 378 q 583 407 589 399 q 586 419 586 414 q 583 431 586 425 q 590 446 589 438 q 594 464 591 454 q 606 495 604 473 q 618 505 614 499 q 631 514 623 511 q 637 528 632 524 q 647 538 643 533 q 659 555 655 551 q 661 563 662 559 q 669 569 666 566 q 677 575 673 572 q 683 581 680 578 q 689 587 686 585 q 700 591 697 590 q 705 593 703 591 q 727 606 716 598 q 754 609 738 613 q 761 613 760 609 q 765 620 762 617 q 772 623 769 618 q 783 625 776 627 q 798 623 789 625 q 812 621 806 621 q 829 620 823 623 q 841 617 836 617 q 856 617 849 616 q 871 616 863 618 q 888 608 883 609 q 895 604 892 606 q 907 597 902 601 q 918 591 911 594 q 936 575 932 583 q 948 563 940 567 q 949 553 947 556 q 954 541 951 549 q 961 526 956 534 q 968 511 966 518 m 856 935 q 840 921 848 928 q 829 902 831 914 q 820 896 825 899 q 812 890 815 892 q 792 865 800 875 q 777 844 784 854 q 768 825 772 829 q 764 817 764 822 q 753 806 757 814 q 743 795 750 799 q 726 769 732 779 q 711 754 719 760 q 709 745 712 747 q 707 738 707 743 q 699 732 701 735 q 692 727 697 730 q 678 703 688 712 q 659 682 669 693 q 652 670 652 673 q 651 665 652 667 q 642 656 647 659 q 631 647 636 652 q 613 616 620 623 q 602 608 605 613 q 591 606 598 604 q 587 596 589 601 q 586 583 585 591 q 578 578 581 581 q 570 574 575 575 q 564 563 567 567 q 553 553 560 559 q 545 547 548 549 q 538 538 541 544 q 532 529 536 534 q 526 521 529 524 q 515 507 518 511 q 510 499 513 502 q 500 488 505 492 q 490 479 495 484 q 475 461 479 465 q 467 450 471 457 q 455 437 461 444 q 442 422 449 430 q 432 410 434 415 q 427 400 430 404 q 421 395 425 397 q 418 387 418 392 q 409 379 414 382 q 400 370 404 376 l 400 355 q 378 326 389 340 q 357 296 368 311 q 347 283 350 285 q 343 278 345 281 q 336 263 339 269 q 332 251 332 258 q 315 233 323 243 q 296 216 307 222 q 287 195 293 203 q 274 179 281 186 q 260 163 267 171 q 243 149 252 156 q 229 122 232 134 q 217 104 225 110 q 212 93 216 98 q 206 81 209 88 q 199 71 201 75 q 197 66 198 68 q 189 53 190 58 q 184 45 187 47 q 166 26 174 31 q 152 18 159 22 q 133 18 141 20 q 118 22 125 15 q 102 16 114 19 q 85 15 95 15 q 66 19 76 15 q 61 25 64 22 q 53 26 58 28 q 40 42 45 39 q 35 49 35 45 q 39 60 34 56 q 46 66 43 64 q 56 77 53 76 q 60 81 58 79 q 71 90 65 87 q 83 99 76 94 q 98 117 94 111 q 110 125 103 122 q 126 149 121 140 q 140 164 132 159 q 151 186 146 178 q 159 201 155 194 q 171 219 165 212 q 182 236 176 227 q 190 240 187 237 q 197 245 193 243 q 212 267 209 259 q 224 274 216 275 q 229 285 225 281 q 235 296 233 289 q 252 313 245 308 q 264 323 259 317 q 271 332 269 327 q 281 340 274 338 q 285 354 283 347 q 289 368 286 361 q 296 378 296 374 q 297 384 296 381 q 317 404 311 397 q 332 412 324 410 q 336 425 331 422 q 340 438 340 429 q 354 452 351 446 q 359 461 358 457 q 363 469 361 465 q 376 484 369 480 q 387 494 382 487 q 393 507 391 505 q 395 510 395 509 q 410 545 401 532 q 416 559 412 552 q 426 572 419 567 q 438 595 429 587 q 450 617 448 602 q 462 627 457 621 q 473 636 467 632 q 475 650 472 646 q 480 662 479 655 q 489 673 487 670 q 494 677 491 675 q 506 694 499 686 q 519 711 513 701 q 540 732 534 723 q 552 747 545 741 q 571 769 566 765 q 585 787 585 781 q 598 805 593 799 q 610 818 604 811 q 618 825 616 822 q 623 829 620 829 q 627 838 625 833 q 631 846 628 844 q 636 852 633 849 q 642 859 639 854 q 655 877 648 869 q 667 894 662 884 q 682 926 674 916 q 694 947 689 936 q 694 958 696 954 q 693 970 692 963 q 713 979 701 978 q 739 979 726 979 q 764 978 751 978 q 788 982 777 978 q 805 979 795 977 q 823 977 815 981 q 837 975 829 974 q 852 974 845 977 q 858 957 859 967 q 856 935 857 947 m 277 985 q 281 963 279 974 q 274 945 283 952 q 263 916 271 926 q 258 858 259 886 q 258 803 258 830 q 256 749 258 776 q 245 697 254 723 q 249 678 250 686 q 248 655 248 670 q 250 641 248 648 q 252 625 251 633 q 250 608 250 614 q 251 600 251 602 q 249 589 251 594 q 247 576 247 583 q 248 562 247 570 q 250 545 250 553 q 250 526 251 536 q 250 507 248 517 q 252 466 250 484 q 247 433 254 448 q 227 407 240 416 q 201 406 216 404 q 170 406 186 408 q 161 404 165 406 q 152 403 156 403 q 142 402 145 401 q 134 404 140 403 q 132 412 132 410 q 130 420 132 415 q 129 433 127 426 q 132 448 130 441 q 123 463 130 456 q 123 481 126 471 q 118 506 119 492 q 118 521 118 513 q 117 534 118 529 q 118 547 117 540 q 114 559 119 553 q 117 581 117 571 q 121 601 117 590 q 119 618 118 613 q 121 631 121 624 q 121 641 119 639 q 122 646 122 643 q 121 675 119 665 q 118 693 122 685 q 124 708 123 699 q 125 728 125 718 q 130 737 126 735 q 134 746 133 739 q 130 779 133 762 q 134 802 126 795 q 136 821 133 812 q 134 836 140 829 q 122 836 127 840 q 107 837 117 833 q 99 830 102 834 q 90 825 96 826 q 77 833 80 827 q 69 845 73 838 q 73 889 71 868 q 69 933 76 910 q 73 940 72 936 q 77 948 75 944 q 100 948 90 951 q 122 948 110 945 q 132 954 127 951 q 142 959 137 958 q 162 965 152 962 q 180 972 172 968 q 193 982 187 977 q 206 990 199 987 q 242 990 224 993 q 277 985 260 987 z "},"¼":{"ha":1025,"x_min":47,"x_max":990,"o":"m 990 269 q 989 251 987 258 q 990 237 990 244 q 987 223 989 231 q 985 209 986 216 q 987 200 985 206 q 987 190 990 194 q 981 174 982 182 q 977 163 979 167 q 954 160 971 160 q 945 158 949 159 q 939 155 941 157 q 920 155 929 157 q 901 152 911 153 q 898 137 901 144 q 895 122 895 130 q 895 100 898 107 q 892 85 892 92 q 895 58 891 72 q 895 31 898 43 q 887 12 888 20 q 884 -1 886 4 q 868 -3 878 -4 q 852 1 859 -1 q 829 -1 836 -3 q 819 0 823 0 q 798 -3 804 -4 q 785 -4 792 -1 q 772 10 777 8 q 766 15 768 12 q 763 49 762 30 q 769 83 764 68 q 767 95 768 90 q 766 107 766 100 q 767 118 765 111 q 768 127 769 125 q 764 142 766 134 q 762 155 761 151 q 750 155 755 157 q 739 153 745 153 q 719 155 728 153 q 700 152 709 157 q 688 155 692 156 q 682 155 685 155 q 673 157 677 156 q 665 159 670 159 q 640 156 654 159 q 618 150 625 149 q 605 146 610 151 q 570 150 585 149 q 540 153 555 151 q 527 159 533 156 q 514 160 521 163 q 509 168 511 164 q 505 179 506 172 q 498 187 502 183 q 491 198 494 191 q 503 221 491 214 q 510 241 505 232 q 521 263 515 251 q 526 277 525 273 q 529 285 526 282 q 531 293 532 288 q 533 304 530 298 q 539 313 536 308 q 545 323 543 317 q 560 340 556 335 q 567 349 564 345 q 575 363 571 359 q 582 373 579 368 q 589 386 589 382 q 590 392 589 389 q 601 401 598 399 q 606 406 604 404 q 614 415 609 412 q 620 425 620 418 q 627 429 624 427 q 635 433 631 431 q 636 445 632 439 q 643 454 640 450 q 653 469 648 463 q 663 483 658 475 q 674 494 671 494 q 677 496 677 495 q 699 522 690 510 q 715 545 708 533 q 729 559 724 556 q 734 570 734 563 q 749 580 745 571 q 765 590 753 589 q 771 599 766 595 q 783 605 776 602 q 792 616 789 614 q 796 618 795 617 q 827 621 812 624 q 853 617 841 618 q 861 618 857 617 q 869 618 865 618 q 882 616 876 618 q 894 616 887 613 q 903 595 902 604 q 906 579 903 586 q 903 566 903 572 q 902 551 902 559 q 899 535 901 543 q 899 519 898 528 q 901 509 899 514 q 902 499 902 505 q 901 486 899 488 q 902 481 902 484 q 900 458 901 471 q 903 433 899 445 q 899 425 901 430 q 895 416 898 420 q 897 409 894 412 q 901 401 899 406 q 899 388 898 391 q 899 382 901 385 q 897 340 899 366 q 898 289 895 313 q 936 284 916 282 q 977 289 956 286 q 990 269 990 271 m 884 966 q 870 942 876 951 q 863 925 864 933 q 851 913 857 916 q 848 903 845 910 q 837 890 841 898 q 829 875 833 883 q 820 861 825 867 q 807 852 815 854 q 800 838 804 844 q 795 825 796 833 q 781 810 787 818 q 765 799 774 803 q 760 784 762 792 q 750 773 757 776 q 741 751 747 761 q 727 734 735 742 q 718 710 724 719 q 707 689 711 701 q 686 665 694 674 q 669 647 677 655 q 655 629 659 635 q 648 617 651 623 q 633 601 640 613 q 614 579 624 586 q 598 562 604 572 q 590 556 593 559 q 582 552 587 553 q 573 530 579 540 q 562 511 567 521 q 547 492 555 500 q 530 481 540 484 q 520 463 528 471 q 506 446 513 454 q 492 427 499 435 q 480 410 484 419 q 474 406 476 408 q 467 403 472 403 q 459 390 465 392 q 452 378 453 388 q 441 367 441 372 q 439 362 442 362 q 433 353 437 357 q 426 345 429 349 q 419 330 423 339 q 411 315 415 321 q 403 305 406 308 q 395 300 400 302 q 384 277 392 285 q 365 264 376 270 q 343 235 358 241 q 340 222 346 225 q 331 213 334 218 q 326 194 327 208 q 313 182 315 186 q 308 176 311 179 q 297 165 301 170 q 286 153 293 160 q 273 135 279 142 q 256 125 267 127 q 254 115 258 118 q 247 107 250 111 q 240 95 243 98 q 236 91 237 92 q 233 77 233 84 q 232 64 233 71 q 222 49 229 57 q 213 33 216 41 q 189 27 199 31 q 167 20 178 23 q 138 14 148 14 q 118 14 127 15 q 109 19 114 16 q 96 19 103 22 q 87 28 94 26 q 77 35 81 31 q 74 50 75 45 q 73 61 73 56 q 81 68 76 65 q 91 75 85 72 q 118 115 99 104 q 125 134 122 125 q 130 146 127 142 q 144 159 141 155 q 149 165 146 163 q 157 175 155 172 q 163 182 159 178 q 170 193 168 191 q 174 195 172 195 q 183 213 176 205 q 191 224 190 220 q 191 231 191 228 q 199 237 198 232 q 203 244 201 241 q 211 254 210 251 q 214 258 212 256 q 222 266 217 263 q 231 273 227 269 q 236 281 233 277 q 244 286 239 285 q 247 294 243 293 q 248 301 251 294 q 257 308 255 301 q 266 316 259 315 q 277 336 275 327 q 283 349 278 345 q 298 363 294 359 q 308 369 302 366 q 313 380 309 378 q 313 392 316 381 q 326 407 323 397 q 332 425 328 416 q 343 437 340 434 q 345 446 346 441 q 352 452 350 448 q 355 464 354 457 q 366 478 363 468 q 378 491 368 488 q 385 505 382 502 q 389 510 387 509 q 405 528 396 521 q 416 545 414 534 q 429 559 420 551 q 434 566 430 563 q 442 571 438 568 q 449 585 449 582 q 450 589 449 587 q 459 600 457 598 q 463 602 461 601 q 467 612 465 608 q 472 620 469 616 q 480 629 479 627 q 483 633 481 631 q 503 649 492 642 q 513 675 513 656 q 520 684 518 678 q 525 693 522 689 q 531 703 528 699 q 536 713 534 707 q 547 727 543 723 q 553 736 551 731 q 562 747 556 741 q 570 760 567 753 q 583 780 576 770 q 595 799 589 789 q 604 803 600 800 q 613 808 608 806 q 627 827 621 819 q 635 845 632 834 q 645 852 642 848 q 654 864 648 857 q 660 869 656 867 q 667 876 663 872 q 673 882 670 879 q 678 890 675 886 q 688 904 682 897 q 700 918 694 911 q 699 926 703 925 q 697 933 694 926 q 704 941 700 939 q 711 948 708 943 q 714 958 712 955 q 715 967 716 960 q 738 980 730 971 q 757 994 746 989 q 766 994 764 996 q 774 990 769 991 q 795 994 783 994 q 819 995 807 994 q 842 997 831 996 q 859 1005 852 998 q 869 1002 865 1004 q 880 1000 873 1001 q 884 966 890 981 m 304 498 q 302 460 301 479 q 302 426 302 442 q 294 414 298 419 q 285 403 289 408 q 256 399 266 406 q 231 399 247 393 q 220 395 227 396 q 209 392 214 393 q 196 388 202 389 q 186 384 190 387 q 172 391 179 388 q 160 397 165 393 q 158 424 156 415 q 160 441 160 433 q 160 450 161 445 q 159 460 159 454 q 160 475 159 467 q 161 490 161 483 q 161 498 161 495 q 160 506 160 502 q 160 519 161 517 q 159 524 159 522 q 157 549 156 534 q 157 579 159 564 q 155 597 155 591 q 155 606 155 604 q 151 618 153 613 q 149 628 149 623 q 149 648 151 643 q 151 656 148 654 q 144 673 144 669 q 142 682 144 677 q 137 706 137 696 q 136 727 137 716 q 132 737 134 732 q 127 747 129 742 q 125 783 123 764 q 121 819 127 803 q 104 823 110 825 q 85 819 98 821 q 73 822 79 819 q 60 822 66 825 q 51 834 54 829 q 49 857 47 840 q 50 867 52 864 q 49 872 49 869 q 56 886 52 882 q 57 906 56 901 q 62 914 58 911 q 77 947 61 941 q 88 947 84 948 q 100 944 92 945 q 107 944 103 943 q 117 945 111 945 q 139 945 126 945 q 163 947 152 944 q 175 953 170 948 q 191 958 180 958 q 201 963 197 960 q 213 968 206 966 q 237 982 228 975 q 263 986 245 989 q 279 958 271 975 q 278 924 288 941 q 279 908 281 917 q 278 888 278 899 q 281 872 281 878 q 278 862 279 867 q 275 853 277 857 q 275 836 274 845 q 271 822 277 827 q 275 810 274 815 q 277 799 277 806 q 277 774 275 784 q 279 758 279 765 q 280 732 278 741 q 283 715 282 723 q 284 701 283 709 q 285 686 285 692 q 284 669 282 675 q 286 659 286 663 q 283 648 286 654 q 281 637 281 643 q 284 621 282 629 q 289 602 286 613 q 290 576 292 591 q 297 548 289 560 q 296 522 294 537 q 304 498 297 506 m 776 411 q 760 395 765 400 q 754 387 755 389 q 747 375 749 380 q 743 368 746 370 q 733 354 736 357 q 727 350 730 351 q 704 321 712 327 q 691 296 701 305 q 678 273 681 288 q 723 273 703 270 q 761 274 743 277 q 770 295 772 282 q 770 320 769 308 q 774 335 774 332 q 773 340 773 338 q 774 357 773 347 q 773 374 776 368 q 773 387 774 385 q 772 392 772 389 q 775 406 776 401 q 776 411 774 410 z "},"¹":{"ha":296,"x_min":35,"x_max":250,"o":"m 243 985 q 248 963 245 974 q 239 945 250 952 q 229 916 236 925 q 224 803 222 856 q 212 697 225 750 q 215 678 216 686 q 216 655 214 670 q 217 641 216 648 q 218 625 218 633 q 217 608 216 614 q 218 600 218 602 q 216 589 217 594 q 213 576 214 583 q 214 562 213 570 q 217 545 216 553 q 216 526 217 536 q 216 507 216 517 q 219 466 217 484 q 214 433 221 448 q 193 407 206 418 q 166 406 180 404 q 136 406 152 408 q 125 404 130 406 q 117 403 121 403 q 102 404 111 401 q 99 412 99 410 q 98 420 99 415 q 96 433 95 426 q 98 448 98 441 q 96 456 98 453 q 91 463 94 460 q 90 481 94 471 q 84 506 85 492 q 83 521 83 513 q 83 534 83 529 q 83 547 83 540 q 79 559 84 553 q 82 581 81 571 q 85 601 83 590 q 84 618 83 613 q 88 631 85 624 q 87 641 85 639 q 88 646 88 643 q 87 675 84 665 q 84 693 90 685 q 92 708 91 699 q 92 728 92 718 q 96 737 92 735 q 100 746 100 739 q 96 779 99 762 q 102 802 92 795 q 104 821 100 812 q 100 836 107 829 q 88 836 94 840 q 73 837 83 833 q 64 830 66 834 q 54 825 61 826 q 44 833 47 827 q 35 845 41 838 q 40 889 38 868 q 35 933 42 910 q 39 940 38 936 q 43 948 41 944 q 66 948 56 951 q 90 948 76 945 q 98 954 94 951 q 109 959 103 958 q 127 965 117 962 q 146 972 138 968 q 159 982 153 977 q 171 990 164 987 q 208 990 189 993 q 243 985 228 987 z "},"¾":{"ha":1034,"x_min":47,"x_max":986,"o":"m 983 271 q 985 238 986 251 q 982 208 985 225 q 968 197 975 201 q 952 187 960 193 q 933 185 941 190 q 916 178 925 180 q 896 178 901 180 q 887 172 891 175 q 885 147 884 161 q 883 118 886 133 q 880 102 879 107 q 879 94 880 98 q 876 83 878 87 q 872 73 873 79 q 873 53 871 62 q 873 37 876 43 q 864 22 871 28 q 853 14 857 15 q 838 14 852 14 q 818 16 823 15 q 800 24 807 18 q 789 18 795 22 q 774 15 783 15 q 757 18 765 15 q 749 26 751 24 q 745 30 746 27 q 745 51 745 41 q 751 68 746 61 q 751 85 747 81 q 754 95 754 88 q 751 138 750 119 q 746 168 751 157 q 731 168 739 165 q 712 168 723 170 q 690 170 699 168 q 674 174 682 172 q 651 174 662 175 q 629 176 640 174 q 601 182 616 179 q 576 186 586 186 q 558 184 567 186 q 543 182 549 182 q 528 188 536 183 q 517 199 519 193 q 517 212 515 206 q 519 222 518 218 q 527 231 522 228 q 536 240 532 235 q 551 259 544 248 q 561 270 557 263 q 571 282 564 277 q 570 292 568 289 q 575 300 572 296 q 583 313 576 307 q 595 330 590 321 q 606 340 600 338 q 608 351 604 347 q 616 361 613 355 q 621 375 620 370 q 624 381 623 380 q 630 387 627 385 q 636 393 633 389 q 646 408 642 400 q 661 419 650 415 q 667 429 663 425 q 674 439 670 434 q 683 450 680 445 q 689 457 686 454 q 699 469 694 464 q 708 486 703 475 q 714 494 711 490 q 722 505 718 499 q 726 511 724 507 q 734 515 728 515 q 741 532 736 525 q 750 548 746 540 q 759 563 754 556 q 766 578 764 570 q 785 597 779 585 q 799 621 792 609 q 827 637 815 631 q 853 637 838 644 q 859 625 856 631 q 864 609 863 618 q 864 599 865 604 q 864 589 863 594 q 867 564 864 579 q 864 538 871 549 q 868 523 865 530 q 872 505 871 515 q 871 485 869 490 q 873 477 872 480 q 873 469 873 473 q 872 461 872 464 q 878 451 875 454 q 882 441 880 448 q 882 424 879 431 q 886 408 884 416 q 885 395 883 397 q 887 389 887 392 q 888 376 888 384 q 888 361 888 368 q 886 326 888 343 q 888 293 884 309 q 907 291 903 290 q 914 290 911 292 q 921 289 917 290 q 930 286 925 288 q 942 288 940 289 q 947 286 944 286 q 955 290 951 286 q 966 290 959 293 q 975 282 972 288 q 983 271 977 277 m 929 958 q 920 933 926 943 q 907 916 914 924 q 894 884 901 892 q 884 871 891 878 q 873 859 878 865 q 861 841 867 848 q 853 830 856 834 q 846 822 849 823 q 841 818 844 821 q 832 805 836 807 q 830 798 829 803 q 819 787 823 795 q 806 776 815 779 q 785 743 795 754 q 760 728 774 732 q 755 717 760 720 q 747 707 750 713 q 740 692 741 697 q 736 685 739 688 q 728 677 730 680 q 724 671 727 674 q 718 665 722 669 q 711 659 713 662 q 699 646 704 652 q 686 635 693 640 q 680 618 684 623 q 674 609 677 613 q 664 598 669 602 q 656 587 659 594 q 651 574 651 576 q 650 571 651 572 q 643 564 647 567 q 636 557 639 560 q 630 548 633 551 q 624 543 627 545 q 621 533 621 538 q 617 525 620 528 q 604 512 609 515 q 595 505 598 509 q 590 497 593 502 q 585 490 587 492 q 568 480 576 481 q 563 465 563 469 l 563 463 q 552 454 559 457 q 541 446 545 452 q 537 439 538 444 q 530 435 536 435 q 524 416 532 420 q 518 399 528 406 q 510 382 509 393 q 497 369 502 376 q 486 355 492 362 q 473 343 480 349 q 463 330 467 338 q 453 319 456 324 q 449 311 450 315 q 438 301 442 308 q 423 293 434 294 q 419 279 426 282 q 407 271 412 275 q 393 243 400 252 q 380 225 387 233 q 372 216 374 221 q 366 208 369 212 q 359 199 363 202 q 354 190 354 197 q 344 184 347 187 q 338 176 340 180 q 332 168 335 174 q 327 159 330 163 q 315 149 321 153 q 305 136 309 144 q 297 123 301 129 q 285 115 293 118 q 264 83 274 98 q 250 54 255 69 q 244 48 245 53 q 237 42 243 43 q 233 26 237 34 q 209 -7 218 -1 q 201 -3 206 -7 q 194 0 197 0 q 167 3 175 1 q 144 7 159 5 q 129 9 137 8 q 114 14 121 11 q 102 25 106 23 q 95 31 98 27 q 94 46 91 39 q 102 59 100 56 q 106 65 103 62 q 117 76 115 72 q 123 79 118 80 q 148 106 129 98 q 161 127 159 118 q 175 137 164 137 q 180 153 178 145 q 189 161 182 160 q 190 170 187 168 q 193 178 193 172 q 206 189 202 182 q 220 199 210 197 q 225 216 221 209 q 233 231 229 224 q 241 243 237 237 q 252 254 245 250 q 273 281 262 275 q 283 298 279 293 q 289 311 288 304 q 302 323 300 313 q 315 335 305 332 q 328 368 324 353 q 343 392 332 384 q 350 405 346 400 q 358 415 354 410 q 366 425 362 420 q 378 433 370 430 q 382 443 378 439 q 388 450 385 446 q 394 459 391 453 q 400 469 397 465 q 420 492 410 484 q 437 513 431 499 q 451 522 446 515 q 465 532 456 529 q 473 543 468 538 q 480 556 477 548 q 488 562 487 559 q 490 568 490 566 q 510 593 503 579 q 525 623 517 608 q 536 637 533 633 q 538 644 538 642 q 553 655 545 651 q 562 671 560 659 q 573 683 570 674 q 586 694 576 692 q 595 709 589 704 q 604 724 601 713 q 612 729 609 727 q 620 734 616 731 q 625 747 621 743 q 628 749 627 749 q 639 762 632 758 q 648 774 646 766 q 666 790 659 785 q 680 798 673 795 q 683 804 682 800 q 686 811 684 808 q 694 817 693 812 q 703 823 696 822 q 708 838 703 834 q 715 850 713 841 q 728 865 724 861 q 732 873 731 869 q 739 877 736 875 q 747 879 742 879 q 755 897 750 888 q 766 916 761 906 q 767 922 768 918 q 768 932 766 926 q 777 946 774 943 q 783 952 779 949 q 784 964 783 959 q 784 975 785 968 q 806 976 798 975 q 822 974 814 977 q 832 970 830 971 q 837 967 834 968 q 846 966 841 966 q 856 966 852 966 q 882 970 871 970 q 901 968 892 970 q 915 968 907 967 q 926 962 922 968 l 929 958 m 393 606 q 394 591 396 600 q 393 576 392 583 q 393 561 393 567 q 391 543 393 555 q 387 526 388 533 q 381 511 387 518 q 373 498 374 503 q 370 488 372 492 q 357 473 359 477 q 354 467 355 469 q 345 457 350 461 q 336 448 339 453 q 315 429 324 441 q 292 423 297 422 q 283 415 286 420 q 275 407 281 410 q 269 406 273 406 q 258 404 264 406 q 240 397 245 397 q 231 395 235 396 q 222 389 227 392 q 209 387 217 387 q 182 393 194 387 q 156 396 171 400 q 145 401 152 401 q 133 403 138 400 q 123 409 126 408 q 117 411 119 410 q 106 423 111 414 q 91 425 98 420 q 79 435 84 430 q 78 463 77 446 q 81 494 79 479 q 87 508 84 500 q 91 522 90 515 q 91 531 92 525 q 92 541 90 537 q 100 551 96 547 q 110 556 104 556 q 132 547 123 557 q 151 530 140 536 q 164 530 157 530 q 175 532 171 529 q 199 534 186 534 q 216 534 212 533 q 231 543 222 537 q 239 555 237 549 q 248 562 241 560 q 250 578 245 572 q 254 591 255 585 q 246 604 252 600 q 239 618 240 608 q 231 623 233 621 q 228 627 229 625 q 227 629 227 628 q 211 637 214 633 q 201 637 208 640 q 193 645 195 644 q 187 646 190 646 q 180 652 183 648 q 172 658 178 656 q 160 655 167 655 q 149 651 153 655 q 136 650 141 656 q 125 651 130 644 q 111 643 119 643 q 95 650 102 643 q 87 661 88 658 q 85 665 85 663 q 85 685 83 673 q 90 693 88 689 q 94 701 92 697 q 95 728 92 719 q 91 743 98 736 q 93 760 95 757 q 91 766 91 762 q 105 782 98 781 q 127 776 113 783 q 138 768 132 773 q 152 760 145 762 q 170 758 163 757 q 189 761 178 758 q 202 776 195 772 q 212 785 209 780 q 221 800 218 796 q 227 806 224 803 q 235 823 232 817 q 235 842 239 830 q 217 871 225 864 q 179 880 194 873 q 146 882 164 886 q 121 870 132 879 q 99 853 110 861 q 66 838 73 837 q 54 863 54 844 q 54 903 54 882 q 54 926 54 916 q 56 941 54 936 q 52 948 56 947 q 50 959 47 949 q 63 970 52 970 q 80 978 75 970 q 104 982 95 982 q 119 987 113 982 q 130 989 122 990 q 140 994 137 989 q 153 995 146 996 q 167 996 160 994 q 176 1000 172 997 q 186 1004 180 1002 q 207 1007 194 1006 q 228 1005 220 1008 q 238 999 232 1004 q 248 990 244 994 q 258 996 252 996 q 271 994 264 996 q 279 990 275 993 q 288 986 282 987 q 298 984 293 983 q 308 983 304 985 q 325 968 319 978 q 342 959 331 959 q 359 932 350 944 q 378 910 368 921 q 381 895 380 902 q 385 878 382 888 q 387 858 388 864 q 387 846 387 852 q 387 830 387 836 q 384 815 388 825 q 377 804 381 810 q 370 792 373 799 q 367 783 368 788 q 359 777 366 779 q 349 751 355 757 q 343 734 343 745 q 334 726 338 730 q 327 716 330 723 q 353 696 338 700 q 357 685 355 690 q 366 678 359 680 q 370 656 366 665 q 374 636 374 647 q 381 629 378 632 q 387 621 384 625 q 391 614 388 618 q 393 606 393 610 m 766 378 q 757 366 761 372 q 746 358 753 361 q 743 348 746 351 q 739 338 741 345 q 728 327 730 331 q 726 323 727 323 q 717 312 719 315 q 716 307 715 309 q 726 304 719 304 q 739 302 732 304 q 754 298 750 298 q 762 298 758 298 q 764 315 765 307 q 764 334 762 323 q 770 358 765 345 q 766 378 776 372 z "},"³":{"ha":429,"x_min":34,"x_max":382,"o":"m 380 606 q 380 591 382 600 q 380 576 378 583 q 380 561 380 567 q 377 543 380 555 q 373 526 374 533 q 366 511 372 518 q 359 498 359 503 q 357 488 358 492 q 344 473 346 477 q 340 467 342 469 q 331 457 336 461 q 323 448 326 453 q 301 429 308 441 q 278 423 283 422 q 270 415 273 420 q 262 407 267 410 q 254 406 259 406 q 244 404 250 406 q 227 397 232 397 q 217 395 221 396 q 208 389 213 392 q 194 387 203 387 q 168 393 180 387 q 141 396 156 400 q 131 401 137 401 q 119 403 125 400 q 109 409 113 408 q 103 411 106 410 q 92 423 98 414 q 77 425 83 420 q 65 435 71 430 q 64 463 64 446 q 68 494 65 479 q 73 508 71 500 q 76 522 75 515 q 76 531 77 525 q 77 541 75 537 q 86 551 81 547 q 96 556 91 556 q 109 555 103 557 q 118 547 114 552 q 126 538 122 543 q 136 530 130 533 q 150 530 142 530 q 161 532 157 529 q 184 534 172 534 q 201 534 197 533 q 211 538 208 537 q 217 543 214 540 q 226 555 224 549 q 235 562 228 560 q 237 578 232 572 q 240 591 241 585 q 233 604 239 600 q 225 618 227 608 q 218 623 220 621 q 214 627 216 625 q 213 629 213 628 q 196 637 199 633 q 187 637 193 640 q 179 645 182 644 q 174 646 176 646 q 167 652 170 648 q 159 658 164 656 q 146 655 153 655 q 134 651 138 655 q 122 650 127 656 q 111 651 117 644 q 96 643 106 643 q 80 650 87 643 q 73 661 73 658 q 72 665 72 663 q 72 685 69 673 q 75 693 73 689 q 79 701 77 697 q 80 728 77 719 q 76 743 83 736 q 78 760 80 757 q 76 766 76 762 q 91 782 83 781 q 114 776 99 783 q 124 768 118 773 q 137 760 130 762 q 156 758 148 757 q 175 761 164 758 q 188 776 182 772 q 197 785 194 780 q 207 800 203 796 q 213 806 210 803 q 222 823 218 817 q 221 842 225 830 q 203 871 212 864 q 165 880 180 873 q 132 882 151 886 q 106 870 117 879 q 84 853 96 861 q 64 840 71 844 q 53 838 58 837 q 41 863 41 844 q 41 903 41 882 q 41 926 41 916 q 42 941 41 936 q 38 948 42 947 q 37 959 34 949 q 50 970 38 970 q 66 978 61 970 q 90 982 80 982 q 106 987 99 982 q 116 989 109 990 q 126 994 123 989 q 140 995 133 996 q 153 996 146 994 q 163 1000 159 997 q 172 1004 167 1002 q 193 1007 180 1006 q 214 1005 206 1008 q 224 999 218 1004 q 235 990 231 994 q 244 996 239 996 q 256 994 250 996 q 265 990 262 993 q 274 986 269 987 q 285 984 279 983 q 294 983 290 985 q 311 968 305 978 q 328 959 317 959 q 345 932 336 944 q 363 910 353 921 q 366 895 365 902 q 370 878 368 888 q 372 858 373 864 q 372 846 372 852 q 372 830 372 836 q 369 815 373 825 q 363 804 366 810 q 357 792 359 799 q 353 783 354 788 q 346 777 353 779 q 336 751 342 757 q 330 734 330 745 q 319 726 324 730 q 312 716 315 723 q 339 696 324 700 q 344 685 342 690 q 353 678 346 680 q 357 656 353 665 q 361 636 361 647 q 366 629 363 632 q 372 621 369 625 q 376 614 373 618 q 380 606 380 610 z "},"²":{"ha":469,"x_min":35,"x_max":422,"o":"m 419 909 q 420 882 422 898 q 418 852 419 867 q 415 829 416 840 q 411 810 414 818 q 404 799 408 803 q 396 788 399 795 q 394 776 393 781 q 392 765 395 770 q 376 739 381 747 q 362 726 370 731 q 356 713 359 719 q 350 701 353 707 q 343 690 346 696 q 335 681 340 684 q 326 669 328 670 q 323 665 324 667 q 313 652 315 655 q 311 648 312 650 q 290 625 300 633 q 273 606 279 616 q 256 587 260 594 q 250 575 252 579 q 243 565 247 570 q 237 555 240 560 q 266 548 248 545 q 301 548 283 551 l 320 548 q 341 548 335 551 q 353 545 347 545 q 371 544 362 543 q 385 543 380 545 q 393 536 389 540 q 401 530 396 532 q 401 518 399 524 q 404 506 404 513 q 402 491 404 499 q 400 476 400 483 q 400 451 399 464 q 399 427 401 438 q 391 416 396 420 q 382 408 387 411 q 369 408 374 406 q 359 412 363 411 q 319 415 340 415 q 274 416 298 415 q 265 425 267 419 q 256 433 263 430 q 250 428 251 433 q 247 420 250 423 q 235 420 240 422 q 225 415 231 418 q 216 414 220 412 q 206 415 213 415 q 180 416 189 415 q 165 416 172 416 q 142 412 153 416 q 122 415 132 408 q 112 412 119 412 q 104 406 104 412 q 94 407 98 410 q 83 407 90 404 q 71 417 75 410 q 61 429 68 425 q 65 437 61 435 q 68 446 69 439 q 66 454 71 453 q 62 463 61 456 q 65 489 60 479 q 77 507 71 499 q 81 525 77 522 q 83 533 84 528 q 92 547 90 544 q 95 553 94 551 q 99 564 98 559 q 106 571 100 568 q 107 578 109 575 q 107 586 106 582 q 117 598 115 594 q 121 605 119 602 q 135 617 132 613 q 141 627 138 621 q 168 654 156 643 q 191 674 179 665 q 210 695 206 685 q 225 708 214 705 q 237 730 233 720 q 248 745 240 741 q 263 775 259 761 q 277 798 267 789 q 278 823 274 811 q 281 850 282 836 q 275 878 281 864 q 271 910 270 891 q 260 918 269 917 q 248 924 252 920 q 221 916 232 922 q 199 901 210 909 q 197 890 199 894 q 191 882 194 887 q 188 873 189 878 q 184 864 187 868 q 181 856 183 860 q 176 849 179 852 q 172 839 174 844 q 168 831 171 834 q 174 796 171 812 q 176 758 178 780 q 170 749 172 754 q 163 742 167 745 q 134 741 146 745 q 113 743 122 736 q 100 733 103 736 q 91 732 98 730 q 73 724 85 727 q 63 731 65 731 q 60 734 61 731 q 52 749 58 739 q 47 756 50 751 q 42 765 43 761 q 41 784 39 773 q 35 804 42 795 q 35 829 41 817 q 43 843 42 834 q 46 861 45 852 q 55 874 53 867 q 60 891 57 882 q 71 901 66 894 q 81 911 75 909 q 89 925 83 921 q 99 936 95 929 q 111 951 107 947 q 114 960 114 955 q 121 966 117 963 q 127 972 125 970 q 134 978 130 975 q 140 983 137 981 q 153 987 151 987 q 157 989 155 987 q 178 1002 168 996 q 208 1004 189 1009 q 214 1010 213 1005 q 217 1017 214 1015 q 225 1020 221 1016 q 233 1023 229 1024 q 248 1020 240 1021 q 264 1019 256 1019 q 282 1017 277 1019 q 293 1012 288 1015 q 308 1013 301 1010 q 324 1012 315 1015 q 340 1004 336 1005 q 347 1001 345 1002 q 359 995 354 998 q 369 989 363 991 q 389 972 384 981 q 400 960 393 964 q 401 949 400 954 q 406 939 403 945 q 413 924 408 932 q 419 909 418 916 z "},"¦":{"ha":283,"x_min":76,"x_max":214,"o":"m 206 1046 q 203 1028 209 1035 q 195 1012 197 1021 q 197 996 195 1000 q 198 989 198 991 q 198 973 197 978 q 201 966 199 968 q 201 921 197 945 q 205 900 203 910 q 206 875 208 890 q 205 867 205 872 q 205 860 205 863 q 202 840 201 846 q 203 830 203 834 q 199 816 199 819 q 199 810 199 812 q 197 798 198 803 q 197 788 197 793 q 198 779 197 784 q 199 769 199 773 q 195 747 195 754 q 189 735 194 739 q 195 662 195 696 q 198 604 194 628 q 174 587 190 594 q 164 589 167 587 q 155 591 161 591 q 127 582 138 589 q 102 571 117 575 q 94 579 99 574 q 92 591 90 585 q 87 603 87 594 q 90 617 88 612 q 85 648 87 636 q 84 671 83 661 q 85 707 87 694 q 85 732 83 719 l 85 761 q 90 780 88 770 q 91 799 91 789 q 88 813 91 806 q 85 827 85 821 q 87 838 87 834 q 88 844 87 841 q 90 848 88 846 q 90 867 88 860 q 90 883 91 875 q 87 891 90 887 q 84 901 84 895 q 83 914 83 906 q 84 932 84 922 q 88 947 85 937 q 91 967 91 956 q 88 987 88 978 q 85 997 85 993 q 84 1005 85 1001 q 79 1035 79 1024 q 76 1055 79 1046 q 83 1064 83 1062 q 88 1067 84 1066 q 108 1066 99 1072 q 121 1055 117 1061 q 132 1055 127 1058 q 142 1053 136 1053 q 159 1055 152 1053 q 174 1058 167 1058 q 184 1057 180 1058 q 191 1053 187 1055 q 199 1050 195 1051 q 206 1046 203 1048 m 214 179 q 214 164 213 168 q 214 157 214 160 q 211 126 213 142 q 209 94 209 110 q 210 76 209 84 q 210 60 212 68 q 209 50 210 54 q 206 39 208 45 q 208 20 209 26 q 206 12 206 15 q 208 -16 206 -3 q 205 -43 210 -30 q 178 -40 194 -39 q 156 -33 163 -41 q 142 -30 146 -31 q 135 -28 137 -28 q 131 -31 133 -28 q 123 -39 129 -33 l 99 -35 q 90 -9 88 -20 q 92 9 91 3 q 88 26 87 20 q 90 34 90 31 q 86 45 88 37 q 84 61 84 54 q 86 70 84 65 q 90 80 88 75 q 89 87 90 83 q 90 96 88 92 q 91 104 90 100 q 92 111 92 107 q 93 122 94 117 q 92 134 92 127 q 95 152 95 148 q 95 159 95 156 q 94 172 96 170 q 92 178 92 175 q 98 208 99 193 q 100 239 96 224 q 98 254 96 250 q 100 266 99 259 q 96 290 98 277 q 99 317 95 304 q 95 330 94 323 q 96 346 96 338 q 94 368 96 357 q 99 387 92 380 q 95 395 98 392 q 91 403 92 397 q 94 412 94 407 q 96 419 94 416 q 105 434 100 430 q 109 446 110 438 q 123 444 115 444 q 138 446 132 444 q 168 435 157 438 q 189 425 178 433 q 198 387 208 412 q 201 376 198 380 q 206 366 205 372 q 207 343 203 355 q 205 320 210 331 q 208 307 208 313 q 209 286 209 300 q 204 264 208 271 q 203 251 201 256 q 205 242 203 245 q 209 233 208 239 q 208 219 208 227 q 210 205 209 212 q 213 188 212 193 q 214 179 214 183 z "},"−":{"ha":773,"x_min":47,"x_max":726,"o":"m 726 568 q 720 532 722 547 q 712 502 719 518 q 710 463 712 483 q 693 435 708 444 q 667 439 678 433 q 642 444 655 446 q 633 450 637 446 q 625 457 628 453 q 593 454 608 454 q 564 456 579 454 q 547 454 549 456 q 541 452 544 453 q 533 450 538 452 q 525 450 528 449 q 496 448 506 448 q 467 449 486 448 q 457 450 460 452 q 452 449 454 449 q 439 452 445 450 q 426 452 434 453 q 418 450 422 452 q 408 446 414 448 q 398 447 400 445 q 393 449 396 449 q 372 444 378 446 q 361 441 366 442 q 340 441 353 442 q 320 439 327 439 q 304 441 312 439 q 290 444 297 444 q 276 444 279 442 q 270 445 273 445 q 252 446 263 444 q 229 452 240 449 q 220 448 222 453 q 210 442 217 444 q 147 439 178 433 q 85 444 117 445 q 76 456 79 452 q 73 464 73 460 q 75 476 72 471 q 80 488 79 481 q 77 511 81 500 q 75 533 73 521 q 57 547 69 541 q 53 558 58 556 q 49 568 47 560 q 56 580 53 574 q 69 585 58 586 q 79 593 75 587 q 91 600 83 598 q 110 597 102 602 q 125 586 118 591 q 160 584 145 585 q 186 594 175 583 q 212 594 201 590 q 237 600 224 598 q 257 598 247 600 q 275 595 267 597 q 284 597 281 595 q 292 598 288 598 q 307 595 298 597 q 323 595 315 594 q 342 597 334 598 q 358 597 351 597 q 368 594 362 595 q 377 594 373 593 q 389 593 384 595 q 396 591 393 591 q 405 592 400 591 q 412 593 410 593 q 426 591 419 593 q 439 589 433 589 q 450 589 445 587 q 461 590 456 590 q 473 589 469 587 q 479 590 476 590 q 490 587 484 589 q 500 585 495 586 q 512 582 510 583 q 517 581 514 581 q 539 578 528 578 q 563 579 551 579 q 584 578 578 576 q 595 581 590 579 q 633 584 616 586 q 667 575 651 582 q 699 582 680 581 q 726 568 719 583 z "},"×":{"ha":699,"x_min":49,"x_max":650,"o":"m 650 765 q 642 760 646 762 q 633 754 637 757 q 625 736 628 743 q 618 727 623 730 q 597 702 608 709 q 581 688 587 694 q 570 677 572 678 q 566 675 567 677 q 552 663 559 670 q 538 650 545 656 q 528 639 533 643 q 513 632 522 635 q 496 612 500 614 q 484 598 490 608 q 468 583 472 589 q 458 575 464 578 q 445 560 456 568 q 441 548 439 553 q 446 538 442 543 q 452 530 449 533 q 456 522 456 526 q 465 515 463 519 q 475 509 468 511 q 482 498 477 502 q 494 488 487 495 q 506 477 500 481 q 516 466 514 471 q 521 458 518 461 q 535 444 528 449 q 555 433 543 439 q 566 425 560 430 q 578 412 571 419 q 589 401 586 404 q 595 397 591 397 q 600 391 597 393 q 606 385 604 388 q 614 376 613 378 q 618 372 616 373 q 632 356 627 361 q 640 349 637 351 q 645 335 643 339 q 644 320 647 331 q 640 307 640 309 q 640 302 640 304 q 624 290 628 296 q 616 281 620 285 q 606 272 608 274 q 604 269 605 270 q 599 259 601 266 q 594 247 597 252 q 585 243 589 245 q 576 241 582 240 q 562 252 570 241 q 555 260 559 256 q 551 269 551 263 q 542 275 545 271 q 536 282 538 279 q 530 288 533 285 q 524 296 526 292 q 505 311 513 307 q 495 323 498 315 q 481 330 488 326 q 468 339 475 335 q 456 346 461 342 q 450 358 452 350 q 438 369 438 358 q 424 377 427 373 q 418 384 420 381 q 411 389 415 387 q 407 396 407 391 q 395 403 400 399 q 385 412 391 407 q 373 419 376 416 q 368 422 370 422 q 358 435 361 434 q 354 437 355 435 q 340 444 343 445 q 334 444 336 444 q 321 428 326 431 q 313 422 316 425 q 298 409 302 412 q 292 403 294 406 q 281 395 286 399 q 273 387 277 392 q 259 374 266 380 q 247 361 252 368 q 232 351 236 355 q 227 347 229 349 q 220 342 224 345 q 207 332 210 335 q 197 327 203 328 q 182 308 189 313 q 171 296 176 302 q 164 286 165 289 q 160 281 163 283 q 153 273 157 278 q 141 267 148 269 q 139 258 142 260 q 134 251 136 255 q 118 233 125 240 q 103 221 111 227 q 77 241 84 228 q 62 256 65 251 q 55 269 60 263 q 49 278 50 275 q 54 297 52 293 q 62 305 57 301 q 71 312 69 311 q 76 315 73 313 q 85 328 85 328 q 90 335 88 331 q 95 345 92 339 q 109 358 104 353 q 119 366 114 363 q 124 380 119 377 q 132 391 129 384 q 140 395 136 393 q 149 400 144 397 q 162 422 157 414 q 174 441 167 431 q 181 451 179 450 q 184 453 183 452 q 189 460 187 458 q 194 465 191 463 q 203 479 201 476 q 208 486 205 483 q 218 497 216 492 q 228 503 221 502 q 235 512 231 509 q 241 519 239 515 q 255 529 251 528 q 262 533 259 530 q 264 551 267 548 q 256 555 260 553 q 248 561 252 557 q 237 567 243 564 q 231 578 236 574 q 222 589 227 582 q 212 601 210 601 q 193 614 198 608 q 183 627 189 621 q 168 638 172 633 q 159 646 163 643 q 146 656 152 651 q 134 667 141 661 q 127 678 129 677 q 123 682 126 680 q 113 693 115 692 q 109 697 110 694 q 100 707 102 707 q 95 711 98 708 q 86 722 88 718 q 81 731 84 727 q 66 736 73 734 q 57 747 58 739 q 60 756 57 753 q 62 766 62 760 q 72 772 69 768 q 83 776 75 776 q 103 800 94 789 q 123 821 113 811 q 140 821 133 818 q 155 817 148 823 q 161 800 159 803 q 167 793 164 796 q 176 785 174 787 q 179 783 178 784 q 190 770 186 772 q 197 765 194 768 q 218 745 217 753 q 229 738 225 742 q 237 731 232 734 q 247 716 247 716 q 259 709 256 709 q 263 707 262 708 q 273 699 270 700 q 279 697 277 699 q 288 688 285 690 q 289 681 290 686 q 313 658 307 677 q 325 648 320 652 q 332 637 330 644 q 341 631 338 635 q 349 624 345 627 q 357 631 353 628 q 365 639 362 633 q 378 647 372 642 q 392 658 385 652 q 402 667 399 662 q 408 674 406 671 q 425 686 419 681 q 438 693 430 690 q 457 717 449 707 q 473 734 465 727 q 484 749 476 738 q 492 755 487 751 q 498 764 496 758 q 513 779 509 774 q 521 789 518 784 q 544 810 532 803 q 563 827 556 817 q 574 829 570 829 q 585 825 578 829 q 603 812 598 815 q 610 804 608 810 q 625 798 620 803 q 636 789 629 793 q 642 775 636 779 q 650 765 647 772 z "},"!":{"ha":358,"x_min":75,"x_max":283,"o":"m 282 954 q 280 941 282 947 q 278 928 278 935 q 277 905 277 917 q 277 884 278 892 q 275 862 275 879 q 275 831 275 845 q 273 796 277 808 q 273 769 270 784 q 273 760 273 765 q 274 746 274 754 q 273 728 271 734 q 275 716 275 723 q 273 707 275 712 q 270 697 271 703 q 271 685 270 690 q 273 675 273 680 q 268 658 271 665 q 264 639 264 651 q 267 629 267 636 q 264 614 266 621 q 261 605 263 610 q 258 594 259 600 q 259 566 256 582 q 263 533 262 551 q 264 512 263 522 q 263 488 264 502 q 262 442 262 461 q 262 406 263 423 q 258 387 262 396 q 255 368 255 378 q 257 358 255 362 q 259 347 259 354 q 260 323 262 336 q 256 296 258 309 q 256 278 255 286 q 255 263 258 270 q 248 250 254 256 q 237 239 243 244 q 225 239 231 236 q 213 241 220 241 q 206 238 208 240 q 194 237 205 236 q 186 239 190 237 q 176 241 182 241 q 166 242 171 243 q 157 243 161 241 q 149 245 153 243 q 141 250 145 248 q 130 250 134 251 q 123 252 126 250 q 112 278 114 271 q 107 296 110 285 q 111 319 110 308 q 107 345 113 331 q 110 352 109 349 q 113 359 111 355 q 111 375 110 370 q 113 382 113 380 q 113 398 111 393 q 114 406 114 403 q 111 417 113 412 q 107 429 109 422 q 109 437 109 434 q 109 444 109 441 l 109 448 q 113 477 111 467 q 115 499 115 488 q 112 517 115 509 q 114 534 109 526 q 106 556 107 543 q 108 566 106 560 q 111 578 110 571 q 109 594 111 585 q 107 612 106 604 q 114 631 110 627 q 111 641 111 637 q 110 647 111 644 q 109 651 109 650 q 110 712 109 680 q 106 772 111 745 q 101 806 103 789 q 96 837 99 823 q 102 852 99 845 q 104 867 104 860 q 101 875 103 871 q 98 882 99 879 q 96 915 94 898 q 92 945 98 932 q 95 951 94 948 q 98 962 96 955 q 96 972 98 967 q 95 983 95 977 q 98 993 96 990 q 102 1001 99 996 q 125 1004 113 1004 q 149 1010 138 1005 q 163 1013 152 1013 q 178 1012 175 1012 q 235 1008 210 1010 q 275 1000 259 1006 q 281 977 278 989 q 282 954 283 966 m 270 47 q 267 28 270 38 q 259 9 263 18 q 243 -19 252 -9 q 220 -20 232 -22 q 193 -20 208 -19 q 178 -20 186 -20 q 164 -22 171 -20 q 150 -23 157 -22 q 137 -23 142 -24 q 128 -19 132 -22 q 119 -16 125 -16 q 107 -7 111 -11 q 104 11 107 4 q 100 30 100 18 q 90 39 96 35 q 80 49 84 42 q 76 66 77 56 q 77 92 75 77 q 81 111 81 106 q 81 118 81 115 q 97 134 92 127 q 106 144 102 140 q 124 151 117 146 q 141 163 132 156 q 155 170 152 167 q 160 174 157 172 q 189 176 171 176 q 202 176 194 176 q 214 174 210 176 q 223 166 220 171 q 231 159 227 161 q 243 152 239 155 q 251 144 248 149 q 252 130 252 137 q 250 115 252 122 q 256 102 254 109 q 262 83 259 95 q 267 65 263 76 q 270 47 270 54 z "},"\"":{"ha":469,"x_min":46,"x_max":420,"o":"m 419 867 q 416 858 416 864 q 412 849 416 852 q 413 825 415 838 q 408 798 411 812 q 408 785 407 792 q 408 770 408 777 q 404 751 407 760 q 401 735 400 742 q 408 708 404 718 q 404 691 404 701 q 396 677 403 681 q 385 648 395 659 q 372 647 376 647 q 362 651 369 647 q 353 648 355 647 q 343 647 350 650 q 334 641 336 644 q 324 637 331 637 q 311 644 315 643 q 305 646 307 644 q 300 655 301 648 q 292 659 298 662 q 285 675 290 670 q 277 689 279 680 q 279 718 279 703 q 271 743 278 732 q 274 775 277 758 q 273 811 271 792 q 275 831 275 825 q 273 851 275 842 q 270 868 270 860 l 270 886 q 268 902 270 895 q 269 916 266 909 q 273 926 270 922 q 279 936 277 930 q 268 978 270 959 q 263 1012 266 997 q 273 1026 267 1021 q 283 1038 278 1031 q 293 1036 290 1039 q 298 1029 296 1032 q 307 1031 302 1035 q 316 1029 312 1028 q 338 1034 334 1035 q 350 1039 343 1032 q 415 1024 397 1047 q 420 985 420 1005 q 418 945 420 966 q 416 905 416 925 q 419 867 415 884 m 218 1006 q 217 986 217 1000 q 214 977 216 981 q 212 968 212 972 q 212 960 212 964 q 213 949 213 956 q 212 934 212 939 q 209 924 212 929 q 212 859 214 892 q 201 799 209 825 q 205 784 201 792 q 209 769 209 776 q 201 730 206 750 q 190 696 197 711 q 186 677 191 684 q 180 659 182 670 q 171 651 174 656 q 165 639 168 646 q 121 642 146 635 q 84 661 95 650 q 79 682 83 674 q 73 700 75 689 q 67 713 72 709 q 62 719 62 716 q 59 742 61 731 q 57 757 57 753 q 55 781 56 769 q 54 795 54 792 q 56 802 54 798 q 58 810 58 806 q 58 821 60 815 q 60 833 56 827 q 52 865 58 850 q 54 890 46 880 q 50 926 50 906 q 50 968 50 947 q 58 982 53 979 q 58 997 62 985 q 58 1004 60 1002 q 54 1008 56 1006 q 50 1012 52 1009 q 50 1021 47 1015 q 54 1029 49 1028 q 62 1031 58 1029 q 91 1034 73 1035 q 122 1035 109 1034 q 140 1033 126 1035 q 157 1032 155 1031 q 176 1038 164 1034 q 194 1039 187 1042 q 203 1031 199 1036 q 209 1023 206 1027 q 214 1015 212 1020 q 218 1006 216 1010 z "},"#":{"ha":1050,"x_min":49,"x_max":1019,"o":"m 1016 654 q 1010 643 1010 647 q 1009 636 1010 639 q 999 627 1006 631 q 985 621 991 624 q 977 610 981 616 q 970 601 974 605 q 938 599 951 601 q 913 604 925 597 q 890 612 905 610 q 860 609 875 613 q 848 614 852 609 q 837 613 845 618 q 822 598 826 604 q 817 585 818 593 q 810 577 814 581 q 803 570 806 574 q 798 550 803 559 q 791 530 793 541 q 789 517 789 524 q 788 505 789 511 q 768 458 784 477 q 772 444 769 450 q 776 430 776 438 q 772 416 776 422 q 766 404 769 411 q 781 401 773 396 q 799 401 789 407 q 846 406 826 406 q 879 410 865 407 q 911 409 894 410 q 935 403 928 408 q 941 403 939 399 q 951 404 944 407 q 960 370 962 395 q 949 361 954 365 q 939 351 944 357 q 935 343 936 349 q 932 334 935 338 q 925 327 929 331 q 918 320 921 323 q 910 300 917 307 q 902 281 903 293 q 872 281 887 281 q 850 275 857 282 q 823 272 836 275 q 798 265 810 269 q 773 259 785 262 q 749 258 761 256 q 731 247 742 255 q 705 239 711 251 q 692 218 699 228 q 690 207 692 212 q 686 197 689 202 q 680 174 680 182 q 677 157 680 167 q 673 135 675 142 q 671 119 670 127 q 663 107 665 115 q 656 94 662 99 q 656 77 661 83 q 654 61 651 72 q 648 49 647 56 q 647 35 650 42 q 637 21 644 27 q 633 5 631 15 q 626 1 629 3 q 623 -7 623 0 q 602 -11 612 -9 q 579 -15 593 -12 q 568 -18 574 -16 q 559 -19 563 -19 q 532 -20 543 -18 q 510 -20 521 -23 q 494 -9 502 -18 q 487 7 487 -1 q 490 17 487 14 q 495 24 492 20 q 501 37 498 31 q 505 53 505 42 q 514 88 515 66 q 522 98 519 91 q 528 109 524 104 q 530 118 530 115 q 528 126 529 121 q 539 159 533 146 q 551 182 545 171 q 557 207 555 194 q 564 232 560 220 q 572 243 567 239 q 574 263 576 248 q 563 276 571 273 q 552 286 555 279 q 522 286 532 288 q 505 285 513 285 q 475 278 491 277 q 463 284 468 279 q 453 292 458 289 q 422 289 435 293 q 397 282 408 285 q 398 272 396 274 q 397 263 400 270 q 390 249 395 254 q 378 240 385 244 q 377 228 381 232 q 370 220 373 224 q 368 210 370 214 q 368 199 366 206 q 361 185 363 193 q 357 171 359 178 q 354 154 354 163 q 351 134 354 145 q 345 121 349 127 q 339 109 342 115 q 338 102 338 106 q 338 94 339 98 q 332 82 335 87 q 330 66 328 77 q 321 50 323 58 q 319 35 320 42 q 317 20 319 27 q 308 8 315 14 q 297 4 301 3 q 286 3 293 5 q 260 -9 271 -4 q 228 -8 248 -14 q 220 -4 225 -7 q 212 0 216 -1 q 199 -1 201 -3 q 195 0 198 0 q 174 -3 182 -1 q 159 5 167 -4 q 151 21 152 15 q 151 31 151 27 q 157 63 156 50 q 160 88 157 76 q 165 109 163 99 q 168 127 168 118 q 174 141 175 133 q 176 157 174 149 q 182 167 179 163 q 186 176 184 171 q 189 204 189 190 q 191 231 189 218 q 195 238 193 235 q 198 245 197 241 q 201 253 201 250 q 206 259 202 256 q 208 278 208 266 q 215 287 212 282 q 217 301 218 292 q 208 307 216 308 q 194 307 199 305 q 168 315 180 311 q 137 315 156 319 q 127 311 133 313 q 115 307 122 309 q 106 304 111 304 q 91 304 100 305 q 81 302 84 304 q 75 302 77 301 q 67 309 68 305 q 61 316 66 312 q 55 321 58 320 q 49 328 52 323 q 58 350 53 342 q 69 368 61 357 q 76 399 71 384 q 83 411 79 406 q 84 423 87 416 q 93 431 91 426 q 100 439 95 437 q 115 439 107 438 q 129 438 122 441 q 138 435 134 438 q 144 433 141 433 q 153 437 151 435 q 159 442 156 439 q 209 445 186 445 q 256 442 232 445 q 265 458 264 448 q 274 471 266 468 q 277 503 271 486 q 289 530 282 519 q 298 570 290 553 q 309 602 305 586 q 284 612 301 612 q 256 620 267 613 q 241 616 244 616 q 236 617 239 617 l 194 617 q 186 618 190 617 q 178 618 182 620 q 166 615 172 618 q 155 613 160 612 q 134 623 141 614 q 125 642 126 632 q 127 667 122 652 q 135 680 134 677 q 137 685 136 684 q 140 690 137 686 q 141 700 144 693 q 146 707 144 704 q 152 715 149 709 q 154 725 155 719 q 159 734 153 731 q 161 747 159 742 q 161 762 163 753 q 168 767 165 764 q 175 773 171 770 q 186 775 178 774 q 197 774 194 776 q 216 762 209 772 q 231 750 222 753 q 244 749 236 751 q 255 751 252 747 q 270 745 262 749 q 286 742 278 741 q 296 744 293 742 q 304 749 298 746 q 335 745 323 746 q 362 745 347 743 q 370 752 369 746 q 373 764 370 758 q 380 774 378 770 q 382 780 381 777 q 392 808 388 799 q 407 822 396 817 q 406 843 400 831 q 414 867 412 854 q 424 896 418 882 q 434 923 430 910 q 437 947 438 936 q 427 967 437 959 q 431 976 426 972 q 439 982 437 979 q 448 996 444 987 q 460 1006 453 1004 q 488 1006 476 1013 q 510 990 500 1000 q 536 991 521 989 q 559 982 551 993 q 545 947 560 958 q 544 939 544 943 q 541 930 544 935 q 534 915 534 920 q 534 907 534 910 q 529 880 529 890 q 522 863 529 869 q 518 819 526 838 q 507 779 510 800 q 500 772 505 774 q 494 766 496 769 q 496 757 496 762 q 494 749 495 751 q 502 743 496 742 q 513 742 507 743 q 523 739 518 741 q 533 739 528 738 q 546 742 538 739 q 563 745 553 745 q 570 743 566 745 q 578 742 574 742 q 591 746 585 743 q 610 746 598 749 q 623 743 617 742 q 632 743 628 743 q 648 742 640 743 q 665 741 656 741 q 690 743 678 741 q 713 739 701 746 q 720 747 718 742 q 719 760 723 753 q 728 768 723 765 q 734 774 732 772 q 736 792 736 783 q 738 808 735 802 q 743 819 741 814 q 747 827 745 823 q 749 850 746 845 q 755 860 753 854 q 758 871 757 865 q 764 876 758 876 q 764 896 761 887 q 769 913 766 905 q 774 926 772 924 q 776 930 776 928 q 785 951 784 944 q 787 960 785 958 q 793 969 792 967 q 796 975 793 971 q 823 981 814 982 q 838 977 831 981 q 884 980 859 985 q 918 959 910 975 q 915 928 921 940 q 905 901 909 916 q 895 878 901 884 q 887 865 890 871 q 884 853 884 859 q 882 841 884 848 q 876 831 879 834 q 871 822 873 827 q 867 797 867 807 q 865 777 868 787 q 861 763 863 770 q 856 749 859 755 q 871 741 861 739 q 884 731 880 742 q 900 733 895 730 q 911 728 905 736 q 926 735 918 734 q 939 734 933 732 q 951 734 944 735 q 965 732 959 734 q 978 730 971 730 q 996 730 987 728 q 1012 726 1005 732 q 1015 699 1019 718 q 1012 662 1010 681 l 1016 654 m 669 598 q 657 600 662 600 q 646 601 652 600 q 637 604 642 602 q 628 609 633 606 q 612 612 621 612 q 594 614 604 612 q 584 608 589 612 q 572 605 579 605 q 559 608 566 605 q 547 613 553 610 q 520 606 536 606 q 488 602 505 605 q 471 600 479 601 q 456 594 463 598 q 452 578 453 586 q 449 564 452 571 q 442 546 446 552 q 435 532 438 540 q 431 507 430 519 q 430 480 433 495 q 423 459 427 469 q 420 437 419 449 q 447 437 433 433 q 476 439 461 442 q 498 446 486 448 q 524 444 511 444 q 536 445 530 444 q 548 448 541 446 q 583 447 567 445 q 612 446 600 449 q 623 456 620 454 q 629 461 627 458 q 634 471 633 465 q 642 480 635 477 q 642 501 639 492 q 648 518 646 510 q 652 528 651 524 q 655 536 654 532 q 659 559 654 551 q 665 574 663 567 q 667 586 667 581 q 669 598 666 591 z "},"$":{"ha":669,"x_min":12,"x_max":628,"o":"m 625 712 q 621 702 623 704 q 618 699 618 700 q 597 687 605 688 q 583 685 590 686 q 553 678 568 682 q 522 674 537 674 q 513 681 515 677 q 506 692 510 685 q 503 715 500 703 q 507 734 506 727 q 495 756 496 749 q 490 770 494 764 q 482 782 487 777 q 476 793 477 787 q 454 808 464 804 q 438 821 444 812 q 421 822 426 818 q 408 829 416 826 q 405 822 403 826 q 406 814 407 818 q 405 801 406 808 q 403 787 404 793 q 401 774 401 780 q 399 760 400 769 q 397 747 397 754 q 399 732 396 741 q 401 723 400 726 q 400 713 401 720 q 398 699 399 707 q 395 684 397 692 q 393 661 392 671 q 392 643 395 650 q 392 625 389 637 q 397 602 395 612 q 398 593 399 597 q 400 585 397 590 q 407 576 403 578 q 412 568 411 575 q 412 549 411 557 q 410 532 414 541 q 420 523 412 524 q 437 519 429 522 q 453 506 448 510 q 465 499 458 502 q 479 493 472 496 q 495 486 486 490 q 503 475 499 481 q 513 467 506 469 q 524 444 519 452 q 534 429 529 435 q 547 411 541 416 q 555 403 552 406 q 562 396 559 399 q 568 389 566 393 q 581 361 576 370 q 589 342 585 353 q 595 321 591 335 q 601 306 597 315 q 600 288 605 297 q 599 281 597 283 q 601 271 601 278 q 600 257 602 264 q 602 243 597 250 q 597 227 595 236 q 598 208 600 217 q 594 192 597 198 q 593 179 591 186 q 579 170 585 175 q 575 151 575 159 q 568 144 575 144 q 568 136 571 138 q 562 129 564 133 q 559 121 559 126 q 556 114 559 117 q 544 100 552 107 q 529 85 536 92 q 518 77 521 79 q 513 75 515 76 q 507 68 510 72 q 500 61 503 64 q 487 56 494 57 q 477 49 480 54 q 454 41 465 47 q 431 33 442 35 q 415 26 423 28 q 397 22 407 24 q 393 13 392 19 q 392 0 395 7 q 389 -14 389 -8 q 391 -27 389 -20 q 394 -37 392 -34 q 396 -46 396 -41 q 391 -61 396 -54 q 378 -71 385 -68 q 363 -73 372 -75 q 349 -65 354 -72 q 312 -73 331 -68 q 278 -71 293 -77 q 259 -42 271 -52 q 259 -11 262 -27 q 255 15 256 5 q 238 22 248 23 q 218 23 228 20 q 203 29 212 24 q 187 31 195 34 q 181 38 186 37 q 174 43 176 39 q 160 46 167 42 q 146 53 153 50 q 119 65 127 60 q 104 75 111 71 q 93 83 94 83 q 85 85 92 84 q 64 106 75 96 q 47 132 53 115 q 39 139 45 137 q 27 144 33 141 q 21 178 22 163 q 14 203 20 193 q 17 215 15 210 q 22 225 19 220 q 16 251 12 236 q 32 260 23 256 q 50 266 41 263 q 67 273 60 269 q 79 283 75 277 q 106 291 98 289 q 125 290 114 293 q 128 281 123 285 q 134 273 133 278 q 134 250 137 260 q 134 228 132 239 q 148 199 137 209 q 167 176 159 190 q 180 175 176 179 q 190 171 183 171 q 222 166 210 168 q 245 164 235 164 q 247 174 248 168 q 247 184 245 179 q 248 199 250 195 q 247 206 247 202 q 246 220 245 213 q 247 232 247 227 q 248 241 247 236 q 245 248 250 245 q 250 262 251 255 q 251 279 248 270 q 248 295 247 292 q 251 301 248 298 q 250 319 248 316 q 251 326 251 323 q 249 334 251 330 q 247 342 247 338 q 250 355 248 349 q 254 368 252 361 q 252 387 251 381 q 254 397 252 393 q 263 445 255 420 q 254 458 258 452 q 245 469 251 464 q 232 476 235 473 q 228 480 229 479 q 218 486 221 483 q 214 491 216 488 q 203 501 208 499 q 195 506 198 503 q 181 519 186 514 q 171 524 176 524 q 163 536 168 532 q 152 547 157 541 q 144 557 149 555 q 141 564 138 560 q 134 569 138 567 q 127 575 130 571 q 122 590 125 586 q 113 597 119 594 q 102 605 106 600 q 96 619 98 617 q 92 624 94 621 q 87 633 90 631 q 81 639 84 636 q 69 661 75 654 q 62 674 64 669 q 61 688 60 681 q 56 699 62 694 q 60 709 58 705 q 60 722 62 713 q 58 730 61 726 q 54 739 54 734 q 55 746 54 743 q 57 754 56 749 q 58 762 58 758 q 58 770 57 766 q 64 791 60 781 q 65 811 68 800 q 73 829 68 818 q 73 836 73 833 q 72 845 72 840 q 80 857 79 849 q 84 871 81 864 q 98 885 95 880 q 103 892 100 890 q 118 911 115 902 q 134 924 129 921 q 146 930 140 928 q 168 946 160 940 q 183 959 176 952 q 193 964 189 962 q 201 972 198 967 q 214 975 209 972 q 227 981 220 978 q 233 985 229 983 q 244 989 237 987 q 255 989 252 987 q 262 990 258 990 q 276 987 270 990 q 292 985 282 983 q 296 1001 298 987 q 298 1031 297 1019 q 304 1055 298 1043 q 333 1059 317 1062 q 358 1050 349 1057 q 399 1043 389 1048 q 404 1022 404 1032 q 401 1001 403 1012 q 397 979 399 990 q 400 958 396 968 q 415 949 404 949 q 433 943 426 949 q 450 947 441 947 q 458 944 456 947 q 465 940 461 941 q 486 940 476 945 q 503 928 496 935 q 526 927 514 930 q 541 913 538 924 q 549 912 547 911 q 557 910 551 913 q 568 899 560 902 q 576 883 575 895 q 597 852 589 864 q 602 826 605 841 q 612 805 610 814 q 612 792 613 796 q 620 778 618 785 q 621 758 621 770 q 621 750 621 754 q 620 743 620 746 q 625 728 623 735 q 625 712 628 722 m 301 743 q 299 751 301 749 q 296 760 297 754 q 296 766 296 762 q 297 774 297 770 q 296 785 297 779 q 296 793 294 791 q 298 813 296 804 q 294 829 301 822 q 283 830 290 831 q 274 831 277 829 q 260 821 269 825 q 247 812 252 817 q 237 802 239 807 q 228 795 235 798 q 222 772 227 781 q 218 751 218 762 q 221 744 218 747 q 224 736 224 741 q 226 711 224 719 q 225 696 228 703 q 231 687 231 693 q 233 677 231 681 q 241 668 236 673 q 250 658 245 663 q 258 642 256 648 q 266 633 259 636 q 273 631 270 631 q 282 629 277 631 q 288 640 285 635 q 289 655 292 646 q 296 693 293 678 q 297 728 300 708 q 300 735 297 734 q 301 743 304 736 m 452 290 q 447 304 450 298 q 439 315 444 309 q 433 326 435 320 q 431 343 430 332 q 424 353 427 349 q 415 362 420 358 q 404 372 410 368 q 389 374 399 377 q 385 351 384 358 q 385 332 385 343 q 384 323 385 328 q 382 313 382 319 q 384 302 382 308 q 387 293 385 297 q 387 272 388 282 q 388 254 387 262 q 390 241 388 247 q 392 232 392 235 q 385 211 387 217 q 384 201 384 205 q 383 186 382 193 q 391 174 384 180 q 408 183 401 174 q 422 198 415 193 q 431 208 425 202 q 439 217 437 213 q 442 224 442 220 q 445 232 442 229 q 451 269 448 258 q 452 290 454 279 z "},"%":{"ha":853,"x_min":41,"x_max":804,"o":"m 380 837 q 377 827 380 831 q 374 818 374 823 q 374 801 373 811 q 373 783 376 791 q 365 751 370 765 q 355 734 357 739 q 353 726 354 728 q 343 713 349 719 q 332 705 338 708 q 324 687 326 694 q 317 675 323 680 q 311 669 315 671 q 304 662 307 666 q 298 656 301 659 q 292 650 294 654 q 274 644 281 650 q 256 642 267 639 q 248 637 252 640 q 240 633 244 635 q 212 631 225 628 q 181 633 197 633 q 156 635 165 633 q 140 641 146 637 q 125 644 133 644 q 102 662 115 656 q 94 675 99 671 q 81 684 88 680 q 73 701 79 693 q 62 715 68 708 q 54 732 57 723 q 54 754 52 741 q 51 762 56 761 q 43 766 46 762 q 43 814 45 793 q 49 853 41 834 q 67 881 60 869 q 77 905 75 892 l 94 917 q 100 923 96 920 q 106 929 103 926 q 113 930 109 930 q 122 932 118 930 q 142 945 138 939 q 153 954 145 951 q 174 959 161 959 q 199 957 186 959 q 222 951 212 955 q 240 945 233 948 q 260 951 250 949 q 278 959 271 952 q 300 964 293 954 q 319 958 315 962 q 327 949 324 955 q 340 934 334 943 q 353 916 346 925 q 355 909 354 913 q 358 901 355 905 q 365 887 361 894 q 372 873 369 880 q 376 863 376 867 q 378 848 377 859 l 380 837 m 804 971 q 799 947 804 956 q 787 929 793 939 q 781 911 784 917 q 776 899 779 905 q 767 886 773 891 q 757 872 761 880 q 746 856 750 861 q 739 845 742 850 q 733 836 736 837 q 728 831 730 834 q 722 819 726 821 q 720 812 718 817 q 709 801 712 808 q 697 791 705 793 q 678 757 686 768 q 655 742 670 746 q 651 732 655 735 q 644 722 647 728 q 638 707 639 711 q 635 700 637 703 q 627 690 628 693 q 624 686 627 688 q 618 680 621 684 q 613 674 616 677 q 601 661 606 667 q 589 650 595 655 q 584 631 586 636 q 579 624 582 627 q 571 614 575 618 q 564 601 567 610 q 560 588 560 590 q 559 585 560 586 q 552 578 556 582 q 545 571 548 574 q 539 562 543 564 q 533 557 536 560 q 532 547 532 553 q 529 538 532 541 q 517 526 522 529 q 510 518 513 522 q 505 511 507 515 q 500 505 503 507 q 484 495 494 498 q 480 480 480 483 q 479 476 480 477 q 470 468 476 471 q 460 461 464 465 q 452 439 454 445 q 446 430 449 433 q 441 413 450 419 q 433 396 431 407 q 422 384 426 391 q 412 369 418 377 q 401 357 407 362 q 392 343 395 353 q 383 334 385 338 q 380 326 381 330 q 368 315 372 323 q 355 308 365 308 q 352 292 358 296 q 340 286 346 289 q 329 258 335 269 q 316 239 323 247 q 311 231 313 235 q 305 221 308 227 q 298 215 302 218 q 294 206 294 212 q 286 199 289 203 q 279 191 282 195 q 275 182 277 189 q 270 174 273 176 q 260 163 266 167 q 251 152 255 159 q 243 138 247 145 q 232 129 240 132 q 215 98 222 111 q 203 68 208 84 q 196 62 197 66 q 191 57 195 58 q 190 48 190 53 q 189 41 190 43 q 177 18 182 24 q 165 8 172 11 q 146 12 152 14 q 138 12 141 11 q 122 18 129 15 q 102 20 115 20 q 86 24 95 23 q 71 27 77 24 q 56 40 61 38 q 49 45 52 42 q 46 60 46 50 q 53 73 52 69 q 57 79 54 77 q 67 90 66 85 q 75 94 68 95 q 96 119 79 114 q 107 142 106 132 q 119 152 109 152 q 123 166 122 159 q 132 176 125 174 q 133 185 130 183 q 136 191 136 187 q 147 203 144 195 q 159 214 151 212 q 164 231 160 224 q 171 244 168 237 q 178 258 175 251 q 187 269 180 264 q 195 286 193 279 q 205 294 198 292 q 215 312 212 307 q 220 326 218 317 q 233 337 231 328 q 244 349 235 346 q 254 382 251 366 q 267 406 256 397 q 273 418 269 414 q 281 430 277 423 q 288 440 285 435 q 297 448 290 445 q 300 456 297 453 q 307 464 304 460 q 312 473 309 467 q 317 484 315 479 q 336 507 326 499 q 350 526 347 514 q 363 536 358 529 q 378 545 368 543 q 385 558 381 553 q 391 571 388 563 q 415 606 408 590 q 429 637 422 623 q 439 652 437 648 q 442 658 442 655 q 454 669 448 665 q 460 685 460 674 q 472 696 469 688 q 483 709 475 705 q 492 723 486 718 q 500 738 498 728 q 507 743 503 741 q 514 747 510 745 q 519 760 517 758 q 521 764 521 762 q 532 776 525 772 q 540 789 538 780 q 557 804 551 800 q 570 811 563 808 q 581 829 579 823 q 590 837 583 836 q 593 852 587 848 q 600 864 598 856 q 611 879 608 875 q 616 887 614 883 q 635 911 628 902 q 646 930 642 920 q 646 937 647 933 q 646 945 644 940 q 656 967 655 967 q 658 978 656 974 q 658 989 659 982 q 680 989 671 989 q 697 987 688 990 q 720 981 712 982 q 731 979 727 979 q 757 983 746 983 q 774 982 768 983 q 790 982 783 982 q 802 975 798 982 l 804 971 m 796 252 q 793 222 793 241 q 791 186 793 203 q 787 164 791 172 q 780 146 784 153 q 766 134 776 138 q 758 120 762 121 q 750 119 753 119 q 739 96 749 102 q 724 75 728 90 q 697 61 709 68 q 671 47 685 54 q 646 46 654 47 q 632 45 639 45 q 620 44 624 46 q 612 41 616 42 q 594 43 602 43 q 579 43 586 42 q 562 50 570 46 q 543 52 553 54 q 528 61 532 58 q 518 62 524 64 q 495 77 513 73 q 477 92 488 91 q 467 114 477 107 q 453 133 456 121 q 452 142 452 137 q 453 153 453 148 q 450 168 452 160 q 450 187 448 176 q 445 223 445 209 q 448 244 445 237 q 471 278 458 263 q 495 312 484 293 q 511 321 509 319 q 518 326 515 324 q 524 331 521 328 q 542 341 534 338 q 552 349 549 345 q 565 352 560 349 q 574 359 570 355 q 592 363 586 358 q 612 368 598 369 q 635 375 623 373 q 663 372 648 377 q 701 370 686 368 q 728 370 715 372 q 737 368 734 370 q 746 368 741 365 q 753 357 749 361 q 761 347 757 354 q 777 335 766 342 q 791 317 787 328 q 793 302 792 307 q 796 296 795 298 q 796 252 800 273 m 273 803 q 264 813 266 806 q 256 825 263 821 q 240 829 245 826 q 228 836 235 833 q 195 838 214 842 q 172 823 176 834 q 172 812 170 817 q 174 804 174 808 q 179 785 176 792 q 186 768 182 777 q 191 755 189 761 q 197 747 194 749 q 213 740 203 743 q 229 734 222 736 q 250 743 239 739 q 267 753 260 746 q 269 779 269 766 q 273 803 270 792 m 680 216 q 671 227 677 222 q 661 237 666 231 q 645 243 652 240 q 635 254 637 245 q 616 250 624 251 q 601 247 608 250 q 583 236 589 240 q 576 225 578 232 q 579 204 576 220 q 582 187 582 189 q 591 178 590 180 q 594 175 593 176 q 606 174 600 174 q 617 175 612 175 q 625 170 623 174 q 633 167 627 167 q 647 175 642 170 q 663 180 652 180 q 673 197 669 189 q 680 216 677 205 z "},"&":{"ha":948,"x_min":47,"x_max":907,"o":"m 907 491 q 905 472 905 481 q 902 452 905 463 q 895 439 895 441 q 892 435 894 437 q 888 425 887 429 q 887 419 888 422 q 883 410 886 416 q 879 399 880 404 q 875 361 875 380 q 860 330 875 342 q 859 317 863 320 q 853 308 856 315 q 846 292 850 297 q 842 281 841 288 q 830 266 833 270 q 827 255 827 262 q 819 245 821 252 q 812 235 817 239 q 805 226 810 229 q 798 216 800 222 q 791 211 795 213 q 787 205 788 209 q 791 190 785 194 q 798 179 796 186 q 810 168 800 171 q 811 159 807 163 q 818 153 815 156 q 822 146 821 151 q 826 138 823 141 q 834 134 829 136 q 845 127 840 132 q 855 118 852 122 q 861 109 859 114 q 867 98 864 106 q 868 80 869 91 q 878 71 872 75 q 888 61 884 68 q 876 22 890 35 q 849 18 863 22 q 841 14 845 16 q 833 12 837 12 q 823 12 827 11 q 812 15 819 14 q 799 14 802 12 q 795 15 796 15 q 768 15 780 15 q 742 18 757 15 q 730 27 736 23 q 713 33 724 31 q 706 43 708 37 q 693 47 704 49 q 687 60 697 54 q 673 65 677 65 q 654 54 661 65 q 636 34 647 42 q 616 20 625 27 q 600 8 608 14 q 590 3 595 5 q 581 -3 585 1 q 569 -7 578 -5 q 555 -9 560 -8 q 547 -14 549 -12 q 540 -19 544 -16 q 515 -28 525 -22 q 488 -37 506 -35 q 479 -41 483 -38 q 469 -46 476 -45 q 454 -47 463 -49 q 438 -47 445 -45 q 427 -53 430 -50 q 418 -58 423 -56 q 407 -57 412 -57 q 399 -57 401 -57 q 385 -56 392 -58 q 372 -53 378 -53 q 353 -54 363 -52 q 335 -52 342 -57 q 315 -48 328 -47 q 296 -42 302 -49 q 287 -43 289 -45 q 277 -42 285 -42 q 269 -38 271 -41 q 262 -34 266 -35 q 254 -35 256 -37 q 244 -35 251 -34 q 237 -31 241 -33 q 229 -23 232 -28 q 212 -22 218 -28 q 193 -16 206 -15 q 186 -9 190 -12 q 174 -5 182 -5 q 161 14 172 5 q 155 18 159 16 q 148 23 151 20 q 141 30 144 26 q 136 37 138 34 q 130 42 133 39 q 127 50 126 45 q 114 59 119 53 q 100 69 109 65 q 88 94 98 87 q 80 111 84 107 q 73 119 76 115 q 67 142 71 132 q 71 159 64 152 q 64 180 64 167 q 58 201 65 194 q 58 227 61 217 q 49 247 54 237 q 49 273 50 260 q 50 298 47 286 q 55 319 52 307 q 52 343 58 332 q 56 357 57 350 q 58 370 56 363 q 66 389 65 384 q 69 396 68 393 q 74 409 72 403 q 73 422 76 415 q 84 439 83 429 q 92 460 85 450 q 102 470 96 467 q 111 479 109 473 q 115 488 114 483 q 118 499 115 492 q 127 513 125 510 q 132 519 129 515 q 138 524 134 522 q 148 530 142 526 q 157 538 153 534 q 170 544 160 541 q 178 555 174 551 q 190 562 182 560 q 212 584 201 575 q 232 597 224 593 q 247 602 239 600 q 262 610 255 604 q 255 618 262 617 q 245 623 248 618 q 240 640 244 633 q 232 652 236 646 q 229 677 235 669 q 216 692 222 685 q 214 699 214 696 q 214 708 213 703 q 210 718 212 713 q 206 730 209 723 q 206 742 203 736 q 209 754 209 747 q 205 770 209 762 q 203 789 201 779 q 205 798 203 795 q 208 806 206 802 q 210 817 209 815 q 212 821 212 818 q 212 827 213 823 q 213 836 212 831 q 218 871 218 859 q 222 895 218 884 q 231 909 225 903 q 237 924 236 914 q 252 937 245 929 q 264 952 258 944 q 275 965 271 963 q 279 967 278 967 q 297 985 288 974 q 309 988 305 985 q 317 997 313 991 q 353 1008 339 1001 q 376 1017 368 1016 q 392 1023 385 1017 l 410 1023 q 418 1026 415 1024 q 426 1031 420 1028 q 438 1033 431 1034 q 450 1035 445 1032 q 458 1040 454 1036 q 468 1040 463 1043 q 491 1046 481 1044 q 509 1047 500 1047 q 524 1047 517 1047 q 543 1047 532 1047 q 558 1039 553 1040 q 564 1036 563 1038 q 574 1027 571 1029 q 581 1021 578 1024 q 588 1018 583 1019 q 595 1015 593 1017 q 605 1003 601 1009 q 617 996 609 997 q 625 985 620 990 q 637 981 629 981 q 645 970 640 974 q 655 964 650 967 q 660 949 654 954 q 661 937 666 944 q 666 930 666 936 q 670 920 666 925 q 676 899 674 913 q 681 872 678 884 q 686 850 684 865 q 682 823 688 834 q 679 814 680 818 q 680 802 678 810 q 672 774 673 783 q 669 754 671 765 q 661 739 666 747 q 654 722 656 731 q 646 707 650 711 q 643 700 643 703 q 640 689 640 693 q 637 678 640 685 q 625 660 629 666 q 616 650 620 654 q 614 635 617 642 q 612 621 612 629 q 586 589 594 608 q 578 586 582 586 q 571 583 575 586 q 562 575 566 581 q 552 567 557 570 q 532 561 543 562 q 515 551 522 560 q 522 526 518 536 q 527 515 528 519 q 529 507 526 510 q 543 486 534 495 q 552 461 552 476 q 571 437 563 450 q 587 408 579 423 q 599 394 595 403 q 610 378 602 385 q 612 370 609 372 q 612 362 614 369 q 640 329 625 346 q 671 297 655 312 q 680 301 677 297 q 690 302 682 305 q 692 312 692 309 q 694 321 692 315 q 700 336 699 330 q 704 349 701 343 q 709 356 705 353 q 715 362 712 359 q 718 372 715 369 q 724 378 722 374 q 723 392 720 385 q 730 403 726 399 q 730 425 730 418 q 736 442 730 433 q 734 450 738 449 q 734 457 731 450 q 741 481 738 469 q 742 509 745 492 q 758 522 751 517 q 776 525 764 528 q 798 520 789 519 q 806 514 806 521 q 827 517 817 515 q 845 519 837 518 q 907 491 888 511 m 530 784 q 532 819 533 799 q 528 849 530 838 q 523 860 525 856 q 518 869 521 864 q 504 878 510 880 q 491 879 498 876 q 471 884 484 886 q 448 884 458 882 q 434 874 442 878 q 420 868 426 871 q 413 861 416 865 q 404 857 410 857 q 397 848 397 852 q 395 841 396 844 q 382 786 380 812 q 387 735 384 760 q 408 705 397 720 q 441 682 419 689 q 449 689 446 685 q 454 697 452 693 q 473 715 468 708 q 484 726 477 723 q 496 740 495 734 q 502 747 498 746 q 509 749 505 750 q 517 751 514 749 q 524 766 524 761 q 526 774 524 772 l 530 784 m 560 155 q 556 168 560 163 q 552 182 552 172 q 544 187 547 183 q 538 194 541 191 q 534 210 538 205 q 522 220 529 216 q 519 228 519 222 q 517 239 518 233 q 504 249 506 245 q 502 255 502 252 q 471 293 479 270 q 442 319 454 304 q 429 358 430 334 q 415 389 412 363 q 406 398 412 396 q 397 407 400 400 q 395 415 399 412 q 391 422 392 418 q 383 437 385 433 q 382 448 381 442 q 368 468 372 456 q 353 487 363 480 q 351 497 355 495 q 345 505 346 499 q 328 499 334 502 q 313 496 323 496 q 304 485 311 488 q 292 477 297 481 q 286 469 289 475 q 279 461 282 464 q 262 446 264 450 q 258 439 259 444 q 254 430 256 435 q 247 425 251 427 q 245 416 243 422 q 238 412 240 415 q 232 406 236 408 q 231 395 233 400 q 225 385 228 391 q 226 378 225 382 q 225 369 227 373 q 221 329 218 346 q 217 298 224 312 q 220 279 220 289 q 221 263 220 269 q 220 249 221 252 q 218 243 218 245 q 222 227 222 232 q 222 220 221 222 q 225 212 222 216 q 224 201 228 208 q 237 172 233 190 q 252 152 250 163 q 261 144 258 149 q 267 136 264 140 q 275 128 271 133 q 282 121 279 123 q 290 117 285 118 q 297 114 294 117 q 319 94 312 100 q 334 83 327 88 q 345 81 342 80 q 354 80 349 83 q 353 72 354 76 q 355 65 353 68 q 365 73 362 68 q 374 80 368 77 q 408 79 392 84 q 431 87 419 84 q 453 96 442 91 q 461 98 458 99 q 471 96 464 96 q 486 109 477 104 q 503 118 494 113 q 522 134 514 125 q 540 151 530 144 q 560 155 552 151 z "},"'":{"ha":255,"x_min":49,"x_max":206,"o":"m 206 867 q 202 858 202 864 q 197 849 202 852 q 197 825 199 838 q 194 798 195 812 q 193 785 193 792 q 193 770 194 777 q 189 751 193 760 q 186 735 186 742 q 189 721 187 727 q 193 708 190 715 q 189 691 190 701 q 182 677 189 681 q 171 648 180 659 q 159 647 161 647 q 149 651 156 647 q 138 648 141 647 q 129 647 136 650 q 119 641 122 644 q 109 637 115 637 q 98 644 102 643 q 91 646 94 644 q 85 655 87 648 q 77 659 84 662 q 71 675 76 670 q 62 689 65 680 q 64 718 65 703 q 57 743 64 732 q 59 775 62 758 q 58 811 56 792 q 60 821 58 817 q 61 831 61 826 q 58 851 61 842 q 54 868 56 860 q 55 878 54 873 q 56 886 56 882 q 53 902 54 895 q 54 916 52 909 q 58 926 56 922 q 65 936 61 930 q 54 978 56 959 q 49 1012 52 997 q 58 1026 52 1021 q 69 1038 64 1031 q 79 1036 76 1039 q 84 1029 81 1032 q 94 1031 90 1035 q 103 1029 98 1028 q 123 1034 118 1035 q 136 1039 129 1032 q 201 1024 183 1047 q 206 985 206 1005 q 205 945 206 966 q 203 905 203 925 q 206 867 202 884 z "},"(":{"ha":471,"x_min":47,"x_max":464,"o":"m 464 1055 q 463 1046 464 1050 q 461 1036 463 1042 q 463 1024 461 1029 q 463 1012 464 1019 q 458 996 458 1001 q 454 987 457 990 q 438 987 446 986 q 417 985 426 991 q 404 983 408 978 q 397 975 400 977 q 392 970 395 972 q 378 958 384 966 q 365 945 372 951 q 352 940 358 941 q 340 933 346 939 q 334 927 336 930 q 330 921 332 924 q 323 916 327 918 q 316 910 319 913 q 304 897 309 905 q 293 887 300 890 q 284 871 289 879 q 275 856 279 863 q 266 839 270 848 q 252 826 262 830 q 249 806 252 814 q 244 787 245 799 q 234 766 236 772 q 229 753 232 760 q 220 729 222 736 q 214 715 217 722 q 210 704 212 709 q 205 692 208 699 q 195 672 198 680 q 190 650 193 665 q 184 614 187 633 q 183 586 180 595 q 181 568 180 575 q 180 556 182 562 q 178 548 180 552 q 176 540 176 544 q 174 496 172 517 q 179 453 176 475 q 178 418 179 435 q 179 391 176 401 q 183 380 180 385 q 187 369 186 376 q 189 356 190 362 q 191 343 189 350 q 206 294 199 302 q 214 283 209 288 q 221 273 218 278 q 228 259 225 266 q 233 245 231 252 q 243 229 241 235 q 247 221 245 224 q 256 210 251 214 q 264 198 260 205 q 269 184 269 193 q 273 168 270 175 q 310 136 292 156 q 343 99 328 117 q 376 87 359 96 q 406 73 393 79 l 423 75 q 441 76 431 77 q 447 56 445 61 q 449 46 449 52 q 449 32 450 39 q 448 18 448 24 q 449 5 448 11 q 450 -5 450 0 q 448 -41 449 -24 q 442 -69 446 -57 l 408 -80 l 384 -76 q 339 -56 351 -73 q 315 -51 323 -52 q 300 -43 307 -50 q 290 -35 294 -37 q 283 -30 286 -33 q 274 -20 277 -22 q 270 -15 271 -18 q 260 -7 266 -9 q 251 -1 255 -5 q 229 15 240 0 q 216 30 224 22 q 205 49 208 38 q 191 58 197 52 q 180 72 184 65 q 166 96 171 87 q 156 111 161 104 q 155 127 155 114 q 146 137 152 133 q 137 146 141 141 q 134 155 136 151 q 132 163 133 159 q 121 177 125 170 q 114 194 118 184 q 102 220 104 205 q 88 243 99 236 q 84 267 91 258 q 73 286 77 275 q 71 304 71 296 q 68 324 71 313 q 65 336 68 330 q 62 349 62 342 q 62 366 64 359 q 60 378 60 372 q 58 391 58 385 q 57 404 58 397 q 56 416 57 411 q 54 429 54 422 q 54 442 53 435 q 50 453 56 449 q 52 463 50 458 q 53 473 53 468 q 51 481 53 477 q 49 490 49 484 q 52 518 50 509 q 50 540 53 528 q 49 559 47 548 q 50 581 50 570 q 50 588 52 585 q 49 597 49 591 q 50 610 49 602 q 53 624 50 617 q 56 635 54 631 q 60 646 58 639 q 60 653 61 650 q 60 662 58 656 q 71 698 62 677 q 79 724 79 719 q 90 757 80 736 q 94 773 92 764 q 99 791 96 783 q 112 821 110 808 q 118 844 114 833 q 131 873 125 859 q 149 898 137 888 q 157 916 152 909 q 164 933 161 924 q 175 954 171 948 q 182 963 179 959 q 187 970 184 967 q 191 977 190 974 q 194 984 194 979 q 197 991 194 989 q 219 1010 213 1002 q 229 1027 225 1019 q 243 1035 236 1029 q 255 1048 251 1040 q 268 1055 264 1048 q 281 1059 271 1062 q 287 1066 283 1063 q 294 1072 290 1069 q 300 1077 297 1076 q 307 1081 304 1078 q 321 1088 317 1081 q 334 1099 324 1096 q 349 1103 340 1103 q 366 1111 358 1104 q 386 1109 378 1107 q 400 1118 393 1112 q 416 1116 408 1115 q 431 1119 425 1116 l 456 1108 q 462 1084 460 1097 q 464 1055 464 1070 z "},")":{"ha":471,"x_min":7,"x_max":423,"o":"m 422 442 q 418 415 422 427 q 414 404 416 408 q 411 392 412 399 q 411 385 410 389 q 411 374 412 381 q 400 340 408 361 q 392 315 392 320 q 388 298 391 307 q 382 282 385 290 q 378 264 380 274 q 372 248 376 255 q 359 217 361 229 q 353 194 357 205 q 340 164 346 179 q 323 141 334 149 q 315 121 320 129 q 307 104 309 114 q 295 85 298 90 q 289 75 292 80 q 283 67 286 71 q 279 61 281 64 q 277 54 277 58 q 274 46 277 49 q 251 27 258 35 q 241 11 244 19 q 227 3 235 8 q 216 -11 220 -1 q 204 -17 208 -9 q 190 -22 201 -24 q 176 -33 183 -31 q 170 -38 174 -37 q 164 -43 167 -39 q 151 -50 153 -42 q 137 -61 148 -58 q 121 -65 130 -64 q 104 -73 113 -66 q 85 -72 94 -69 q 71 -79 77 -75 q 54 -77 62 -76 q 39 -80 46 -79 l 15 -69 q 9 -45 11 -60 q 7 -16 7 -31 q 9 1 7 -9 q 8 14 9 8 q 8 24 7 19 q 9 33 8 30 q 14 41 11 35 q 24 51 20 50 q 34 50 27 52 q 54 54 45 46 q 66 56 62 61 q 73 64 71 62 q 79 68 76 65 q 94 79 88 73 q 106 92 99 85 q 119 98 113 96 q 130 104 125 100 q 136 111 134 107 q 141 117 138 114 q 149 123 145 121 q 155 127 152 125 q 166 142 161 134 q 178 152 171 149 q 186 168 182 160 q 195 182 191 175 q 206 199 202 190 q 218 212 210 208 q 222 232 218 224 q 227 251 225 240 q 237 272 235 266 q 241 285 239 278 q 251 309 248 301 q 256 323 254 316 q 262 334 260 328 q 267 346 264 339 q 275 366 273 358 q 281 389 278 374 q 286 423 283 404 q 288 453 289 442 q 290 470 290 464 q 290 481 289 476 q 292 489 290 486 q 294 498 294 492 q 296 542 298 521 q 292 586 294 563 q 293 620 292 604 q 292 647 294 636 q 288 657 290 652 q 283 669 285 662 q 281 682 281 675 q 279 696 282 689 q 272 726 275 713 q 266 745 269 738 q 258 755 263 751 q 250 765 252 760 q 243 779 245 772 q 237 793 240 787 q 227 809 229 804 q 224 817 225 814 q 215 827 220 823 q 208 838 210 831 q 202 854 202 845 q 198 869 202 863 q 161 901 179 882 q 127 939 142 921 q 94 950 111 941 q 65 966 77 959 l 47 963 q 31 963 39 960 q 24 983 26 978 q 22 991 22 987 q 22 1006 20 998 q 23 1021 23 1013 q 22 1032 23 1027 q 20 1043 20 1038 q 22 1078 20 1061 q 30 1107 24 1096 l 62 1119 l 88 1114 q 132 1095 117 1114 q 156 1088 148 1089 q 171 1081 164 1088 q 180 1072 176 1074 q 187 1066 184 1070 q 197 1057 194 1059 q 201 1053 199 1055 q 211 1046 206 1048 q 220 1039 216 1043 q 231 1034 227 1039 q 241 1023 236 1029 q 256 1008 247 1016 q 267 989 264 1000 q 280 979 274 986 q 290 966 286 972 q 304 943 300 952 q 315 926 309 933 q 316 920 316 924 q 316 911 316 916 q 325 901 320 906 q 334 891 330 897 q 336 883 335 887 q 339 875 338 879 q 349 861 346 868 q 357 844 353 853 q 369 818 366 834 q 384 795 372 802 q 387 771 381 780 q 397 751 393 762 q 400 734 400 743 q 403 713 400 724 q 406 702 403 708 q 408 689 408 696 q 409 672 407 678 q 411 659 411 666 q 412 646 412 652 q 414 633 412 640 q 415 622 414 627 q 416 610 416 617 q 416 597 418 604 q 420 585 415 590 q 419 574 420 579 q 418 564 418 570 q 420 557 418 560 q 422 547 422 553 q 419 519 420 529 q 420 498 418 510 q 422 480 423 491 q 420 458 420 469 q 420 450 419 454 q 422 442 422 446 z "},"*":{"ha":726,"x_min":33,"x_max":677,"o":"m 677 865 q 667 852 675 857 q 651 848 659 848 q 618 825 635 837 q 585 803 601 814 q 578 796 582 799 q 574 788 575 793 q 564 779 564 781 q 562 776 563 776 q 551 768 555 772 q 543 762 547 764 q 530 746 537 751 q 518 730 522 741 q 508 720 511 727 q 498 711 505 713 q 492 701 499 703 q 486 693 486 700 q 478 689 480 692 q 471 686 476 686 q 460 673 467 678 q 448 661 453 669 q 437 656 441 659 q 427 652 434 654 q 442 637 434 644 q 457 623 450 631 q 469 618 468 620 q 471 616 471 617 q 489 606 481 610 q 499 594 496 601 q 514 589 509 593 q 529 585 519 586 q 537 575 533 579 q 552 568 541 571 q 564 564 562 566 q 570 562 567 563 q 583 556 581 557 q 585 553 585 555 q 604 543 597 545 q 613 536 610 540 q 620 536 616 537 q 628 536 624 536 q 636 530 631 532 q 644 522 642 529 q 659 511 655 515 q 663 500 663 507 q 654 486 656 490 q 651 477 652 481 q 646 450 646 460 q 643 431 646 441 q 627 413 635 420 q 612 418 618 406 q 592 424 598 422 q 587 430 586 426 q 553 450 566 431 q 537 457 545 452 q 525 463 529 463 q 518 467 521 464 q 507 473 514 469 q 495 480 500 476 q 475 487 483 486 q 467 495 468 488 q 450 505 456 502 q 442 514 445 509 q 416 534 427 522 q 392 556 406 547 q 388 546 388 553 q 392 536 388 538 q 391 524 389 530 q 393 513 393 518 q 393 490 392 496 q 389 477 395 483 q 393 455 395 467 q 392 427 391 444 l 392 393 q 392 385 393 389 q 391 377 391 381 q 396 354 391 361 q 397 344 396 349 q 400 334 397 339 q 406 315 403 319 q 412 308 410 312 q 412 296 411 301 q 410 285 412 290 q 389 271 392 271 q 381 271 385 270 q 370 273 377 273 q 346 269 347 269 q 318 264 327 263 q 302 269 309 266 q 298 287 300 277 q 292 304 297 297 q 294 323 296 311 q 297 339 292 335 q 296 347 294 343 q 298 355 297 351 q 300 382 300 369 q 300 408 300 396 q 300 418 298 412 q 301 427 301 423 q 300 446 300 442 q 301 454 300 450 q 307 472 307 469 q 304 481 307 477 q 301 490 302 486 q 300 511 304 503 q 297 525 297 519 q 296 547 296 540 q 296 557 296 553 q 287 557 290 560 q 279 552 283 555 q 267 543 271 547 q 258 537 262 540 q 252 530 255 534 q 247 524 250 526 q 238 519 243 521 q 231 514 233 517 q 224 508 227 511 q 218 502 221 505 q 189 488 197 500 q 164 469 180 475 l 144 449 q 134 437 138 442 q 123 427 129 431 q 113 412 117 416 q 107 404 110 408 q 87 389 94 397 q 71 385 81 381 q 59 397 64 388 q 56 419 54 407 q 43 435 47 431 q 37 446 39 439 q 37 465 33 454 q 46 486 41 475 q 70 502 58 494 q 91 522 81 510 q 103 528 98 525 q 115 533 109 532 q 128 546 123 543 q 133 556 133 549 q 144 562 140 557 q 152 570 148 566 q 161 576 160 574 q 164 582 163 579 q 174 590 171 585 q 182 600 178 595 q 195 608 193 602 q 199 616 197 613 q 210 621 205 618 q 216 628 214 623 q 229 635 227 632 q 235 640 232 639 q 222 650 228 647 q 211 663 216 658 q 206 674 206 669 q 185 689 193 681 q 170 704 178 697 q 163 717 167 715 q 160 724 159 719 q 149 732 152 728 q 144 738 146 735 q 130 754 133 749 q 119 761 126 760 q 115 769 118 766 q 110 779 111 772 q 83 802 95 793 q 64 818 72 810 q 47 839 54 830 q 43 860 41 848 q 53 873 45 865 q 68 888 61 880 q 78 900 77 898 q 79 903 79 902 q 94 913 90 910 q 107 921 98 917 q 125 919 122 924 q 134 913 129 914 q 144 897 141 902 q 155 891 148 892 q 163 880 157 884 q 175 869 170 875 q 183 857 178 863 q 191 846 189 850 q 196 840 194 844 q 201 833 198 836 q 210 819 206 823 q 214 811 213 815 q 227 802 221 810 q 237 792 233 799 q 245 779 240 785 q 260 763 255 766 q 269 753 266 760 q 285 744 279 746 q 293 741 290 742 q 309 747 308 741 q 315 761 309 754 q 320 792 311 776 q 315 810 315 803 q 320 818 316 818 q 315 850 317 838 q 311 878 312 863 q 311 885 311 882 q 311 892 312 888 q 307 924 309 907 q 308 959 305 940 q 304 966 307 963 q 301 972 302 970 q 297 992 298 987 q 294 1000 296 997 q 290 1015 293 1009 q 288 1024 288 1020 q 291 1033 289 1029 q 296 1042 293 1036 q 309 1040 307 1039 q 315 1043 312 1042 q 327 1041 324 1042 q 332 1040 330 1040 q 346 1044 339 1042 q 359 1047 353 1046 q 380 1031 377 1035 q 385 1023 382 1027 q 389 1015 388 1019 q 392 994 389 1008 q 393 982 395 983 q 393 979 392 981 q 395 945 396 960 q 399 918 395 930 q 397 909 395 914 q 399 898 399 903 q 398 888 399 895 q 399 876 397 880 q 400 858 401 864 q 399 845 399 852 q 399 835 399 840 q 400 826 400 830 q 401 816 400 821 q 401 807 401 811 q 399 789 399 793 q 396 780 399 784 q 414 791 410 788 q 418 799 418 795 q 435 811 430 807 q 446 823 444 821 q 449 829 448 826 q 456 833 453 831 q 463 838 458 836 q 486 853 479 848 q 502 860 494 859 q 515 873 509 867 q 529 886 522 879 q 551 895 547 891 q 563 907 557 903 q 572 916 568 911 q 580 924 576 920 q 590 930 583 929 q 605 937 601 937 q 616 937 609 937 q 640 916 628 922 q 669 887 652 897 q 671 876 666 880 q 677 865 677 872 z "},"+":{"ha":810,"x_min":49,"x_max":761,"o":"m 758 509 q 760 477 761 490 q 742 453 758 464 q 716 461 728 454 q 699 456 708 458 q 681 460 689 453 q 651 450 670 453 q 621 452 632 446 q 591 445 606 450 q 564 446 575 439 q 543 439 555 439 q 519 438 530 439 q 500 437 509 438 q 483 439 491 437 q 481 423 477 430 q 484 410 484 416 q 484 373 486 392 q 483 336 483 354 q 484 293 483 313 q 483 248 486 273 q 480 229 480 237 q 480 216 480 221 q 479 189 480 206 q 476 157 479 172 q 458 149 465 151 q 448 146 450 146 q 439 149 444 146 q 427 152 434 151 q 411 151 420 153 q 388 151 401 148 q 376 153 376 153 q 369 151 376 153 q 357 151 365 149 q 345 151 350 153 q 331 182 331 164 q 331 228 331 199 q 330 243 331 235 q 330 258 330 251 q 330 278 330 269 q 331 298 331 288 q 330 318 330 308 q 331 339 331 328 q 332 353 334 350 q 332 359 331 357 q 336 374 334 366 q 342 389 339 381 q 343 415 345 401 q 342 445 342 429 q 323 445 336 448 q 294 441 308 444 q 264 439 279 439 q 247 441 255 439 q 231 441 239 442 q 196 438 220 438 q 156 435 172 438 q 143 430 149 433 q 130 426 137 427 q 117 427 123 429 q 104 425 110 426 q 87 419 96 422 q 64 419 79 416 q 55 429 57 422 q 49 442 53 437 q 52 457 50 450 q 56 473 54 464 q 56 491 57 481 q 54 509 54 500 q 59 560 57 534 q 76 593 61 586 q 106 589 91 594 q 137 590 122 583 q 157 591 146 593 q 182 591 168 593 q 203 595 195 589 q 214 593 206 593 q 225 590 221 593 q 233 593 231 590 q 243 597 236 595 q 257 597 248 597 q 273 598 266 598 q 281 596 277 598 q 289 595 286 594 q 301 600 296 595 q 313 601 307 604 q 322 629 320 613 q 326 663 324 644 q 324 673 326 669 q 328 680 323 678 q 325 695 326 688 q 324 713 324 703 q 323 736 324 724 q 323 758 321 747 q 328 791 324 774 q 324 825 331 808 q 333 844 332 830 q 338 865 334 857 q 367 875 350 872 q 403 878 384 878 q 439 877 422 879 q 471 873 457 875 q 481 852 477 865 q 477 826 484 838 q 481 808 481 817 q 480 793 480 800 q 471 723 477 754 q 461 658 464 692 q 460 644 463 647 q 458 639 458 642 q 458 601 461 621 q 461 567 454 581 q 473 565 468 564 q 486 567 479 566 q 503 571 499 570 q 509 572 506 572 q 554 574 532 571 q 594 578 576 576 q 606 576 601 578 q 617 575 610 575 q 629 576 627 576 q 635 575 632 575 q 646 578 640 575 q 654 574 651 581 q 676 579 665 581 q 701 579 688 578 q 716 583 709 581 q 734 586 723 586 q 741 578 741 583 q 745 570 742 574 q 752 543 751 553 q 757 525 753 532 q 758 518 758 522 q 758 509 757 514 z "},",":{"ha":330,"x_min":47,"x_max":282,"o":"m 279 11 q 277 -13 278 -4 q 274 -26 275 -22 q 273 -41 275 -37 q 270 -49 271 -46 q 267 -62 269 -60 q 264 -65 266 -64 q 254 -79 258 -76 q 248 -81 251 -81 q 248 -90 245 -88 q 250 -99 251 -92 q 239 -115 243 -106 q 227 -130 235 -125 q 212 -160 227 -152 q 207 -170 210 -165 q 201 -179 203 -175 q 196 -190 198 -184 q 191 -199 194 -195 q 182 -212 183 -208 q 178 -218 180 -216 q 162 -229 168 -222 q 149 -239 156 -236 q 126 -245 134 -241 q 114 -247 118 -248 q 106 -250 109 -247 q 99 -254 104 -254 q 84 -247 92 -250 q 69 -240 76 -244 q 71 -228 69 -232 q 72 -216 73 -224 q 81 -204 79 -212 q 87 -188 84 -197 q 92 -172 90 -179 q 102 -160 95 -164 q 105 -134 98 -145 q 115 -113 113 -123 q 115 -95 114 -103 q 117 -79 115 -87 q 119 -64 117 -72 q 121 -46 122 -57 q 117 -34 121 -39 q 115 -20 113 -28 q 95 -22 102 -20 q 85 -28 90 -24 q 76 -30 81 -31 q 63 -21 66 -27 q 50 -11 60 -15 q 54 3 54 -4 q 52 18 53 11 q 50 31 50 24 q 56 41 50 37 q 49 64 47 50 q 61 83 50 77 q 71 106 62 96 q 88 123 79 117 q 111 130 94 129 q 134 140 127 130 q 148 140 141 137 q 160 144 155 144 q 173 138 168 142 q 187 132 178 133 q 197 119 193 125 q 208 110 201 113 q 212 98 212 104 q 217 85 213 92 q 229 89 224 88 q 240 85 235 90 q 248 81 245 85 q 255 75 251 77 q 278 54 270 66 q 279 34 275 46 q 279 11 282 22 z "},"-":{"ha":536,"x_min":52,"x_max":487,"o":"m 487 411 q 480 403 483 406 q 468 397 477 400 q 450 395 460 396 q 429 392 439 395 q 412 389 422 391 q 392 389 403 387 q 379 391 385 389 q 370 396 373 393 q 342 396 355 399 q 320 399 328 393 q 302 395 313 392 q 279 400 290 399 q 269 398 274 400 q 259 397 263 396 q 227 395 244 397 q 198 399 209 392 q 187 394 194 395 q 174 391 180 393 q 157 385 168 388 q 136 381 145 382 q 127 381 132 380 q 119 381 123 382 q 94 373 106 378 q 66 370 81 368 q 60 377 65 377 q 57 385 56 377 q 54 418 57 404 q 52 445 52 431 q 52 473 52 461 q 54 494 53 484 q 54 516 54 505 q 54 547 54 528 q 64 556 58 553 q 77 562 71 559 q 97 559 91 557 q 106 560 103 560 q 119 557 113 559 q 132 555 125 556 q 148 555 145 556 q 153 553 151 553 q 164 555 156 555 q 179 553 172 555 q 193 553 184 556 q 208 547 201 549 q 224 551 217 548 q 243 555 231 555 q 255 558 250 555 q 264 562 260 562 q 281 562 271 560 q 301 563 290 564 q 313 558 305 562 q 328 557 321 555 q 350 561 339 559 q 368 563 361 563 q 401 563 387 564 q 429 568 416 562 q 445 564 439 570 q 453 565 449 564 q 461 563 457 566 q 469 551 465 559 q 473 536 473 543 q 469 524 472 528 q 464 514 465 521 q 466 504 467 509 q 468 494 465 499 q 472 486 469 490 q 476 479 475 483 q 477 469 476 472 q 480 467 479 467 q 483 467 481 467 q 484 464 484 467 q 486 439 487 453 q 487 411 486 426 z "},".":{"ha":288,"x_min":47,"x_max":240,"o":"m 239 81 q 239 73 240 79 q 236 62 237 68 q 233 37 235 46 q 224 15 231 28 q 216 2 220 8 q 209 -7 212 -4 q 201 -8 206 -8 q 193 -11 197 -8 q 161 -20 178 -18 q 136 -22 145 -23 q 114 -12 121 -19 q 100 -10 107 -11 q 85 -7 92 -9 q 77 2 79 0 q 72 11 76 4 q 64 28 65 22 q 62 39 64 35 q 56 53 58 49 q 52 61 53 57 q 50 78 47 72 q 60 94 53 84 q 88 127 71 110 q 123 138 111 137 q 149 136 134 138 q 174 140 164 138 q 193 140 184 142 q 203 130 195 138 q 216 117 210 121 q 223 108 222 111 q 225 102 224 104 q 233 93 228 99 q 239 81 239 87 z "},"/":{"ha":631,"x_min":42,"x_max":583,"o":"m 582 983 q 576 967 582 974 q 568 954 571 960 q 566 942 567 947 q 562 932 564 937 q 557 920 557 924 q 555 913 556 916 q 549 903 552 907 q 545 892 547 899 q 543 880 543 886 q 541 868 544 873 q 537 861 540 863 q 532 854 534 859 q 526 841 528 844 q 524 836 525 838 q 517 817 519 826 q 513 796 515 807 q 502 770 506 779 q 494 753 498 761 q 487 738 488 742 q 478 721 479 726 q 475 713 477 716 q 470 703 471 707 q 469 697 469 700 q 463 685 463 688 q 463 680 464 682 q 459 666 460 673 q 453 654 458 659 q 452 640 456 646 q 446 629 449 635 q 441 609 444 614 q 441 598 439 604 q 432 585 433 594 q 427 570 431 576 q 414 553 416 559 q 406 547 411 548 q 404 534 404 536 q 401 532 403 533 q 397 519 399 526 q 395 510 396 513 q 385 496 391 502 q 386 487 388 490 q 385 479 384 484 q 378 466 381 472 q 377 449 374 460 q 367 435 370 444 q 361 420 363 427 q 346 393 351 407 q 342 383 343 388 q 338 372 340 378 q 332 359 335 365 q 332 346 330 353 q 321 327 326 336 q 309 307 316 317 q 300 288 305 297 q 295 277 297 282 q 289 267 293 271 q 288 258 292 260 q 283 251 285 255 q 282 233 282 245 q 273 218 275 227 q 263 201 270 209 q 258 186 263 193 q 251 172 254 180 q 245 144 248 157 q 240 125 243 132 q 233 113 237 118 q 225 100 228 107 q 218 78 220 90 q 208 58 216 66 q 204 39 212 47 q 198 18 197 31 q 186 0 193 3 q 179 -7 180 -3 q 144 -8 161 -5 q 109 -11 127 -11 q 100 -16 103 -14 q 90 -16 96 -18 q 77 -12 83 -16 q 64 -1 71 -7 q 52 34 42 16 q 59 59 61 50 q 60 76 57 68 q 64 85 61 83 q 71 95 68 88 q 76 110 73 102 q 81 125 79 118 q 90 136 88 134 q 94 138 92 138 q 96 152 96 145 q 99 165 96 159 q 105 175 104 172 q 107 180 106 178 q 113 187 110 184 q 117 197 115 190 q 124 218 119 212 q 132 228 129 224 q 135 240 134 235 q 138 252 136 245 q 145 262 141 258 q 152 273 149 267 q 156 288 157 286 q 157 293 155 290 q 178 342 167 320 q 199 385 189 365 q 201 399 198 392 q 208 412 205 406 q 216 429 214 423 q 218 438 217 435 q 229 448 222 445 q 239 458 236 452 q 239 469 236 465 q 244 475 243 472 q 250 498 251 490 q 251 511 250 507 q 256 532 255 528 q 259 540 258 537 q 271 561 266 551 q 281 582 275 571 q 289 598 288 594 q 292 605 290 602 q 296 618 294 612 q 301 632 298 625 q 306 643 304 637 q 311 655 308 648 q 319 686 315 670 q 330 713 324 703 q 334 728 334 723 q 335 736 334 734 q 344 752 342 747 q 349 760 346 757 q 352 771 351 765 q 355 780 353 777 q 362 795 361 791 q 374 816 370 807 q 380 831 377 825 q 382 843 382 840 q 384 849 382 846 q 390 865 387 857 q 395 879 393 872 q 395 889 396 884 q 395 901 393 894 q 399 915 399 911 q 403 921 400 918 q 408 934 406 932 q 411 937 410 936 q 429 975 422 960 q 442 1004 435 989 q 441 1015 444 1012 q 441 1024 438 1019 q 464 1042 458 1040 q 487 1040 479 1044 q 506 1034 495 1036 q 540 1031 529 1031 q 564 1032 551 1032 q 582 983 583 998 z "},":":{"ha":292,"x_min":49,"x_max":243,"o":"m 236 585 q 231 572 236 578 q 224 560 227 567 q 217 547 217 549 q 217 543 216 544 q 206 532 208 537 q 201 525 205 528 q 180 522 190 522 q 157 524 170 521 q 145 519 151 522 q 133 513 140 515 q 97 524 113 515 q 68 543 81 532 q 63 552 66 549 q 61 562 60 555 q 54 568 58 566 q 49 576 50 571 q 50 590 50 583 q 52 602 49 597 q 59 622 58 613 q 62 635 60 631 q 69 644 64 637 q 80 654 75 650 q 93 661 90 661 q 98 663 96 662 q 137 678 126 680 q 145 686 142 681 q 152 694 148 690 q 161 701 156 699 q 175 701 165 703 q 187 690 180 694 q 197 674 194 685 q 208 671 202 671 q 217 669 213 671 q 223 659 220 663 q 228 648 227 654 q 228 642 229 646 q 228 633 227 637 q 234 611 229 625 q 236 585 239 597 m 243 81 q 241 73 243 79 q 240 62 240 68 q 235 37 237 46 q 227 15 233 28 q 219 2 224 8 q 212 -7 214 -4 q 205 -8 209 -8 q 195 -11 202 -8 q 165 -20 182 -18 q 138 -22 148 -23 q 117 -12 123 -19 q 103 -10 110 -11 q 91 -7 96 -9 q 81 2 84 0 q 75 11 79 4 q 68 28 68 22 q 66 39 68 35 q 59 53 61 49 q 54 61 57 57 q 53 78 50 72 q 62 94 56 84 q 91 127 73 110 q 126 138 114 137 q 153 136 138 138 q 178 140 168 138 q 197 140 189 142 q 206 130 199 138 q 218 117 213 121 q 226 108 225 111 q 228 102 227 104 q 236 93 231 99 q 243 81 241 87 z "},";":{"ha":342,"x_min":47,"x_max":293,"o":"m 293 614 q 286 594 293 604 q 279 570 278 585 q 273 562 274 567 q 270 553 273 556 q 263 542 263 545 q 262 536 263 538 q 246 527 250 529 q 240 524 243 525 q 229 519 235 521 q 220 511 222 517 q 201 508 205 510 q 194 505 197 506 q 183 504 191 505 q 172 503 175 503 q 161 510 165 505 q 146 514 156 515 q 136 524 144 522 q 126 533 127 525 q 113 537 119 536 q 104 544 107 538 q 103 555 103 547 q 100 570 103 563 q 99 610 92 594 q 115 632 106 625 q 127 652 122 644 q 137 667 132 661 q 144 669 140 670 q 155 671 149 669 q 170 679 163 678 q 180 685 176 680 q 206 686 195 678 q 228 692 217 693 q 239 685 236 690 q 252 681 241 680 q 260 671 255 674 q 273 663 266 667 q 279 654 274 656 q 288 646 285 651 q 290 639 290 643 q 289 628 289 635 l 293 614 m 279 11 q 277 -13 278 -4 q 274 -26 275 -22 q 273 -41 275 -37 q 270 -49 271 -46 q 267 -62 269 -60 q 264 -65 266 -64 q 254 -79 258 -76 q 248 -81 251 -81 q 248 -90 245 -88 q 250 -99 251 -92 q 239 -115 243 -106 q 227 -130 235 -125 q 212 -160 227 -152 q 207 -170 210 -165 q 201 -179 203 -175 q 196 -190 198 -184 q 191 -199 194 -195 q 182 -212 183 -208 q 178 -218 180 -216 q 162 -229 168 -222 q 149 -239 156 -236 q 126 -245 134 -241 q 114 -247 118 -248 q 106 -250 109 -247 q 99 -254 104 -254 q 84 -247 92 -250 q 69 -240 76 -244 q 71 -228 69 -232 q 72 -216 73 -224 q 81 -204 79 -212 q 87 -188 84 -197 q 92 -172 90 -179 q 102 -160 95 -164 q 105 -134 98 -145 q 115 -113 113 -123 q 115 -95 114 -103 q 117 -79 115 -87 q 119 -64 117 -72 q 121 -46 122 -57 q 117 -34 121 -39 q 115 -20 113 -28 q 95 -22 102 -20 q 85 -28 90 -24 q 76 -30 81 -31 q 63 -21 66 -27 q 50 -11 60 -15 q 54 3 54 -4 q 52 18 53 11 q 50 31 50 24 q 56 41 50 37 q 49 64 47 50 q 61 83 50 77 q 71 106 62 96 q 88 123 79 117 q 111 130 94 129 q 134 140 127 130 q 148 140 141 137 q 160 144 155 144 q 173 138 168 142 q 187 132 178 133 q 197 119 193 125 q 208 110 201 113 q 212 98 212 104 q 217 85 213 92 q 229 89 224 88 q 240 85 235 90 q 248 81 245 85 q 255 75 251 77 q 278 54 270 66 q 279 34 275 46 q 279 11 282 22 z "},"<":{"ha":755,"x_min":45,"x_max":707,"o":"m 680 777 q 690 771 684 774 q 699 761 696 768 q 699 747 701 753 q 696 735 696 741 q 695 713 696 720 q 694 705 694 707 q 698 684 699 690 q 700 677 697 678 q 699 665 697 670 q 699 656 700 661 q 695 640 694 646 q 696 631 696 633 q 675 609 685 614 q 654 601 666 604 q 642 596 646 597 q 636 595 639 595 q 621 585 625 589 q 614 581 617 582 q 593 572 601 575 q 579 566 586 568 q 568 562 571 563 q 562 560 564 562 q 539 555 547 556 q 525 552 532 555 q 506 543 511 544 q 495 540 500 541 q 478 533 484 536 q 468 526 472 530 q 459 524 463 526 q 449 524 456 522 q 434 513 439 514 q 426 510 429 511 q 413 502 415 505 q 410 499 411 499 q 397 494 399 495 q 392 494 395 494 q 366 483 378 487 q 343 473 353 479 q 335 469 339 471 q 331 463 331 468 q 346 457 342 463 q 361 453 350 452 q 370 446 363 448 q 381 442 376 445 q 399 439 391 444 q 412 433 408 435 q 423 426 420 429 q 426 425 425 425 q 444 418 439 420 q 450 416 448 416 q 462 412 457 414 q 472 408 467 411 q 484 403 479 406 q 495 397 488 400 q 524 388 514 392 q 544 381 533 384 q 549 375 547 378 q 557 370 552 372 q 585 364 570 368 q 610 358 600 361 q 632 348 625 351 q 646 343 639 345 q 661 342 651 342 q 677 340 670 342 q 685 337 682 338 q 690 335 688 336 l 693 334 q 707 321 705 324 q 705 313 707 317 q 703 302 704 308 q 704 288 705 294 q 701 277 703 282 q 702 263 701 270 q 703 251 703 256 q 702 237 701 241 q 703 231 703 233 q 699 199 699 212 q 697 178 700 186 q 676 160 690 165 q 655 168 662 155 q 633 182 640 176 q 617 190 627 187 q 600 204 612 201 q 582 216 589 208 q 563 223 571 217 q 544 235 555 229 q 532 239 534 237 q 526 243 529 241 q 513 245 515 244 q 510 247 511 247 q 500 250 507 250 q 488 251 494 250 q 473 255 479 252 q 463 262 468 258 q 439 273 448 270 q 427 282 431 275 q 413 286 419 282 q 400 293 407 290 q 393 294 396 294 q 385 296 389 294 q 361 310 369 307 q 347 316 354 313 q 340 323 345 323 q 330 327 335 324 q 316 336 323 331 q 300 342 309 342 q 292 350 297 349 q 283 355 286 351 q 268 363 274 358 q 252 372 262 369 q 238 379 245 377 q 221 384 231 381 q 208 391 214 388 q 197 396 202 393 q 187 405 191 400 q 178 412 183 410 q 159 420 170 416 q 141 429 148 423 q 121 442 125 435 q 109 446 118 449 q 104 454 104 449 q 98 461 103 460 q 87 460 91 460 q 80 461 83 461 q 71 468 73 465 q 64 471 68 471 q 50 488 56 477 q 52 509 45 498 q 66 517 56 515 q 83 522 76 519 q 104 532 98 529 q 113 537 110 536 q 126 543 123 540 q 132 548 129 547 q 144 553 141 551 q 149 555 146 555 q 163 559 159 556 l 165 560 q 180 571 180 570 q 204 576 195 571 q 227 582 213 582 q 233 589 229 587 q 240 593 237 590 q 270 602 269 601 q 290 612 277 614 q 304 619 300 618 q 312 620 309 620 q 336 631 328 628 q 351 635 345 633 q 373 643 366 642 q 385 646 380 644 q 408 660 393 656 q 433 673 422 663 q 444 675 439 675 q 452 678 449 675 q 468 688 457 682 q 479 692 475 690 q 491 694 484 694 q 517 709 510 703 q 532 719 525 715 q 541 725 536 723 q 548 730 545 727 q 560 729 555 727 q 568 734 566 731 q 593 743 583 739 q 613 751 602 747 q 636 763 624 758 q 663 770 648 768 q 671 775 667 773 q 680 777 674 777 z "}}}
